<?xml version="1.0" encoding="UTF-8" standalone="no"?>
<!DOCTYPE svg PUBLIC "-//W3C//DTD SVG 1.1//EN"
 "http://www.w3.org/Graphics/SVG/1.1/DTD/svg11.dtd">
<!-- Generated by graphviz version 2.43.0 (0)
 -->
<!-- Title: main_graph Pages: 1 -->
<svg width="4870pt" height="896pt"
 viewBox="0.00 0.00 4870.00 896.00" xmlns="http://www.w3.org/2000/svg" xmlns:xlink="http://www.w3.org/1999/xlink">
<g id="graph0" class="graph" transform="scale(1 1) rotate(0) translate(108 788)">
<title>main_graph</title>
<polygon fill="#2f2f2f" stroke="transparent" points="-108,108 -108,-788 4762,-788 4762,108 -108,108"/>
<text text-anchor="middle" x="2327" y="-7.8" font-family="Helvetica,sans-Serif" font-size="14.00">/home/user/git/repos/OpenStudioLandscapes/.landscapes/2025&#45;07&#45;10&#45;22&#45;36&#45;50&#45;47cd6c0a7dd141429707ab6d91190a27/Ayon__Ayon/Ayon__DOCKER_COMPOSE/docker_compose/docker&#45;compose.yml</text>
<g id="clust1" class="cluster">
<title>cluster_cluster_root_services_2025&#45;07&#45;10&#45;22&#45;36&#45;50&#45;47cd6c0a7dd141429707ab6d91190a27&#45;default</title>
<path fill="#ff00ff" fill-opacity="0.062745" stroke="#ff00ff" d="M1861,-31C1861,-31 4634,-31 4634,-31 4640,-31 4646,-37 4646,-43 4646,-43 4646,-660 4646,-660 4646,-666 4640,-672 4634,-672 4634,-672 1861,-672 1861,-672 1855,-672 1849,-666 1849,-660 1849,-660 1849,-43 1849,-43 1849,-37 1855,-31 1861,-31"/>
<text text-anchor="middle" x="3247.5" y="-636" font-family="Helvetica,sans-Serif" font-size="40.00" fill="#ff00ff">Compose Services (2025&#45;07&#45;10&#45;22&#45;36&#45;50&#45;47cd6c0a7dd141429707ab6d91190a27&#45;default)</text>
</g>
<g id="clust2" class="cluster">
<title>cluster_cluster_service_postgres</title>
<path fill="#00ffff" fill-opacity="0.062745" stroke="white" d="M3567,-274C3567,-274 4626,-274 4626,-274 4632,-274 4638,-280 4638,-286 4638,-286 4638,-600 4638,-600 4638,-606 4632,-612 4626,-612 4626,-612 3567,-612 3567,-612 3561,-612 3555,-606 3555,-600 3555,-600 3555,-286 3555,-286 3555,-280 3561,-274 3567,-274"/>
<text text-anchor="middle" x="4096.5" y="-576" font-family="Helvetica,sans-Serif" font-size="40.00" fill="white">postgres</text>
</g>
<g id="clust3" class="cluster">
<title>cluster_cluster_service_redis</title>
<path fill="#00ffff" fill-opacity="0.062745" stroke="white" d="M3651,-39C3651,-39 4542,-39 4542,-39 4548,-39 4554,-45 4554,-51 4554,-51 4554,-254 4554,-254 4554,-260 4548,-266 4542,-266 4542,-266 3651,-266 3651,-266 3645,-266 3639,-260 3639,-254 3639,-254 3639,-51 3639,-51 3639,-45 3645,-39 3651,-39"/>
<text text-anchor="middle" x="4096.5" y="-230" font-family="Helvetica,sans-Serif" font-size="40.00" fill="white">redis</text>
</g>
<g id="clust4" class="cluster">
<title>cluster_cluster_service_server</title>
<path fill="#00ffff" fill-opacity="0.062745" stroke="white" d="M1869,-270C1869,-270 2839,-270 2839,-270 2845,-270 2851,-276 2851,-282 2851,-282 2851,-600 2851,-600 2851,-606 2845,-612 2839,-612 2839,-612 1869,-612 1869,-612 1863,-612 1857,-606 1857,-600 1857,-600 1857,-282 1857,-282 1857,-276 1863,-270 1869,-270"/>
<text text-anchor="middle" x="2354" y="-576" font-family="Helvetica,sans-Serif" font-size="40.00" fill="white">server</text>
</g>
<g id="clust5" class="cluster">
<title>cluster_cluster_host</title>
<path fill="#000000" fill-opacity="0.062745" stroke="#000000" d="M20,-43C20,-43 1149,-43 1149,-43 1155,-43 1161,-49 1161,-55 1161,-55 1161,-517 1161,-517 1161,-523 1155,-529 1149,-529 1149,-529 20,-529 20,-529 14,-529 8,-523 8,-517 8,-517 8,-55 8,-55 8,-49 14,-43 20,-43"/>
<text text-anchor="middle" x="584.5" y="-493" font-family="Helvetica,sans-Serif" font-size="40.00" fill="#000000">Host</text>
</g>
<g id="clust6" class="cluster">
<title>cluster_cluster_root_ports</title>
<path fill="#ffffff" fill-opacity="0.062745" stroke="#ffffff" d="M446.05,-333C446.05,-333 722.95,-333 722.95,-333 728.95,-333 734.95,-339 734.95,-345 734.95,-345 734.95,-457 734.95,-457 734.95,-463 728.95,-469 722.95,-469 722.95,-469 446.05,-469 446.05,-469 440.05,-469 434.05,-463 434.05,-457 434.05,-457 434.05,-345 434.05,-345 434.05,-339 440.05,-333 446.05,-333"/>
<text text-anchor="middle" x="584.5" y="-433" font-family="Helvetica,sans-Serif" font-size="40.00" fill="#ffffff">Exposed Ports</text>
</g>
<g id="clust7" class="cluster">
<title>cluster_cluster_root_volumes</title>
<path fill="#00ffff" fill-opacity="0.062745" stroke="#00ffff" d="M28,-163C28,-163 1141,-163 1141,-163 1147,-163 1153,-169 1153,-175 1153,-175 1153,-313 1153,-313 1153,-319 1147,-325 1141,-325 1141,-325 28,-325 28,-325 22,-325 16,-319 16,-313 16,-313 16,-175 16,-175 16,-169 22,-163 28,-163"/>
<text text-anchor="middle" x="584.5" y="-289" font-family="Helvetica,sans-Serif" font-size="40.00" fill="#00ffff">Mounted Volumes</text>
</g>
<g id="clust8" class="cluster">
<title>cluster_cluster_root_networks</title>
<path fill="#ffa500" fill-opacity="0.062745" stroke="#ffa500" d="M493.5,-51C493.5,-51 675.5,-51 675.5,-51 681.5,-51 687.5,-57 687.5,-63 687.5,-63 687.5,-143 687.5,-143 687.5,-149 681.5,-155 675.5,-155 675.5,-155 493.5,-155 493.5,-155 487.5,-155 481.5,-149 481.5,-143 481.5,-143 481.5,-63 481.5,-63 481.5,-57 487.5,-51 493.5,-51"/>
<text text-anchor="middle" x="584.5" y="-119" font-family="Helvetica,sans-Serif" font-size="40.00" fill="#ffa500">Networks</text>
</g>
<!-- NODE&#45;SERVICE_postgres -->
<g id="node1" class="node">
<title>NODE&#45;SERVICE_postgres</title>
<polygon fill="#a0a0a0" stroke="transparent" points="4630,-551.5 3563,-551.5 3563,-282.5 4630,-282.5 4630,-551.5"/>
<polygon fill="none" stroke="#0a0a0a" points="3564.5,-533 3564.5,-550 3987.5,-550 3987.5,-533 3564.5,-533"/>
<text text-anchor="start" x="3800.5" y="-537.8" font-family="Helvetica,sans-Serif" font-size="14.00"> &#160;&#160;&#160;&#160;&#160;&#160;&#160;&#160;&#160;&#160;&#160;service_name &#160;&#160;&#160;&#160;&#160;&#160;&#160;</text>
<polygon fill="none" stroke="#0a0a0a" points="3987.5,-533 3987.5,-550 4629.5,-550 4629.5,-533 3987.5,-533"/>
<text text-anchor="start" x="3988.5" y="-537.8" font-family="Helvetica,sans-Serif" font-size="14.00"> &#160;&#160;&#160;&#160;&#160;&#160;&#160;&#160;&#160;&#160;&#160;postgres &#160;&#160;&#160;&#160;&#160;&#160;&#160;</text>
<polygon fill="none" stroke="#0a0a0a" points="3564.5,-516 3564.5,-533 3987.5,-533 3987.5,-516 3564.5,-516"/>
<text text-anchor="start" x="3784.5" y="-520.8" font-family="Helvetica,sans-Serif" font-size="14.00"> &#160;&#160;&#160;&#160;&#160;&#160;&#160;&#160;&#160;&#160;&#160;container_name &#160;&#160;&#160;&#160;&#160;&#160;&#160;</text>
<polygon fill="none" stroke="#0a0a0a" points="3987.5,-516 3987.5,-533 4629.5,-533 4629.5,-516 3987.5,-516"/>
<text text-anchor="start" x="3988.5" y="-520.8" font-family="Helvetica,sans-Serif" font-size="14.00"> &#160;&#160;&#160;&#160;&#160;&#160;&#160;&#160;&#160;&#160;&#160;ayon&#45;postgres&#45;&#45;2025&#45;07&#45;10&#45;22&#45;36&#45;50&#45;47cd6c0a7dd141429707ab6d91190a27 &#160;&#160;&#160;&#160;&#160;&#160;&#160;</text>
<polygon fill="none" stroke="#0a0a0a" points="3564.5,-499 3564.5,-516 3987.5,-516 3987.5,-499 3564.5,-499"/>
<text text-anchor="start" x="3826.5" y="-503.8" font-family="Helvetica,sans-Serif" font-size="14.00"> &#160;&#160;&#160;&#160;&#160;&#160;&#160;&#160;&#160;&#160;&#160;hostname &#160;&#160;&#160;&#160;&#160;&#160;&#160;</text>
<polygon fill="none" stroke="#0a0a0a" points="3987.5,-499 3987.5,-516 4629.5,-516 4629.5,-499 3987.5,-499"/>
<text text-anchor="start" x="3988.5" y="-503.8" font-family="Helvetica,sans-Serif" font-size="14.00"> &#160;&#160;&#160;&#160;&#160;&#160;&#160;&#160;&#160;&#160;&#160;postgres.farm.evil &#160;&#160;&#160;&#160;&#160;&#160;&#160;</text>
<polygon fill="none" stroke="#0a0a0a" points="3564.5,-482 3564.5,-499 3987.5,-499 3987.5,-482 3564.5,-482"/>
<text text-anchor="start" x="3805.5" y="-486.8" font-family="Helvetica,sans-Serif" font-size="14.00"> &#160;&#160;&#160;&#160;&#160;&#160;&#160;&#160;&#160;&#160;&#160;domainname &#160;&#160;&#160;&#160;&#160;&#160;&#160;</text>
<polygon fill="none" stroke="#0a0a0a" points="3987.5,-482 3987.5,-499 4629.5,-499 4629.5,-482 3987.5,-482"/>
<text text-anchor="start" x="3988.5" y="-486.8" font-family="Helvetica,sans-Serif" font-size="14.00"> &#160;&#160;&#160;&#160;&#160;&#160;&#160;&#160;&#160;&#160;&#160;farm.evil &#160;&#160;&#160;&#160;&#160;&#160;&#160;</text>
<polygon fill="none" stroke="#0a0a0a" points="3564.5,-465 3564.5,-482 3987.5,-482 3987.5,-465 3564.5,-465"/>
<text text-anchor="start" x="3850.5" y="-469.8" font-family="Helvetica,sans-Serif" font-size="14.00"> &#160;&#160;&#160;&#160;&#160;&#160;&#160;&#160;&#160;&#160;&#160;restart &#160;&#160;&#160;&#160;&#160;&#160;&#160;</text>
<polygon fill="none" stroke="#0a0a0a" points="3987.5,-465 3987.5,-482 4629.5,-482 4629.5,-465 3987.5,-465"/>
<text text-anchor="start" x="3988.5" y="-469.8" font-family="Helvetica,sans-Serif" font-size="14.00"> &#160;&#160;&#160;&#160;&#160;&#160;&#160;&#160;&#160;&#160;&#160;unless&#45;stopped &#160;&#160;&#160;&#160;&#160;&#160;&#160;</text>
<polygon fill="none" stroke="#0a0a0a" points="3564.5,-448 3564.5,-465 3987.5,-465 3987.5,-448 3564.5,-448"/>
<text text-anchor="start" x="3853.5" y="-452.8" font-family="Helvetica,sans-Serif" font-size="14.00"> &#160;&#160;&#160;&#160;&#160;&#160;&#160;&#160;&#160;&#160;&#160;image &#160;&#160;&#160;&#160;&#160;&#160;&#160;</text>
<polygon fill="none" stroke="#0a0a0a" points="3987.5,-448 3987.5,-465 4629.5,-465 4629.5,-448 3987.5,-448"/>
<text text-anchor="start" x="3988.5" y="-452.8" font-family="Helvetica,sans-Serif" font-size="14.00"> &#160;&#160;&#160;&#160;&#160;&#160;&#160;&#160;&#160;&#160;&#160;postgres:${AYON_STACK_POSTGRES_TAG:&#45;15} &#160;&#160;&#160;&#160;&#160;&#160;&#160;</text>
<polygon fill="none" stroke="#0a0a0a" points="3564.5,-431 3564.5,-448 3987.5,-448 3987.5,-431 3564.5,-431"/>
<text text-anchor="start" x="3707.5" y="-435.8" font-family="Helvetica,sans-Serif" font-size="14.00"> &#160;&#160;&#160;&#160;&#160;&#160;&#160;&#160;&#160;&#160;&#160;command (ENTRYPOINT +) &#160;&#160;&#160;&#160;&#160;&#160;&#160;</text>
<polygon fill="none" stroke="#0a0a0a" points="3987.5,-431 3987.5,-448 4629.5,-448 4629.5,-431 3987.5,-431"/>
<text text-anchor="start" x="3988.5" y="-435.8" font-family="Helvetica,sans-Serif" font-size="14.00"> &#160;&#160;&#160;&#160;&#160;&#160;&#160;&#160;&#160;&#160;&#160;&#45; &#160;&#160;&#160;&#160;&#160;&#160;&#160;</text>
<polygon fill="none" stroke="#0a0a0a" points="3564.5,-414 3564.5,-431 3987.5,-431 3987.5,-414 3564.5,-414"/>
<text text-anchor="start" x="3775.5" y="-418.8" font-family="Helvetica,sans-Serif" font-size="14.00"> &#160;&#160;&#160;&#160;&#160;&#160;&#160;&#160;&#160;&#160;&#160;&#160;&#160;&#160;&#160;healthcheck &#160;&#160;&#160;&#160;&#160;&#160;&#160;&#160;&#160;&#160;&#160;</text>
<polygon fill="none" stroke="#0a0a0a" points="3987.5,-414 3987.5,-431 4629.5,-431 4629.5,-414 3987.5,-414"/>
<text text-anchor="start" x="3988.5" y="-418.8" font-family="Helvetica,sans-Serif" font-size="14.00"> &#160;&#160;&#160;&#160;&#160;&#160;&#160;&#160;&#160;&#160;&#160;&#160;&#160;&#160;&#160;CMD&#45;SHELL &#39;pg_isready &#45;U ayon&#39; &#160;&#160;&#160;&#160;&#160;&#160;&#160;&#160;&#160;&#160;&#160;</text>
<polygon fill="none" stroke="#0a0a0a" points="3564.5,-359 3564.5,-414 3987.5,-414 3987.5,-359 3564.5,-359"/>
<text text-anchor="start" x="3748.5" y="-382.8" font-family="Helvetica,sans-Serif" font-size="14.00"> &#160;&#160;&#160;&#160;&#160;&#160;&#160;&#160;&#160;&#160;&#160;&#160;&#160;&#160;&#160;environment (3) &#160;&#160;&#160;&#160;&#160;&#160;&#160;&#160;&#160;&#160;&#160;</text>
<polygon fill="none" stroke="#0a0a0a" points="3987.5,-359 3987.5,-414 4629.5,-414 4629.5,-359 3987.5,-359"/>
<polygon fill="none" stroke="#0a0a0a" points="3989.5,-395 3989.5,-412 4627.5,-412 4627.5,-395 3989.5,-395"/>
<text text-anchor="start" x="3990.5" y="-399.8" font-family="Helvetica,sans-Serif" font-size="14.00"> &#160;&#160;&#160;&#160;&#160;&#160;&#160;&#160;&#160;&#160;&#160;&#160;&#160;&#160;&#160;&#160;&#160;&#160;&#160;&#160;&#160;&#160;&#160;&#160;&#160;&#160;&#160;POSTGRES_DB=ayon &#160;&#160;&#160;&#160;&#160;&#160;&#160;&#160;&#160;&#160;&#160;&#160;&#160;&#160;&#160;&#160;&#160;&#160;&#160;&#160;&#160;&#160;&#160;</text>
<polygon fill="none" stroke="#0a0a0a" points="3989.5,-378 3989.5,-395 4627.5,-395 4627.5,-378 3989.5,-378"/>
<text text-anchor="start" x="3990.5" y="-382.8" font-family="Helvetica,sans-Serif" font-size="14.00"> &#160;&#160;&#160;&#160;&#160;&#160;&#160;&#160;&#160;&#160;&#160;&#160;&#160;&#160;&#160;&#160;&#160;&#160;&#160;&#160;&#160;&#160;&#160;&#160;&#160;&#160;&#160;POSTGRES_PASSWORD=ayon &#160;&#160;&#160;&#160;&#160;&#160;&#160;&#160;&#160;&#160;&#160;&#160;&#160;&#160;&#160;&#160;&#160;&#160;&#160;&#160;&#160;&#160;&#160;</text>
<polygon fill="none" stroke="#0a0a0a" points="3989.5,-361 3989.5,-378 4627.5,-378 4627.5,-361 3989.5,-361"/>
<text text-anchor="start" x="3990.5" y="-365.8" font-family="Helvetica,sans-Serif" font-size="14.00"> &#160;&#160;&#160;&#160;&#160;&#160;&#160;&#160;&#160;&#160;&#160;&#160;&#160;&#160;&#160;&#160;&#160;&#160;&#160;&#160;&#160;&#160;&#160;&#160;&#160;&#160;&#160;POSTGRES_USER=ayon &#160;&#160;&#160;&#160;&#160;&#160;&#160;&#160;&#160;&#160;&#160;&#160;&#160;&#160;&#160;&#160;&#160;&#160;&#160;&#160;&#160;&#160;&#160;</text>
<polygon fill="none" stroke="#0a0a0a" points="3988.5,-360 3988.5,-413 4628.5,-413 4628.5,-360 3988.5,-360"/>
<polygon fill="none" stroke="#0a0a0a" points="3564.5,-304 3564.5,-359 3987.5,-359 3987.5,-304 3564.5,-304"/>
<polygon fill="none" stroke="#0a0a0a" points="3566.5,-340 3566.5,-357 3985.5,-357 3985.5,-340 3566.5,-340"/>
<text text-anchor="start" x="3567.5" y="-344.8" font-family="Helvetica,sans-Serif" font-size="14.00"> &#160;&#160;&#160;&#160;&#160;&#160;&#160;&#160;&#160;&#160;&#160;&#160;&#160;&#160;&#160;&#160;&#160;&#160;&#160;&#160;&#160;&#160;&#160;&#160;&#160;&#160;&#160;/etc/localtime:ro &#160;&#160;&#160;&#160;&#160;&#160;&#160;&#160;&#160;&#160;&#160;&#160;&#160;&#160;&#160;&#160;&#160;&#160;&#160;&#160;&#160;&#160;&#160;</text>
<polygon fill="none" stroke="#0a0a0a" points="3566.5,-323 3566.5,-340 3985.5,-340 3985.5,-323 3566.5,-323"/>
<text text-anchor="start" x="3567.5" y="-327.8" font-family="Helvetica,sans-Serif" font-size="14.00"> &#160;&#160;&#160;&#160;&#160;&#160;&#160;&#160;&#160;&#160;&#160;&#160;&#160;&#160;&#160;&#160;&#160;&#160;&#160;&#160;&#160;&#160;&#160;&#160;&#160;&#160;&#160;/var/lib/postgresql/data:rw &#160;&#160;&#160;&#160;&#160;&#160;&#160;&#160;&#160;&#160;&#160;&#160;&#160;&#160;&#160;&#160;&#160;&#160;&#160;&#160;&#160;&#160;&#160;</text>
<polygon fill="none" stroke="#0a0a0a" points="3566.5,-306 3566.5,-323 3985.5,-323 3985.5,-306 3566.5,-306"/>
<text text-anchor="start" x="3567.5" y="-310.8" font-family="Helvetica,sans-Serif" font-size="14.00"> &#160;&#160;&#160;&#160;&#160;&#160;&#160;&#160;&#160;&#160;&#160;&#160;&#160;&#160;&#160;&#160;&#160;&#160;&#160;&#160;&#160;&#160;&#160;&#160;&#160;&#160;&#160;/var/lib/postgresql/data:rw &#160;&#160;&#160;&#160;&#160;&#160;&#160;&#160;&#160;&#160;&#160;&#160;&#160;&#160;&#160;&#160;&#160;&#160;&#160;&#160;&#160;&#160;&#160;</text>
<polygon fill="none" stroke="#0a0a0a" points="3565.5,-305 3565.5,-358 3986.5,-358 3986.5,-305 3565.5,-305"/>
<polygon fill="none" stroke="#0a0a0a" points="3987.5,-304 3987.5,-359 4629.5,-359 4629.5,-304 3987.5,-304"/>
<text text-anchor="start" x="3988.5" y="-327.8" font-family="Helvetica,sans-Serif" font-size="14.00"> &#160;&#160;&#160;&#160;&#160;&#160;&#160;&#160;&#160;&#160;&#160;&#160;&#160;&#160;&#160;volumes (3) &#160;&#160;&#160;&#160;&#160;&#160;&#160;&#160;&#160;&#160;&#160;</text>
<polygon fill="none" stroke="#0a0a0a" points="3564.5,-283 3564.5,-304 3987.5,-304 3987.5,-283 3564.5,-283"/>
<polygon fill="none" stroke="#0a0a0a" points="3566.5,-285 3566.5,-302 3985.5,-302 3985.5,-285 3566.5,-285"/>
<text text-anchor="start" x="3567.5" y="-289.8" font-family="Helvetica,sans-Serif" font-size="14.00"> &#160;&#160;&#160;&#160;&#160;&#160;&#160;&#160;&#160;&#160;&#160;&#160;&#160;&#160;&#160;&#160;&#160;&#160;&#160;&#160;&#160;&#160;&#160;&#160;&#160;&#160;&#160;ayon &#160;&#160;&#160;&#160;&#160;&#160;&#160;&#160;&#160;&#160;&#160;&#160;&#160;&#160;&#160;&#160;&#160;&#160;&#160;&#160;&#160;&#160;&#160;</text>
<polygon fill="none" stroke="#0a0a0a" points="3565.5,-284 3565.5,-303 3986.5,-303 3986.5,-284 3565.5,-284"/>
<polygon fill="none" stroke="#0a0a0a" points="3987.5,-283 3987.5,-304 4629.5,-304 4629.5,-283 3987.5,-283"/>
<text text-anchor="start" x="3988.5" y="-289.8" font-family="Helvetica,sans-Serif" font-size="14.00"> &#160;&#160;&#160;&#160;&#160;&#160;&#160;&#160;&#160;&#160;&#160;&#160;&#160;&#160;&#160;networks (1) &#160;&#160;&#160;&#160;&#160;&#160;&#160;&#160;&#160;&#160;&#160;</text>
<polygon fill="none" stroke="#0a0a0a" points="3563,-282.5 3563,-551.5 4630,-551.5 4630,-282.5 3563,-282.5"/>
</g>
<!-- NODE&#45;SERVICE_redis -->
<g id="node2" class="node">
<title>NODE&#45;SERVICE_redis</title>
<polygon fill="#a0a0a0" stroke="transparent" points="4546,-205.5 3647,-205.5 3647,-46.5 4546,-46.5 4546,-205.5"/>
<polygon fill="none" stroke="#0a0a0a" points="3648.5,-187 3648.5,-204 3929.5,-204 3929.5,-187 3648.5,-187"/>
<text text-anchor="start" x="3742.5" y="-191.8" font-family="Helvetica,sans-Serif" font-size="14.00"> &#160;&#160;&#160;&#160;&#160;&#160;&#160;&#160;&#160;&#160;&#160;service_name &#160;&#160;&#160;&#160;&#160;&#160;&#160;</text>
<polygon fill="none" stroke="#0a0a0a" points="3929.5,-187 3929.5,-204 4545.5,-204 4545.5,-187 3929.5,-187"/>
<text text-anchor="start" x="3930.5" y="-191.8" font-family="Helvetica,sans-Serif" font-size="14.00"> &#160;&#160;&#160;&#160;&#160;&#160;&#160;&#160;&#160;&#160;&#160;redis &#160;&#160;&#160;&#160;&#160;&#160;&#160;</text>
<polygon fill="none" stroke="#0a0a0a" points="3648.5,-170 3648.5,-187 3929.5,-187 3929.5,-170 3648.5,-170"/>
<text text-anchor="start" x="3726.5" y="-174.8" font-family="Helvetica,sans-Serif" font-size="14.00"> &#160;&#160;&#160;&#160;&#160;&#160;&#160;&#160;&#160;&#160;&#160;container_name &#160;&#160;&#160;&#160;&#160;&#160;&#160;</text>
<polygon fill="none" stroke="#0a0a0a" points="3929.5,-170 3929.5,-187 4545.5,-187 4545.5,-170 3929.5,-170"/>
<text text-anchor="start" x="3930.5" y="-174.8" font-family="Helvetica,sans-Serif" font-size="14.00"> &#160;&#160;&#160;&#160;&#160;&#160;&#160;&#160;&#160;&#160;&#160;ayon&#45;redis&#45;&#45;2025&#45;07&#45;10&#45;22&#45;36&#45;50&#45;47cd6c0a7dd141429707ab6d91190a27 &#160;&#160;&#160;&#160;&#160;&#160;&#160;</text>
<polygon fill="none" stroke="#0a0a0a" points="3648.5,-153 3648.5,-170 3929.5,-170 3929.5,-153 3648.5,-153"/>
<text text-anchor="start" x="3768.5" y="-157.8" font-family="Helvetica,sans-Serif" font-size="14.00"> &#160;&#160;&#160;&#160;&#160;&#160;&#160;&#160;&#160;&#160;&#160;hostname &#160;&#160;&#160;&#160;&#160;&#160;&#160;</text>
<polygon fill="none" stroke="#0a0a0a" points="3929.5,-153 3929.5,-170 4545.5,-170 4545.5,-153 3929.5,-153"/>
<text text-anchor="start" x="3930.5" y="-157.8" font-family="Helvetica,sans-Serif" font-size="14.00"> &#160;&#160;&#160;&#160;&#160;&#160;&#160;&#160;&#160;&#160;&#160;redis.farm.evil &#160;&#160;&#160;&#160;&#160;&#160;&#160;</text>
<polygon fill="none" stroke="#0a0a0a" points="3648.5,-136 3648.5,-153 3929.5,-153 3929.5,-136 3648.5,-136"/>
<text text-anchor="start" x="3747.5" y="-140.8" font-family="Helvetica,sans-Serif" font-size="14.00"> &#160;&#160;&#160;&#160;&#160;&#160;&#160;&#160;&#160;&#160;&#160;domainname &#160;&#160;&#160;&#160;&#160;&#160;&#160;</text>
<polygon fill="none" stroke="#0a0a0a" points="3929.5,-136 3929.5,-153 4545.5,-153 4545.5,-136 3929.5,-136"/>
<text text-anchor="start" x="3930.5" y="-140.8" font-family="Helvetica,sans-Serif" font-size="14.00"> &#160;&#160;&#160;&#160;&#160;&#160;&#160;&#160;&#160;&#160;&#160;farm.evil &#160;&#160;&#160;&#160;&#160;&#160;&#160;</text>
<polygon fill="none" stroke="#0a0a0a" points="3648.5,-119 3648.5,-136 3929.5,-136 3929.5,-119 3648.5,-119"/>
<text text-anchor="start" x="3792.5" y="-123.8" font-family="Helvetica,sans-Serif" font-size="14.00"> &#160;&#160;&#160;&#160;&#160;&#160;&#160;&#160;&#160;&#160;&#160;restart &#160;&#160;&#160;&#160;&#160;&#160;&#160;</text>
<polygon fill="none" stroke="#0a0a0a" points="3929.5,-119 3929.5,-136 4545.5,-136 4545.5,-119 3929.5,-119"/>
<text text-anchor="start" x="3930.5" y="-123.8" font-family="Helvetica,sans-Serif" font-size="14.00"> &#160;&#160;&#160;&#160;&#160;&#160;&#160;&#160;&#160;&#160;&#160;unless&#45;stopped &#160;&#160;&#160;&#160;&#160;&#160;&#160;</text>
<polygon fill="none" stroke="#0a0a0a" points="3648.5,-102 3648.5,-119 3929.5,-119 3929.5,-102 3648.5,-102"/>
<text text-anchor="start" x="3795.5" y="-106.8" font-family="Helvetica,sans-Serif" font-size="14.00"> &#160;&#160;&#160;&#160;&#160;&#160;&#160;&#160;&#160;&#160;&#160;image &#160;&#160;&#160;&#160;&#160;&#160;&#160;</text>
<polygon fill="none" stroke="#0a0a0a" points="3929.5,-102 3929.5,-119 4545.5,-119 4545.5,-102 3929.5,-102"/>
<text text-anchor="start" x="3930.5" y="-106.8" font-family="Helvetica,sans-Serif" font-size="14.00"> &#160;&#160;&#160;&#160;&#160;&#160;&#160;&#160;&#160;&#160;&#160;redis:alpine &#160;&#160;&#160;&#160;&#160;&#160;&#160;</text>
<polygon fill="none" stroke="#0a0a0a" points="3648.5,-85 3648.5,-102 3929.5,-102 3929.5,-85 3648.5,-85"/>
<text text-anchor="start" x="3649.5" y="-89.8" font-family="Helvetica,sans-Serif" font-size="14.00"> &#160;&#160;&#160;&#160;&#160;&#160;&#160;&#160;&#160;&#160;&#160;command (ENTRYPOINT +) &#160;&#160;&#160;&#160;&#160;&#160;&#160;</text>
<polygon fill="none" stroke="#0a0a0a" points="3929.5,-85 3929.5,-102 4545.5,-102 4545.5,-85 3929.5,-85"/>
<text text-anchor="start" x="3930.5" y="-89.8" font-family="Helvetica,sans-Serif" font-size="14.00"> &#160;&#160;&#160;&#160;&#160;&#160;&#160;&#160;&#160;&#160;&#160;&#45; &#160;&#160;&#160;&#160;&#160;&#160;&#160;</text>
<polygon fill="none" stroke="#0a0a0a" points="3648.5,-68 3648.5,-85 3929.5,-85 3929.5,-68 3648.5,-68"/>
<text text-anchor="start" x="3717.5" y="-72.8" font-family="Helvetica,sans-Serif" font-size="14.00"> &#160;&#160;&#160;&#160;&#160;&#160;&#160;&#160;&#160;&#160;&#160;&#160;&#160;&#160;&#160;healthcheck &#160;&#160;&#160;&#160;&#160;&#160;&#160;&#160;&#160;&#160;&#160;</text>
<polygon fill="none" stroke="#0a0a0a" points="3929.5,-68 3929.5,-85 4545.5,-85 4545.5,-68 3929.5,-68"/>
<text text-anchor="start" x="3930.5" y="-72.8" font-family="Helvetica,sans-Serif" font-size="14.00"> &#160;&#160;&#160;&#160;&#160;&#160;&#160;&#160;&#160;&#160;&#160;&#160;&#160;&#160;&#160;CMD&#45;SHELL &#39;redis&#45;cli ping | grep PONG&#39; &#160;&#160;&#160;&#160;&#160;&#160;&#160;&#160;&#160;&#160;&#160;</text>
<polygon fill="none" stroke="#0a0a0a" points="3648.5,-47 3648.5,-68 3929.5,-68 3929.5,-47 3648.5,-47"/>
<polygon fill="none" stroke="#0a0a0a" points="3650.5,-49 3650.5,-66 3927.5,-66 3927.5,-49 3650.5,-49"/>
<text text-anchor="start" x="3651.5" y="-53.8" font-family="Helvetica,sans-Serif" font-size="14.00"> &#160;&#160;&#160;&#160;&#160;&#160;&#160;&#160;&#160;&#160;&#160;&#160;&#160;&#160;&#160;&#160;&#160;&#160;&#160;&#160;&#160;&#160;&#160;&#160;&#160;&#160;&#160;ayon &#160;&#160;&#160;&#160;&#160;&#160;&#160;&#160;&#160;&#160;&#160;&#160;&#160;&#160;&#160;&#160;&#160;&#160;&#160;&#160;&#160;&#160;&#160;</text>
<polygon fill="none" stroke="#0a0a0a" points="3649.5,-48 3649.5,-67 3928.5,-67 3928.5,-48 3649.5,-48"/>
<polygon fill="none" stroke="#0a0a0a" points="3929.5,-47 3929.5,-68 4545.5,-68 4545.5,-47 3929.5,-47"/>
<text text-anchor="start" x="3930.5" y="-53.8" font-family="Helvetica,sans-Serif" font-size="14.00"> &#160;&#160;&#160;&#160;&#160;&#160;&#160;&#160;&#160;&#160;&#160;&#160;&#160;&#160;&#160;networks (1) &#160;&#160;&#160;&#160;&#160;&#160;&#160;&#160;&#160;&#160;&#160;</text>
<polygon fill="none" stroke="#0a0a0a" points="3647,-46.5 3647,-205.5 4546,-205.5 4546,-46.5 3647,-46.5"/>
</g>
<!-- NODE&#45;SERVICE_server -->
<g id="node3" class="node">
<title>NODE&#45;SERVICE_server</title>
<polygon fill="#a0a0a0" stroke="transparent" points="2843,-551.5 1865,-551.5 1865,-278.5 2843,-278.5 2843,-551.5"/>
<polygon fill="none" stroke="#0a0a0a" points="1866,-533 1866,-550 2217,-550 2217,-533 1866,-533"/>
<text text-anchor="start" x="2030" y="-537.8" font-family="Helvetica,sans-Serif" font-size="14.00"> &#160;&#160;&#160;&#160;&#160;&#160;&#160;&#160;&#160;&#160;&#160;service_name &#160;&#160;&#160;&#160;&#160;&#160;&#160;</text>
<polygon fill="none" stroke="#0a0a0a" points="2217,-533 2217,-550 2842,-550 2842,-533 2217,-533"/>
<text text-anchor="start" x="2218" y="-537.8" font-family="Helvetica,sans-Serif" font-size="14.00"> &#160;&#160;&#160;&#160;&#160;&#160;&#160;&#160;&#160;&#160;&#160;server &#160;&#160;&#160;&#160;&#160;&#160;&#160;</text>
<polygon fill="none" stroke="#0a0a0a" points="1866,-516 1866,-533 2217,-533 2217,-516 1866,-516"/>
<text text-anchor="start" x="2014" y="-520.8" font-family="Helvetica,sans-Serif" font-size="14.00"> &#160;&#160;&#160;&#160;&#160;&#160;&#160;&#160;&#160;&#160;&#160;container_name &#160;&#160;&#160;&#160;&#160;&#160;&#160;</text>
<polygon fill="none" stroke="#0a0a0a" points="2217,-516 2217,-533 2842,-533 2842,-516 2217,-516"/>
<text text-anchor="start" x="2218" y="-520.8" font-family="Helvetica,sans-Serif" font-size="14.00"> &#160;&#160;&#160;&#160;&#160;&#160;&#160;&#160;&#160;&#160;&#160;ayon&#45;server&#45;&#45;2025&#45;07&#45;10&#45;22&#45;36&#45;50&#45;47cd6c0a7dd141429707ab6d91190a27 &#160;&#160;&#160;&#160;&#160;&#160;&#160;</text>
<polygon fill="none" stroke="#0a0a0a" points="1866,-499 1866,-516 2217,-516 2217,-499 1866,-499"/>
<text text-anchor="start" x="2056" y="-503.8" font-family="Helvetica,sans-Serif" font-size="14.00"> &#160;&#160;&#160;&#160;&#160;&#160;&#160;&#160;&#160;&#160;&#160;hostname &#160;&#160;&#160;&#160;&#160;&#160;&#160;</text>
<polygon fill="none" stroke="#0a0a0a" points="2217,-499 2217,-516 2842,-516 2842,-499 2217,-499"/>
<text text-anchor="start" x="2218" y="-503.8" font-family="Helvetica,sans-Serif" font-size="14.00"> &#160;&#160;&#160;&#160;&#160;&#160;&#160;&#160;&#160;&#160;&#160;server.farm.evil &#160;&#160;&#160;&#160;&#160;&#160;&#160;</text>
<polygon fill="none" stroke="#0a0a0a" points="1866,-482 1866,-499 2217,-499 2217,-482 1866,-482"/>
<text text-anchor="start" x="2035" y="-486.8" font-family="Helvetica,sans-Serif" font-size="14.00"> &#160;&#160;&#160;&#160;&#160;&#160;&#160;&#160;&#160;&#160;&#160;domainname &#160;&#160;&#160;&#160;&#160;&#160;&#160;</text>
<polygon fill="none" stroke="#0a0a0a" points="2217,-482 2217,-499 2842,-499 2842,-482 2217,-482"/>
<text text-anchor="start" x="2218" y="-486.8" font-family="Helvetica,sans-Serif" font-size="14.00"> &#160;&#160;&#160;&#160;&#160;&#160;&#160;&#160;&#160;&#160;&#160;farm.evil &#160;&#160;&#160;&#160;&#160;&#160;&#160;</text>
<polygon fill="none" stroke="#0a0a0a" points="1866,-465 1866,-482 2217,-482 2217,-465 1866,-465"/>
<text text-anchor="start" x="2080" y="-469.8" font-family="Helvetica,sans-Serif" font-size="14.00"> &#160;&#160;&#160;&#160;&#160;&#160;&#160;&#160;&#160;&#160;&#160;restart &#160;&#160;&#160;&#160;&#160;&#160;&#160;</text>
<polygon fill="none" stroke="#0a0a0a" points="2217,-465 2217,-482 2842,-482 2842,-465 2217,-465"/>
<text text-anchor="start" x="2218" y="-469.8" font-family="Helvetica,sans-Serif" font-size="14.00"> &#160;&#160;&#160;&#160;&#160;&#160;&#160;&#160;&#160;&#160;&#160;unless&#45;stopped &#160;&#160;&#160;&#160;&#160;&#160;&#160;</text>
<polygon fill="none" stroke="#0a0a0a" points="1866,-448 1866,-465 2217,-465 2217,-448 1866,-448"/>
<text text-anchor="start" x="2083" y="-452.8" font-family="Helvetica,sans-Serif" font-size="14.00"> &#160;&#160;&#160;&#160;&#160;&#160;&#160;&#160;&#160;&#160;&#160;image &#160;&#160;&#160;&#160;&#160;&#160;&#160;</text>
<polygon fill="none" stroke="#0a0a0a" points="2217,-448 2217,-465 2842,-465 2842,-448 2217,-448"/>
<text text-anchor="start" x="2218" y="-452.8" font-family="Helvetica,sans-Serif" font-size="14.00"> &#160;&#160;&#160;&#160;&#160;&#160;&#160;&#160;&#160;&#160;&#160;ynput/ayon:${AYON_STACK_SERVER_TAG:&#45;latest} &#160;&#160;&#160;&#160;&#160;&#160;&#160;</text>
<polygon fill="none" stroke="#0a0a0a" points="1866,-431 1866,-448 2217,-448 2217,-431 1866,-431"/>
<text text-anchor="start" x="1937" y="-435.8" font-family="Helvetica,sans-Serif" font-size="14.00"> &#160;&#160;&#160;&#160;&#160;&#160;&#160;&#160;&#160;&#160;&#160;command (ENTRYPOINT +) &#160;&#160;&#160;&#160;&#160;&#160;&#160;</text>
<polygon fill="none" stroke="#0a0a0a" points="2217,-431 2217,-448 2842,-448 2842,-431 2217,-431"/>
<text text-anchor="start" x="2218" y="-435.8" font-family="Helvetica,sans-Serif" font-size="14.00"> &#160;&#160;&#160;&#160;&#160;&#160;&#160;&#160;&#160;&#160;&#160;&#45; &#160;&#160;&#160;&#160;&#160;&#160;&#160;</text>
<polygon fill="none" stroke="#0a0a0a" points="1866,-414 1866,-431 2217,-431 2217,-414 1866,-414"/>
<text text-anchor="start" x="2005" y="-418.8" font-family="Helvetica,sans-Serif" font-size="14.00"> &#160;&#160;&#160;&#160;&#160;&#160;&#160;&#160;&#160;&#160;&#160;&#160;&#160;&#160;&#160;healthcheck &#160;&#160;&#160;&#160;&#160;&#160;&#160;&#160;&#160;&#160;&#160;</text>
<polygon fill="none" stroke="#0a0a0a" points="2217,-414 2217,-431 2842,-431 2842,-414 2217,-414"/>
<text text-anchor="start" x="2218" y="-418.8" font-family="Helvetica,sans-Serif" font-size="14.00"> &#160;&#160;&#160;&#160;&#160;&#160;&#160;&#160;&#160;&#160;&#160;&#160;&#160;&#160;&#160;CMD curl &#45;f http://localhost:5000/api/info &#160;&#160;&#160;&#160;&#160;&#160;&#160;&#160;&#160;&#160;&#160;</text>
<polygon fill="none" stroke="#0a0a0a" points="1866,-376 1866,-414 2217,-414 2217,-376 1866,-376"/>
<text text-anchor="start" x="1981" y="-391.3" font-family="Helvetica,sans-Serif" font-size="14.00"> &#160;&#160;&#160;&#160;&#160;&#160;&#160;&#160;&#160;&#160;&#160;&#160;&#160;&#160;&#160;depends_on (2) &#160;&#160;&#160;&#160;&#160;&#160;&#160;&#160;&#160;&#160;&#160;</text>
<polygon fill="none" stroke="#0a0a0a" points="2217,-376 2217,-414 2842,-414 2842,-376 2217,-376"/>
<polygon fill="none" stroke="#0a0a0a" points="2219,-395 2219,-412 2840,-412 2840,-395 2219,-395"/>
<text text-anchor="start" x="2220" y="-399.8" font-family="Helvetica,sans-Serif" font-size="14.00"> &#160;&#160;&#160;&#160;&#160;&#160;&#160;&#160;&#160;&#160;&#160;&#160;&#160;&#160;&#160;&#160;&#160;&#160;&#160;&#160;&#160;&#160;&#160;&#160;&#160;&#160;&#160;postgres (condition: service_healthy) &#160;&#160;&#160;&#160;&#160;&#160;&#160;&#160;&#160;&#160;&#160;&#160;&#160;&#160;&#160;&#160;&#160;&#160;&#160;&#160;&#160;&#160;&#160;</text>
<polygon fill="none" stroke="#0a0a0a" points="2219,-378 2219,-395 2840,-395 2840,-378 2219,-378"/>
<text text-anchor="start" x="2220" y="-382.8" font-family="Helvetica,sans-Serif" font-size="14.00"> &#160;&#160;&#160;&#160;&#160;&#160;&#160;&#160;&#160;&#160;&#160;&#160;&#160;&#160;&#160;&#160;&#160;&#160;&#160;&#160;&#160;&#160;&#160;&#160;&#160;&#160;&#160;redis (condition: service_started) &#160;&#160;&#160;&#160;&#160;&#160;&#160;&#160;&#160;&#160;&#160;&#160;&#160;&#160;&#160;&#160;&#160;&#160;&#160;&#160;&#160;&#160;&#160;</text>
<polygon fill="none" stroke="#0a0a0a" points="2218,-377 2218,-413 2841,-413 2841,-377 2218,-377"/>
<polygon fill="none" stroke="#0a0a0a" points="1866,-321 1866,-376 2217,-376 2217,-321 1866,-321"/>
<polygon fill="none" stroke="#0a0a0a" points="1868,-357 1868,-374 2215,-374 2215,-357 1868,-357"/>
<text text-anchor="start" x="1869" y="-361.8" font-family="Helvetica,sans-Serif" font-size="14.00"> &#160;&#160;&#160;&#160;&#160;&#160;&#160;&#160;&#160;&#160;&#160;&#160;&#160;&#160;&#160;&#160;&#160;&#160;&#160;&#160;&#160;&#160;&#160;&#160;&#160;&#160;&#160;/addons:rw &#160;&#160;&#160;&#160;&#160;&#160;&#160;&#160;&#160;&#160;&#160;&#160;&#160;&#160;&#160;&#160;&#160;&#160;&#160;&#160;&#160;&#160;&#160;</text>
<polygon fill="none" stroke="#0a0a0a" points="1868,-340 1868,-357 2215,-357 2215,-340 1868,-340"/>
<text text-anchor="start" x="1869" y="-344.8" font-family="Helvetica,sans-Serif" font-size="14.00"> &#160;&#160;&#160;&#160;&#160;&#160;&#160;&#160;&#160;&#160;&#160;&#160;&#160;&#160;&#160;&#160;&#160;&#160;&#160;&#160;&#160;&#160;&#160;&#160;&#160;&#160;&#160;/storage:rw &#160;&#160;&#160;&#160;&#160;&#160;&#160;&#160;&#160;&#160;&#160;&#160;&#160;&#160;&#160;&#160;&#160;&#160;&#160;&#160;&#160;&#160;&#160;</text>
<polygon fill="none" stroke="#0a0a0a" points="1868,-323 1868,-340 2215,-340 2215,-323 1868,-323"/>
<text text-anchor="start" x="1869" y="-327.8" font-family="Helvetica,sans-Serif" font-size="14.00"> &#160;&#160;&#160;&#160;&#160;&#160;&#160;&#160;&#160;&#160;&#160;&#160;&#160;&#160;&#160;&#160;&#160;&#160;&#160;&#160;&#160;&#160;&#160;&#160;&#160;&#160;&#160;/etc/localtime:ro &#160;&#160;&#160;&#160;&#160;&#160;&#160;&#160;&#160;&#160;&#160;&#160;&#160;&#160;&#160;&#160;&#160;&#160;&#160;&#160;&#160;&#160;&#160;</text>
<polygon fill="none" stroke="#0a0a0a" points="1867,-322 1867,-375 2216,-375 2216,-322 1867,-322"/>
<polygon fill="none" stroke="#0a0a0a" points="2217,-321 2217,-376 2842,-376 2842,-321 2217,-321"/>
<text text-anchor="start" x="2218" y="-344.8" font-family="Helvetica,sans-Serif" font-size="14.00"> &#160;&#160;&#160;&#160;&#160;&#160;&#160;&#160;&#160;&#160;&#160;&#160;&#160;&#160;&#160;volumes (3) &#160;&#160;&#160;&#160;&#160;&#160;&#160;&#160;&#160;&#160;&#160;</text>
<polygon fill="none" stroke="#0a0a0a" points="1866,-300 1866,-321 2217,-321 2217,-300 1866,-300"/>
<polygon fill="none" stroke="#0a0a0a" points="1868,-302 1868,-319 2215,-319 2215,-302 1868,-302"/>
<text text-anchor="start" x="1869" y="-306.8" font-family="Helvetica,sans-Serif" font-size="14.00"> &#160;&#160;&#160;&#160;&#160;&#160;&#160;&#160;&#160;&#160;&#160;&#160;&#160;&#160;&#160;&#160;&#160;&#160;&#160;&#160;&#160;&#160;&#160;&#160;&#160;&#160;&#160;5005 → 5000 &#160;&#160;&#160;&#160;&#160;&#160;&#160;&#160;&#160;&#160;&#160;&#160;&#160;&#160;&#160;&#160;&#160;&#160;&#160;&#160;&#160;&#160;&#160;</text>
<polygon fill="none" stroke="#0a0a0a" points="1867,-301 1867,-320 2216,-320 2216,-301 1867,-301"/>
<polygon fill="none" stroke="#0a0a0a" points="2217,-300 2217,-321 2842,-321 2842,-300 2217,-300"/>
<text text-anchor="start" x="2218" y="-306.8" font-family="Helvetica,sans-Serif" font-size="14.00"> &#160;&#160;&#160;&#160;&#160;&#160;&#160;&#160;&#160;&#160;&#160;&#160;&#160;&#160;&#160;ports (1) &#160;&#160;&#160;&#160;&#160;&#160;&#160;&#160;&#160;&#160;&#160;</text>
<polygon fill="none" stroke="#0a0a0a" points="1866,-279 1866,-300 2217,-300 2217,-279 1866,-279"/>
<polygon fill="none" stroke="#0a0a0a" points="1868,-281 1868,-298 2215,-298 2215,-281 1868,-281"/>
<text text-anchor="start" x="1869" y="-285.8" font-family="Helvetica,sans-Serif" font-size="14.00"> &#160;&#160;&#160;&#160;&#160;&#160;&#160;&#160;&#160;&#160;&#160;&#160;&#160;&#160;&#160;&#160;&#160;&#160;&#160;&#160;&#160;&#160;&#160;&#160;&#160;&#160;&#160;ayon &#160;&#160;&#160;&#160;&#160;&#160;&#160;&#160;&#160;&#160;&#160;&#160;&#160;&#160;&#160;&#160;&#160;&#160;&#160;&#160;&#160;&#160;&#160;</text>
<polygon fill="none" stroke="#0a0a0a" points="1867,-280 1867,-299 2216,-299 2216,-280 1867,-280"/>
<polygon fill="none" stroke="#0a0a0a" points="2217,-279 2217,-300 2842,-300 2842,-279 2217,-279"/>
<text text-anchor="start" x="2218" y="-285.8" font-family="Helvetica,sans-Serif" font-size="14.00"> &#160;&#160;&#160;&#160;&#160;&#160;&#160;&#160;&#160;&#160;&#160;&#160;&#160;&#160;&#160;networks (1) &#160;&#160;&#160;&#160;&#160;&#160;&#160;&#160;&#160;&#160;&#160;</text>
<polygon fill="none" stroke="#0a0a0a" points="1865,-278.5 1865,-551.5 2843,-551.5 2843,-278.5 1865,-278.5"/>
</g>
<!-- NODE&#45;SERVICE_server&#45;&gt;NODE&#45;SERVICE_postgres -->
<g id="edge1" class="edge">
<title>NODE&#45;SERVICE_server:e&#45;&gt;NODE&#45;SERVICE_postgres:w</title>
<path fill="none" stroke="yellow" stroke-width="2" d="M2850.94,-404.91C2931.95,-420.5 3482.77,-526.47 3555.56,-540.47"/>
<polygon fill="yellow" stroke="yellow" stroke-width="2" points="2841.66,-399.56 2850.82,-404.89 2840.34,-406.44 2841.66,-399.56"/>
<ellipse fill="yellow" stroke="yellow" stroke-width="2" cx="3559.57" cy="-541.24" rx="4" ry="4"/>
</g>
<!-- NODE&#45;SERVICE_server&#45;&gt;NODE&#45;SERVICE_redis -->
<g id="edge2" class="edge">
<title>NODE&#45;SERVICE_server:e&#45;&gt;NODE&#45;SERVICE_redis:w</title>
<path fill="none" stroke="yellow" stroke-width="2" d="M2850.91,-383.67C2937.32,-363.31 3561.84,-216.18 3639.57,-197.87"/>
<polygon fill="yellow" stroke="yellow" stroke-width="2" points="2840.2,-382.59 2850.73,-383.71 2841.8,-389.41 2840.2,-382.59"/>
<ellipse fill="yellow" stroke="yellow" stroke-width="2" cx="3643.61" cy="-196.92" rx="4" ry="4"/>
</g>
<!-- server__5005__5000 -->
<g id="node4" class="node">
<title>server__5005__5000</title>
<ellipse fill="#ffffff" stroke="black" cx="584.5" cy="-375" rx="34.39" ry="34.39"/>
<text text-anchor="middle" x="584.5" y="-371.3" font-family="Helvetica,sans-Serif" font-size="14.00">5005</text>
</g>
<!-- server__5005__5000&#45;&gt;NODE&#45;SERVICE_server -->
<g id="edge3" class="edge">
<title>server__5005__5000:e&#45;&gt;NODE&#45;SERVICE_server:w</title>
<path fill="none" stroke="#ffffff" d="M628.79,-374.57C731.55,-369.21 1756.97,-315.74 1858.86,-310.42"/>
<ellipse fill="#ffffff" stroke="#ffffff" cx="624.49" cy="-374.79" rx="4" ry="4"/>
<ellipse fill="#ffffff" stroke="#ffffff" cx="1863.01" cy="-310.21" rx="4" ry="4"/>
</g>
<!-- /etc/localtime -->
<g id="node5" class="node">
<title>/etc/localtime</title>
<path fill="#00ffff" stroke="black" d="M627,-265C627,-265 542,-265 542,-265 536,-265 530,-259 530,-253 530,-253 530,-241 530,-241 530,-235 536,-229 542,-229 542,-229 627,-229 627,-229 633,-229 639,-235 639,-241 639,-241 639,-253 639,-253 639,-259 633,-265 627,-265"/>
<text text-anchor="middle" x="584.5" y="-243.3" font-family="Helvetica,sans-Serif" font-size="14.00">/etc/localtime</text>
</g>
<!-- /etc/localtime&#45;&gt;NODE&#45;SERVICE_postgres -->
<g id="edge4" class="edge">
<title>/etc/localtime:e&#45;&gt;NODE&#45;SERVICE_postgres:w</title>
<path fill="none" stroke="#00ffff" stroke-dasharray="5,2" d="M647.9,-247.29C814.13,-253.03 3394.73,-342.07 3558.37,-347.72"/>
<ellipse fill="#00ffff" stroke="#00ffff" cx="643.5" cy="-247.14" rx="4" ry="4"/>
<ellipse fill="#00ffff" stroke="#00ffff" cx="3562.5" cy="-347.86" rx="4" ry="4"/>
</g>
<!-- /home/user/git/repos/OpenStudioLandscapes/.landscapes/2025&#45;07&#45;10&#45;22&#45;36&#45;50&#45;47cd6c0a7dd141429707ab6d91190a27/Ayon__Ayon/data/ayon&#45;db/postgresql -->
<g id="node6" class="node">
<title>/home/user/git/repos/OpenStudioLandscapes/.landscapes/2025&#45;07&#45;10&#45;22&#45;36&#45;50&#45;47cd6c0a7dd141429707ab6d91190a27/Ayon__Ayon/data/ayon&#45;db/postgresql</title>
<path fill="#00ffff" stroke="black" d="M1133,-207C1133,-207 36,-207 36,-207 30,-207 24,-201 24,-195 24,-195 24,-183 24,-183 24,-177 30,-171 36,-171 36,-171 1133,-171 1133,-171 1139,-171 1145,-177 1145,-183 1145,-183 1145,-195 1145,-195 1145,-201 1139,-207 1133,-207"/>
<text text-anchor="middle" x="584.5" y="-185.3" font-family="Helvetica,sans-Serif" font-size="14.00">/home/user/git/repos/OpenStudioLandscapes/.landscapes/2025&#45;07&#45;10&#45;22&#45;36&#45;50&#45;47cd6c0a7dd141429707ab6d91190a27/Ayon__Ayon/data/ayon&#45;db/postgresql</text>
</g>
<!-- /home/user/git/repos/OpenStudioLandscapes/.landscapes/2025&#45;07&#45;10&#45;22&#45;36&#45;50&#45;47cd6c0a7dd141429707ab6d91190a27/Ayon__Ayon/data/ayon&#45;db/postgresql&#45;&gt;NODE&#45;SERVICE_postgres -->
<g id="edge5" class="edge">
<title>/home/user/git/repos/OpenStudioLandscapes/.landscapes/2025&#45;07&#45;10&#45;22&#45;36&#45;50&#45;47cd6c0a7dd141429707ab6d91190a27/Ayon__Ayon/data/ayon&#45;db/postgresql:e&#45;&gt;NODE&#45;SERVICE_postgres:w</title>
<path fill="none" stroke="#00ffff" stroke-dasharray="5,2" d="M1153.79,-189.49C1302.74,-198.22 3410.31,-321.84 3558.32,-330.52"/>
<ellipse fill="#00ffff" stroke="#00ffff" cx="1149.49" cy="-189.23" rx="4" ry="4"/>
<ellipse fill="#00ffff" stroke="#00ffff" cx="3562.51" cy="-330.77" rx="4" ry="4"/>
</g>
<!-- ayon -->
<g id="node7" class="node">
<title>ayon</title>
<path fill="#ffa500" stroke="black" d="M599.5,-95C599.5,-95 569.5,-95 569.5,-95 563.5,-95 557.5,-89 557.5,-83 557.5,-83 557.5,-71 557.5,-71 557.5,-65 563.5,-59 569.5,-59 569.5,-59 599.5,-59 599.5,-59 605.5,-59 611.5,-65 611.5,-71 611.5,-71 611.5,-83 611.5,-83 611.5,-89 605.5,-95 599.5,-95"/>
<text text-anchor="middle" x="584.5" y="-73.3" font-family="Helvetica,sans-Serif" font-size="14.00">ayon</text>
</g>
<!-- ayon&#45;&gt;NODE&#45;SERVICE_postgres -->
<g id="edge6" class="edge">
<title>ayon:e&#45;&gt;NODE&#45;SERVICE_postgres:w</title>
<path fill="none" stroke="#ffa500" d="M619.72,-77.6C785.08,-89.69 3392.91,-280.31 3558.28,-292.4"/>
<ellipse fill="#ffa500" stroke="#ffa500" cx="615.49" cy="-77.29" rx="4" ry="4"/>
<ellipse fill="#ffa500" stroke="#ffa500" cx="3562.51" cy="-292.71" rx="4" ry="4"/>
</g>
<!-- ayon&#45;&gt;NODE&#45;SERVICE_redis -->
<g id="edge7" class="edge">
<title>ayon:e&#45;&gt;NODE&#45;SERVICE_redis:w</title>
<path fill="none" stroke="#ffa500" d="M619.69,-76.95C787.31,-75.84 3474.51,-58.16 3642.3,-57.05"/>
<ellipse fill="#ffa500" stroke="#ffa500" cx="615.5" cy="-76.97" rx="4" ry="4"/>
<ellipse fill="#ffa500" stroke="#ffa500" cx="3646.5" cy="-57.03" rx="4" ry="4"/>
</g>
<!-- ayon&#45;&gt;NODE&#45;SERVICE_server -->
<g id="edge8" class="edge">
<title>ayon:e&#45;&gt;NODE&#45;SERVICE_server:w</title>
<path fill="none" stroke="#ffa500" d="M620.51,-78.35C722.14,-95.53 1758.17,-270.61 1859.1,-287.67"/>
<ellipse fill="#ffa500" stroke="#ffa500" cx="616.44" cy="-77.67" rx="4" ry="4"/>
<ellipse fill="#ffa500" stroke="#ffa500" cx="1863.06" cy="-288.33" rx="4" ry="4"/>
</g>
</g>
</svg>
