<?xml version="1.0" encoding="UTF-8" standalone="no"?>
<!DOCTYPE svg PUBLIC "-//W3C//DTD SVG 1.1//EN"
 "http://www.w3.org/Graphics/SVG/1.1/DTD/svg11.dtd">
<!-- Generated by graphviz version 2.43.0 (0)
 -->
<!-- Title: main_graph Pages: 1 -->
<svg width="5737pt" height="1031pt"
 viewBox="0.00 0.00 5737.00 1031.00" xmlns="http://www.w3.org/2000/svg" xmlns:xlink="http://www.w3.org/1999/xlink">
<g id="graph0" class="graph" transform="scale(1 1) rotate(0) translate(108 923)">
<title>main_graph</title>
<polygon fill="#2f2f2f" stroke="transparent" points="-108,108 -108,-923 5629,-923 5629,108 -108,108"/>
<text text-anchor="middle" x="2760.5" y="-7.8" font-family="Helvetica,sans-Serif" font-size="14.00">/home/user/git/repos/OpenStudioLandscapes/.landscapes/2025&#45;07&#45;09&#45;10&#45;57&#45;24&#45;9749b6a35f504cce82b6622608cf10a9/Dagster__Dagster/Dagster__DOCKER_COMPOSE/docker_compose/docker&#45;compose.yml</text>
<g id="clust1" class="cluster">
<title>cluster_cluster_root_services_2025&#45;07&#45;09&#45;10&#45;57&#45;24&#45;9749b6a35f504cce82b6622608cf10a9&#45;default</title>
<path fill="#ff00ff" fill-opacity="0.062745" stroke="#ff00ff" d="M2023,-290C2023,-290 5501,-290 5501,-290 5507,-290 5513,-296 5513,-302 5513,-302 5513,-792 5513,-792 5513,-798 5507,-804 5501,-804 5501,-804 2023,-804 2023,-804 2017,-804 2011,-798 2011,-792 2011,-792 2011,-302 2011,-302 2011,-296 2017,-290 2023,-290"/>
<text text-anchor="middle" x="3762" y="-768" font-family="Helvetica,sans-Serif" font-size="40.00" fill="#ff00ff">Compose Services (2025&#45;07&#45;09&#45;10&#45;57&#45;24&#45;9749b6a35f504cce82b6622608cf10a9&#45;default)</text>
</g>
<g id="clust2" class="cluster">
<title>cluster_cluster_service_dagster</title>
<path fill="#00ffff" fill-opacity="0.062745" stroke="white" d="M2031,-298C2031,-298 3483,-298 3483,-298 3489,-298 3495,-304 3495,-310 3495,-310 3495,-732 3495,-732 3495,-738 3489,-744 3483,-744 3483,-744 2031,-744 2031,-744 2025,-744 2019,-738 2019,-732 2019,-732 2019,-310 2019,-310 2019,-304 2025,-298 2031,-298"/>
<text text-anchor="middle" x="2757" y="-708" font-family="Helvetica,sans-Serif" font-size="40.00" fill="white">dagster</text>
</g>
<g id="clust3" class="cluster">
<title>cluster_cluster_service_openstudiolandscapes&#45;postgres&#45;dagster</title>
<path fill="#00ffff" fill-opacity="0.062745" stroke="white" d="M4211,-298C4211,-298 5493,-298 5493,-298 5499,-298 5505,-304 5505,-310 5505,-310 5505,-658 5505,-658 5505,-664 5499,-670 5493,-670 5493,-670 4211,-670 4211,-670 4205,-670 4199,-664 4199,-658 4199,-658 4199,-310 4199,-310 4199,-304 4205,-298 4211,-298"/>
<text text-anchor="middle" x="4852" y="-634" font-family="Helvetica,sans-Serif" font-size="40.00" fill="white">openstudiolandscapes&#45;postgres&#45;dagster</text>
</g>
<g id="clust4" class="cluster">
<title>cluster_cluster_host</title>
<path fill="#000000" fill-opacity="0.062745" stroke="#000000" d="M20,-31C20,-31 1311,-31 1311,-31 1317,-31 1323,-37 1323,-43 1323,-43 1323,-795 1323,-795 1323,-801 1317,-807 1311,-807 1311,-807 20,-807 20,-807 14,-807 8,-801 8,-795 8,-795 8,-43 8,-43 8,-37 14,-31 20,-31"/>
<text text-anchor="middle" x="665.5" y="-771" font-family="Helvetica,sans-Serif" font-size="40.00" fill="#000000">Host</text>
</g>
<g id="clust5" class="cluster">
<title>cluster_cluster_root_ports</title>
<path fill="#ffffff" fill-opacity="0.062745" stroke="#ffffff" d="M527.05,-611C527.05,-611 803.95,-611 803.95,-611 809.95,-611 815.95,-617 815.95,-623 815.95,-623 815.95,-735 815.95,-735 815.95,-741 809.95,-747 803.95,-747 803.95,-747 527.05,-747 527.05,-747 521.05,-747 515.05,-741 515.05,-735 515.05,-735 515.05,-623 515.05,-623 515.05,-617 521.05,-611 527.05,-611"/>
<text text-anchor="middle" x="665.5" y="-711" font-family="Helvetica,sans-Serif" font-size="40.00" fill="#ffffff">Exposed Ports</text>
</g>
<g id="clust6" class="cluster">
<title>cluster_cluster_root_volumes</title>
<path fill="#00ffff" fill-opacity="0.062745" stroke="#00ffff" d="M28,-325C28,-325 1303,-325 1303,-325 1309,-325 1315,-331 1315,-337 1315,-337 1315,-591 1315,-591 1315,-597 1309,-603 1303,-603 1303,-603 28,-603 28,-603 22,-603 16,-597 16,-591 16,-591 16,-337 16,-337 16,-331 22,-325 28,-325"/>
<text text-anchor="middle" x="665.5" y="-567" font-family="Helvetica,sans-Serif" font-size="40.00" fill="#00ffff">Mounted Volumes</text>
</g>
<g id="clust7" class="cluster">
<title>cluster_cluster_root_networks</title>
<path fill="#ffa500" fill-opacity="0.062745" stroke="#ffa500" d="M574.5,-39C574.5,-39 756.5,-39 756.5,-39 762.5,-39 768.5,-45 768.5,-51 768.5,-51 768.5,-305 768.5,-305 768.5,-311 762.5,-317 756.5,-317 756.5,-317 574.5,-317 574.5,-317 568.5,-317 562.5,-311 562.5,-305 562.5,-305 562.5,-51 562.5,-51 562.5,-45 568.5,-39 574.5,-39"/>
<text text-anchor="middle" x="665.5" y="-281" font-family="Helvetica,sans-Serif" font-size="40.00" fill="#ffa500">Networks</text>
</g>
<!-- NODE&#45;SERVICE_dagster -->
<g id="node1" class="node">
<title>NODE&#45;SERVICE_dagster</title>
<polygon fill="#a0a0a0" stroke="transparent" points="3487,-684.5 2027,-684.5 2027,-305.5 3487,-305.5 3487,-684.5"/>
<polygon fill="none" stroke="#0a0a0a" points="2028,-666 2028,-683 2463,-683 2463,-666 2028,-666"/>
<text text-anchor="start" x="2276" y="-670.8" font-family="Helvetica,sans-Serif" font-size="14.00"> &#160;&#160;&#160;&#160;&#160;&#160;&#160;&#160;&#160;&#160;&#160;service_name &#160;&#160;&#160;&#160;&#160;&#160;&#160;</text>
<polygon fill="none" stroke="#0a0a0a" points="2463,-666 2463,-683 3486,-683 3486,-666 2463,-666"/>
<text text-anchor="start" x="2464" y="-670.8" font-family="Helvetica,sans-Serif" font-size="14.00"> &#160;&#160;&#160;&#160;&#160;&#160;&#160;&#160;&#160;&#160;&#160;dagster &#160;&#160;&#160;&#160;&#160;&#160;&#160;</text>
<polygon fill="none" stroke="#0a0a0a" points="2028,-649 2028,-666 2463,-666 2463,-649 2028,-649"/>
<text text-anchor="start" x="2260" y="-653.8" font-family="Helvetica,sans-Serif" font-size="14.00"> &#160;&#160;&#160;&#160;&#160;&#160;&#160;&#160;&#160;&#160;&#160;container_name &#160;&#160;&#160;&#160;&#160;&#160;&#160;</text>
<polygon fill="none" stroke="#0a0a0a" points="2463,-649 2463,-666 3486,-666 3486,-649 2463,-649"/>
<text text-anchor="start" x="2464" y="-653.8" font-family="Helvetica,sans-Serif" font-size="14.00"> &#160;&#160;&#160;&#160;&#160;&#160;&#160;&#160;&#160;&#160;&#160;dagster&#45;&#45;2025&#45;07&#45;09&#45;10&#45;57&#45;24&#45;9749b6a35f504cce82b6622608cf10a9 &#160;&#160;&#160;&#160;&#160;&#160;&#160;</text>
<polygon fill="none" stroke="#0a0a0a" points="2028,-632 2028,-649 2463,-649 2463,-632 2028,-632"/>
<text text-anchor="start" x="2302" y="-636.8" font-family="Helvetica,sans-Serif" font-size="14.00"> &#160;&#160;&#160;&#160;&#160;&#160;&#160;&#160;&#160;&#160;&#160;hostname &#160;&#160;&#160;&#160;&#160;&#160;&#160;</text>
<polygon fill="none" stroke="#0a0a0a" points="2463,-632 2463,-649 3486,-649 3486,-632 2463,-632"/>
<text text-anchor="start" x="2464" y="-636.8" font-family="Helvetica,sans-Serif" font-size="14.00"> &#160;&#160;&#160;&#160;&#160;&#160;&#160;&#160;&#160;&#160;&#160;dagster.farm.evil &#160;&#160;&#160;&#160;&#160;&#160;&#160;</text>
<polygon fill="none" stroke="#0a0a0a" points="2028,-615 2028,-632 2463,-632 2463,-615 2028,-615"/>
<text text-anchor="start" x="2281" y="-619.8" font-family="Helvetica,sans-Serif" font-size="14.00"> &#160;&#160;&#160;&#160;&#160;&#160;&#160;&#160;&#160;&#160;&#160;domainname &#160;&#160;&#160;&#160;&#160;&#160;&#160;</text>
<polygon fill="none" stroke="#0a0a0a" points="2463,-615 2463,-632 3486,-632 3486,-615 2463,-615"/>
<text text-anchor="start" x="2464" y="-619.8" font-family="Helvetica,sans-Serif" font-size="14.00"> &#160;&#160;&#160;&#160;&#160;&#160;&#160;&#160;&#160;&#160;&#160;farm.evil &#160;&#160;&#160;&#160;&#160;&#160;&#160;</text>
<polygon fill="none" stroke="#0a0a0a" points="2028,-598 2028,-615 2463,-615 2463,-598 2028,-598"/>
<text text-anchor="start" x="2326" y="-602.8" font-family="Helvetica,sans-Serif" font-size="14.00"> &#160;&#160;&#160;&#160;&#160;&#160;&#160;&#160;&#160;&#160;&#160;restart &#160;&#160;&#160;&#160;&#160;&#160;&#160;</text>
<polygon fill="none" stroke="#0a0a0a" points="2463,-598 2463,-615 3486,-615 3486,-598 2463,-598"/>
<text text-anchor="start" x="2464" y="-602.8" font-family="Helvetica,sans-Serif" font-size="14.00"> &#160;&#160;&#160;&#160;&#160;&#160;&#160;&#160;&#160;&#160;&#160;always &#160;&#160;&#160;&#160;&#160;&#160;&#160;</text>
<polygon fill="none" stroke="#0a0a0a" points="2028,-581 2028,-598 2463,-598 2463,-581 2028,-581"/>
<text text-anchor="start" x="2329" y="-585.8" font-family="Helvetica,sans-Serif" font-size="14.00"> &#160;&#160;&#160;&#160;&#160;&#160;&#160;&#160;&#160;&#160;&#160;image &#160;&#160;&#160;&#160;&#160;&#160;&#160;</text>
<polygon fill="none" stroke="#0a0a0a" points="2463,-581 2463,-598 3486,-598 3486,-581 2463,-581"/>
<text text-anchor="start" x="2464" y="-585.8" font-family="Helvetica,sans-Serif" font-size="14.00"> &#160;&#160;&#160;&#160;&#160;&#160;&#160;&#160;&#160;&#160;&#160;harbor.farm.evil:80/openstudiolandscapes/dagster_build_docker_image:2025&#45;07&#45;09&#45;10&#45;57&#45;24&#45;9749b6a35f504cce82b6622608cf10a9 &#160;&#160;&#160;&#160;&#160;&#160;&#160;</text>
<polygon fill="none" stroke="#0a0a0a" points="2028,-564 2028,-581 2463,-581 2463,-564 2028,-564"/>
<text text-anchor="start" x="2183" y="-568.8" font-family="Helvetica,sans-Serif" font-size="14.00"> &#160;&#160;&#160;&#160;&#160;&#160;&#160;&#160;&#160;&#160;&#160;command (ENTRYPOINT +) &#160;&#160;&#160;&#160;&#160;&#160;&#160;</text>
<polygon fill="none" stroke="#0a0a0a" points="2463,-564 2463,-581 3486,-581 3486,-564 2463,-564"/>
<text text-anchor="start" x="2464" y="-568.8" font-family="Helvetica,sans-Serif" font-size="14.00"> &#160;&#160;&#160;&#160;&#160;&#160;&#160;&#160;&#160;&#160;&#160;dagster dev &#45;&#45;workspace /dagster/workspace.yaml &#45;&#45;host 0.0.0.0 &#45;&#45;port 3006 &#160;&#160;&#160;&#160;&#160;&#160;&#160;</text>
<polygon fill="none" stroke="#0a0a0a" points="2028,-547 2028,-564 2463,-564 2463,-547 2028,-547"/>
<text text-anchor="start" x="2251" y="-551.8" font-family="Helvetica,sans-Serif" font-size="14.00"> &#160;&#160;&#160;&#160;&#160;&#160;&#160;&#160;&#160;&#160;&#160;&#160;&#160;&#160;&#160;healthcheck &#160;&#160;&#160;&#160;&#160;&#160;&#160;&#160;&#160;&#160;&#160;</text>
<polygon fill="none" stroke="#0a0a0a" points="2463,-547 2463,-564 3486,-564 3486,-547 2463,-547"/>
<text text-anchor="start" x="2464" y="-551.8" font-family="Helvetica,sans-Serif" font-size="14.00"> &#160;&#160;&#160;&#160;&#160;&#160;&#160;&#160;&#160;&#160;&#160;&#160;&#160;&#160;&#160;CMD curl &#45;f http://localhost:3006 &#160;&#160;&#160;&#160;&#160;&#160;&#160;&#160;&#160;&#160;&#160;</text>
<polygon fill="none" stroke="#0a0a0a" points="2028,-526 2028,-547 2463,-547 2463,-526 2028,-526"/>
<text text-anchor="start" x="2227" y="-532.8" font-family="Helvetica,sans-Serif" font-size="14.00"> &#160;&#160;&#160;&#160;&#160;&#160;&#160;&#160;&#160;&#160;&#160;&#160;&#160;&#160;&#160;depends_on (1) &#160;&#160;&#160;&#160;&#160;&#160;&#160;&#160;&#160;&#160;&#160;</text>
<polygon fill="none" stroke="#0a0a0a" points="2463,-526 2463,-547 3486,-547 3486,-526 2463,-526"/>
<polygon fill="none" stroke="#0a0a0a" points="2465,-528 2465,-545 3484,-545 3484,-528 2465,-528"/>
<text text-anchor="start" x="2466" y="-532.8" font-family="Helvetica,sans-Serif" font-size="14.00"> &#160;&#160;&#160;&#160;&#160;&#160;&#160;&#160;&#160;&#160;&#160;&#160;&#160;&#160;&#160;&#160;&#160;&#160;&#160;&#160;&#160;&#160;&#160;&#160;&#160;&#160;&#160;openstudiolandscapes&#45;postgres&#45;dagster (condition: None) &#160;&#160;&#160;&#160;&#160;&#160;&#160;&#160;&#160;&#160;&#160;&#160;&#160;&#160;&#160;&#160;&#160;&#160;&#160;&#160;&#160;&#160;&#160;</text>
<polygon fill="none" stroke="#0a0a0a" points="2464,-527 2464,-546 3485,-546 3485,-527 2464,-527"/>
<polygon fill="none" stroke="#0a0a0a" points="2028,-471 2028,-526 2463,-526 2463,-471 2028,-471"/>
<text text-anchor="start" x="2224" y="-494.8" font-family="Helvetica,sans-Serif" font-size="14.00"> &#160;&#160;&#160;&#160;&#160;&#160;&#160;&#160;&#160;&#160;&#160;&#160;&#160;&#160;&#160;environment (3) &#160;&#160;&#160;&#160;&#160;&#160;&#160;&#160;&#160;&#160;&#160;</text>
<polygon fill="none" stroke="#0a0a0a" points="2463,-471 2463,-526 3486,-526 3486,-471 2463,-471"/>
<polygon fill="none" stroke="#0a0a0a" points="2465,-507 2465,-524 3484,-524 3484,-507 2465,-507"/>
<text text-anchor="start" x="2466" y="-511.8" font-family="Helvetica,sans-Serif" font-size="14.00"> &#160;&#160;&#160;&#160;&#160;&#160;&#160;&#160;&#160;&#160;&#160;&#160;&#160;&#160;&#160;&#160;&#160;&#160;&#160;&#160;&#160;&#160;&#160;&#160;&#160;&#160;&#160;DAGSTER_DEPLOYMENT=farm &#160;&#160;&#160;&#160;&#160;&#160;&#160;&#160;&#160;&#160;&#160;&#160;&#160;&#160;&#160;&#160;&#160;&#160;&#160;&#160;&#160;&#160;&#160;</text>
<polygon fill="none" stroke="#0a0a0a" points="2465,-490 2465,-507 3484,-507 3484,-490 2465,-490"/>
<text text-anchor="start" x="2466" y="-494.8" font-family="Helvetica,sans-Serif" font-size="14.00"> &#160;&#160;&#160;&#160;&#160;&#160;&#160;&#160;&#160;&#160;&#160;&#160;&#160;&#160;&#160;&#160;&#160;&#160;&#160;&#160;&#160;&#160;&#160;&#160;&#160;&#160;&#160;DAGSTER_HOME=/dagster/materializations &#160;&#160;&#160;&#160;&#160;&#160;&#160;&#160;&#160;&#160;&#160;&#160;&#160;&#160;&#160;&#160;&#160;&#160;&#160;&#160;&#160;&#160;&#160;</text>
<polygon fill="none" stroke="#0a0a0a" points="2465,-473 2465,-490 3484,-490 3484,-473 2465,-473"/>
<text text-anchor="start" x="2466" y="-477.8" font-family="Helvetica,sans-Serif" font-size="14.00"> &#160;&#160;&#160;&#160;&#160;&#160;&#160;&#160;&#160;&#160;&#160;&#160;&#160;&#160;&#160;&#160;&#160;&#160;&#160;&#160;&#160;&#160;&#160;&#160;&#160;&#160;&#160;DAGSTER_JOBS_IN=/data/share/nfs/in &#160;&#160;&#160;&#160;&#160;&#160;&#160;&#160;&#160;&#160;&#160;&#160;&#160;&#160;&#160;&#160;&#160;&#160;&#160;&#160;&#160;&#160;&#160;</text>
<polygon fill="none" stroke="#0a0a0a" points="2464,-472 2464,-525 3485,-525 3485,-472 2464,-472"/>
<polygon fill="none" stroke="#0a0a0a" points="2028,-399 2028,-471 2463,-471 2463,-399 2028,-399"/>
<polygon fill="none" stroke="#0a0a0a" points="2030,-452 2030,-469 2461,-469 2461,-452 2030,-452"/>
<text text-anchor="start" x="2031" y="-456.8" font-family="Helvetica,sans-Serif" font-size="14.00"> &#160;&#160;&#160;&#160;&#160;&#160;&#160;&#160;&#160;&#160;&#160;&#160;&#160;&#160;&#160;&#160;&#160;&#160;&#160;&#160;&#160;&#160;&#160;&#160;&#160;&#160;&#160;/data/share/nfs:rw &#160;&#160;&#160;&#160;&#160;&#160;&#160;&#160;&#160;&#160;&#160;&#160;&#160;&#160;&#160;&#160;&#160;&#160;&#160;&#160;&#160;&#160;&#160;</text>
<polygon fill="none" stroke="#0a0a0a" points="2030,-435 2030,-452 2461,-452 2461,-435 2030,-435"/>
<text text-anchor="start" x="2031" y="-439.8" font-family="Helvetica,sans-Serif" font-size="14.00"> &#160;&#160;&#160;&#160;&#160;&#160;&#160;&#160;&#160;&#160;&#160;&#160;&#160;&#160;&#160;&#160;&#160;&#160;&#160;&#160;&#160;&#160;&#160;&#160;&#160;&#160;&#160;/nfs:rw &#160;&#160;&#160;&#160;&#160;&#160;&#160;&#160;&#160;&#160;&#160;&#160;&#160;&#160;&#160;&#160;&#160;&#160;&#160;&#160;&#160;&#160;&#160;</text>
<polygon fill="none" stroke="#0a0a0a" points="2030,-418 2030,-435 2461,-435 2461,-418 2030,-418"/>
<text text-anchor="start" x="2031" y="-422.8" font-family="Helvetica,sans-Serif" font-size="14.00"> &#160;&#160;&#160;&#160;&#160;&#160;&#160;&#160;&#160;&#160;&#160;&#160;&#160;&#160;&#160;&#160;&#160;&#160;&#160;&#160;&#160;&#160;&#160;&#160;&#160;&#160;&#160;/dagster/materializations:rw &#160;&#160;&#160;&#160;&#160;&#160;&#160;&#160;&#160;&#160;&#160;&#160;&#160;&#160;&#160;&#160;&#160;&#160;&#160;&#160;&#160;&#160;&#160;</text>
<polygon fill="none" stroke="#0a0a0a" points="2030,-401 2030,-418 2461,-418 2461,-401 2030,-401"/>
<text text-anchor="start" x="2031" y="-405.8" font-family="Helvetica,sans-Serif" font-size="14.00"> &#160;&#160;&#160;&#160;&#160;&#160;&#160;&#160;&#160;&#160;&#160;&#160;&#160;&#160;&#160;&#160;&#160;&#160;&#160;&#160;&#160;&#160;&#160;&#160;&#160;&#160;&#160;/dagster/workspace.yaml:ro &#160;&#160;&#160;&#160;&#160;&#160;&#160;&#160;&#160;&#160;&#160;&#160;&#160;&#160;&#160;&#160;&#160;&#160;&#160;&#160;&#160;&#160;&#160;</text>
<polygon fill="none" stroke="#0a0a0a" points="2029,-400 2029,-470 2462,-470 2462,-400 2029,-400"/>
<polygon fill="none" stroke="#0a0a0a" points="2463,-399 2463,-471 3486,-471 3486,-399 2463,-399"/>
<text text-anchor="start" x="2464" y="-431.3" font-family="Helvetica,sans-Serif" font-size="14.00"> &#160;&#160;&#160;&#160;&#160;&#160;&#160;&#160;&#160;&#160;&#160;&#160;&#160;&#160;&#160;volumes (4) &#160;&#160;&#160;&#160;&#160;&#160;&#160;&#160;&#160;&#160;&#160;</text>
<polygon fill="none" stroke="#0a0a0a" points="2028,-378 2028,-399 2463,-399 2463,-378 2028,-378"/>
<polygon fill="none" stroke="#0a0a0a" points="2030,-380 2030,-397 2461,-397 2461,-380 2030,-380"/>
<text text-anchor="start" x="2031" y="-384.8" font-family="Helvetica,sans-Serif" font-size="14.00"> &#160;&#160;&#160;&#160;&#160;&#160;&#160;&#160;&#160;&#160;&#160;&#160;&#160;&#160;&#160;&#160;&#160;&#160;&#160;&#160;&#160;&#160;&#160;&#160;&#160;&#160;&#160;3003 → 3006 &#160;&#160;&#160;&#160;&#160;&#160;&#160;&#160;&#160;&#160;&#160;&#160;&#160;&#160;&#160;&#160;&#160;&#160;&#160;&#160;&#160;&#160;&#160;</text>
<polygon fill="none" stroke="#0a0a0a" points="2029,-379 2029,-398 2462,-398 2462,-379 2029,-379"/>
<polygon fill="none" stroke="#0a0a0a" points="2463,-378 2463,-399 3486,-399 3486,-378 2463,-378"/>
<text text-anchor="start" x="2464" y="-384.8" font-family="Helvetica,sans-Serif" font-size="14.00"> &#160;&#160;&#160;&#160;&#160;&#160;&#160;&#160;&#160;&#160;&#160;&#160;&#160;&#160;&#160;ports (1) &#160;&#160;&#160;&#160;&#160;&#160;&#160;&#160;&#160;&#160;&#160;</text>
<polygon fill="none" stroke="#0a0a0a" points="2028,-306 2028,-378 2463,-378 2463,-306 2028,-306"/>
<polygon fill="none" stroke="#0a0a0a" points="2030,-359 2030,-376 2461,-376 2461,-359 2030,-359"/>
<text text-anchor="start" x="2031" y="-363.8" font-family="Helvetica,sans-Serif" font-size="14.00"> &#160;&#160;&#160;&#160;&#160;&#160;&#160;&#160;&#160;&#160;&#160;&#160;&#160;&#160;&#160;&#160;&#160;&#160;&#160;&#160;&#160;&#160;&#160;&#160;&#160;&#160;&#160;ayon &#160;&#160;&#160;&#160;&#160;&#160;&#160;&#160;&#160;&#160;&#160;&#160;&#160;&#160;&#160;&#160;&#160;&#160;&#160;&#160;&#160;&#160;&#160;</text>
<polygon fill="none" stroke="#0a0a0a" points="2030,-342 2030,-359 2461,-359 2461,-342 2030,-342"/>
<text text-anchor="start" x="2031" y="-346.8" font-family="Helvetica,sans-Serif" font-size="14.00"> &#160;&#160;&#160;&#160;&#160;&#160;&#160;&#160;&#160;&#160;&#160;&#160;&#160;&#160;&#160;&#160;&#160;&#160;&#160;&#160;&#160;&#160;&#160;&#160;&#160;&#160;&#160;dagster &#160;&#160;&#160;&#160;&#160;&#160;&#160;&#160;&#160;&#160;&#160;&#160;&#160;&#160;&#160;&#160;&#160;&#160;&#160;&#160;&#160;&#160;&#160;</text>
<polygon fill="none" stroke="#0a0a0a" points="2030,-325 2030,-342 2461,-342 2461,-325 2030,-325"/>
<text text-anchor="start" x="2031" y="-329.8" font-family="Helvetica,sans-Serif" font-size="14.00"> &#160;&#160;&#160;&#160;&#160;&#160;&#160;&#160;&#160;&#160;&#160;&#160;&#160;&#160;&#160;&#160;&#160;&#160;&#160;&#160;&#160;&#160;&#160;&#160;&#160;&#160;&#160;mongodb &#160;&#160;&#160;&#160;&#160;&#160;&#160;&#160;&#160;&#160;&#160;&#160;&#160;&#160;&#160;&#160;&#160;&#160;&#160;&#160;&#160;&#160;&#160;</text>
<polygon fill="none" stroke="#0a0a0a" points="2030,-308 2030,-325 2461,-325 2461,-308 2030,-308"/>
<text text-anchor="start" x="2031" y="-312.8" font-family="Helvetica,sans-Serif" font-size="14.00"> &#160;&#160;&#160;&#160;&#160;&#160;&#160;&#160;&#160;&#160;&#160;&#160;&#160;&#160;&#160;&#160;&#160;&#160;&#160;&#160;&#160;&#160;&#160;&#160;&#160;&#160;&#160;repository &#160;&#160;&#160;&#160;&#160;&#160;&#160;&#160;&#160;&#160;&#160;&#160;&#160;&#160;&#160;&#160;&#160;&#160;&#160;&#160;&#160;&#160;&#160;</text>
<polygon fill="none" stroke="#0a0a0a" points="2029,-307 2029,-377 2462,-377 2462,-307 2029,-307"/>
<polygon fill="none" stroke="#0a0a0a" points="2463,-306 2463,-378 3486,-378 3486,-306 2463,-306"/>
<text text-anchor="start" x="2464" y="-338.3" font-family="Helvetica,sans-Serif" font-size="14.00"> &#160;&#160;&#160;&#160;&#160;&#160;&#160;&#160;&#160;&#160;&#160;&#160;&#160;&#160;&#160;networks (4) &#160;&#160;&#160;&#160;&#160;&#160;&#160;&#160;&#160;&#160;&#160;</text>
<polygon fill="none" stroke="#0a0a0a" points="2027,-305.5 2027,-684.5 3487,-684.5 3487,-305.5 2027,-305.5"/>
</g>
<!-- NODE&#45;SERVICE_openstudiolandscapes&#45;postgres&#45;dagster -->
<g id="node2" class="node">
<title>NODE&#45;SERVICE_openstudiolandscapes&#45;postgres&#45;dagster</title>
<polygon fill="#a0a0a0" stroke="transparent" points="5497,-609.5 4207,-609.5 4207,-306.5 5497,-306.5 5497,-609.5"/>
<polygon fill="none" stroke="#0a0a0a" points="4208,-591 4208,-608 4684,-608 4684,-591 4208,-591"/>
<text text-anchor="start" x="4497" y="-595.8" font-family="Helvetica,sans-Serif" font-size="14.00"> &#160;&#160;&#160;&#160;&#160;&#160;&#160;&#160;&#160;&#160;&#160;service_name &#160;&#160;&#160;&#160;&#160;&#160;&#160;</text>
<polygon fill="none" stroke="#0a0a0a" points="4684,-591 4684,-608 5496,-608 5496,-591 4684,-591"/>
<text text-anchor="start" x="4685" y="-595.8" font-family="Helvetica,sans-Serif" font-size="14.00"> &#160;&#160;&#160;&#160;&#160;&#160;&#160;&#160;&#160;&#160;&#160;openstudiolandscapes&#45;postgres&#45;dagster &#160;&#160;&#160;&#160;&#160;&#160;&#160;</text>
<polygon fill="none" stroke="#0a0a0a" points="4208,-574 4208,-591 4684,-591 4684,-574 4208,-574"/>
<text text-anchor="start" x="4481" y="-578.8" font-family="Helvetica,sans-Serif" font-size="14.00"> &#160;&#160;&#160;&#160;&#160;&#160;&#160;&#160;&#160;&#160;&#160;container_name &#160;&#160;&#160;&#160;&#160;&#160;&#160;</text>
<polygon fill="none" stroke="#0a0a0a" points="4684,-574 4684,-591 5496,-591 5496,-574 4684,-574"/>
<text text-anchor="start" x="4685" y="-578.8" font-family="Helvetica,sans-Serif" font-size="14.00"> &#160;&#160;&#160;&#160;&#160;&#160;&#160;&#160;&#160;&#160;&#160;openstudiolandscapes&#45;postgres&#45;dagster&#45;&#45;2025&#45;07&#45;09&#45;10&#45;57&#45;24&#45;9749b6a35f504cce82b6622608cf10a9 &#160;&#160;&#160;&#160;&#160;&#160;&#160;</text>
<polygon fill="none" stroke="#0a0a0a" points="4208,-557 4208,-574 4684,-574 4684,-557 4208,-557"/>
<text text-anchor="start" x="4523" y="-561.8" font-family="Helvetica,sans-Serif" font-size="14.00"> &#160;&#160;&#160;&#160;&#160;&#160;&#160;&#160;&#160;&#160;&#160;hostname &#160;&#160;&#160;&#160;&#160;&#160;&#160;</text>
<polygon fill="none" stroke="#0a0a0a" points="4684,-557 4684,-574 5496,-574 5496,-557 4684,-557"/>
<text text-anchor="start" x="4685" y="-561.8" font-family="Helvetica,sans-Serif" font-size="14.00"> &#160;&#160;&#160;&#160;&#160;&#160;&#160;&#160;&#160;&#160;&#160;openstudiolandscapes&#45;postgres&#45;dagster.farm.evil &#160;&#160;&#160;&#160;&#160;&#160;&#160;</text>
<polygon fill="none" stroke="#0a0a0a" points="4208,-540 4208,-557 4684,-557 4684,-540 4208,-540"/>
<text text-anchor="start" x="4502" y="-544.8" font-family="Helvetica,sans-Serif" font-size="14.00"> &#160;&#160;&#160;&#160;&#160;&#160;&#160;&#160;&#160;&#160;&#160;domainname &#160;&#160;&#160;&#160;&#160;&#160;&#160;</text>
<polygon fill="none" stroke="#0a0a0a" points="4684,-540 4684,-557 5496,-557 5496,-540 4684,-540"/>
<text text-anchor="start" x="4685" y="-544.8" font-family="Helvetica,sans-Serif" font-size="14.00"> &#160;&#160;&#160;&#160;&#160;&#160;&#160;&#160;&#160;&#160;&#160;farm.evil &#160;&#160;&#160;&#160;&#160;&#160;&#160;</text>
<polygon fill="none" stroke="#0a0a0a" points="4208,-523 4208,-540 4684,-540 4684,-523 4208,-523"/>
<text text-anchor="start" x="4547" y="-527.8" font-family="Helvetica,sans-Serif" font-size="14.00"> &#160;&#160;&#160;&#160;&#160;&#160;&#160;&#160;&#160;&#160;&#160;restart &#160;&#160;&#160;&#160;&#160;&#160;&#160;</text>
<polygon fill="none" stroke="#0a0a0a" points="4684,-523 4684,-540 5496,-540 5496,-523 4684,-523"/>
<text text-anchor="start" x="4685" y="-527.8" font-family="Helvetica,sans-Serif" font-size="14.00"> &#160;&#160;&#160;&#160;&#160;&#160;&#160;&#160;&#160;&#160;&#160;always &#160;&#160;&#160;&#160;&#160;&#160;&#160;</text>
<polygon fill="none" stroke="#0a0a0a" points="4208,-506 4208,-523 4684,-523 4684,-506 4208,-506"/>
<text text-anchor="start" x="4550" y="-510.8" font-family="Helvetica,sans-Serif" font-size="14.00"> &#160;&#160;&#160;&#160;&#160;&#160;&#160;&#160;&#160;&#160;&#160;image &#160;&#160;&#160;&#160;&#160;&#160;&#160;</text>
<polygon fill="none" stroke="#0a0a0a" points="4684,-506 4684,-523 5496,-523 5496,-506 4684,-506"/>
<text text-anchor="start" x="4685" y="-510.8" font-family="Helvetica,sans-Serif" font-size="14.00"> &#160;&#160;&#160;&#160;&#160;&#160;&#160;&#160;&#160;&#160;&#160;docker.io/postgres &#160;&#160;&#160;&#160;&#160;&#160;&#160;</text>
<polygon fill="none" stroke="#0a0a0a" points="4208,-489 4208,-506 4684,-506 4684,-489 4208,-489"/>
<text text-anchor="start" x="4404" y="-493.8" font-family="Helvetica,sans-Serif" font-size="14.00"> &#160;&#160;&#160;&#160;&#160;&#160;&#160;&#160;&#160;&#160;&#160;command (ENTRYPOINT +) &#160;&#160;&#160;&#160;&#160;&#160;&#160;</text>
<polygon fill="none" stroke="#0a0a0a" points="4684,-489 4684,-506 5496,-506 5496,-489 4684,-489"/>
<text text-anchor="start" x="4685" y="-493.8" font-family="Helvetica,sans-Serif" font-size="14.00"> &#160;&#160;&#160;&#160;&#160;&#160;&#160;&#160;&#160;&#160;&#160;&#45; &#160;&#160;&#160;&#160;&#160;&#160;&#160;</text>
<polygon fill="none" stroke="#0a0a0a" points="4208,-472 4208,-489 4684,-489 4684,-472 4208,-472"/>
<text text-anchor="start" x="4472" y="-476.8" font-family="Helvetica,sans-Serif" font-size="14.00"> &#160;&#160;&#160;&#160;&#160;&#160;&#160;&#160;&#160;&#160;&#160;&#160;&#160;&#160;&#160;healthcheck &#160;&#160;&#160;&#160;&#160;&#160;&#160;&#160;&#160;&#160;&#160;</text>
<polygon fill="none" stroke="#0a0a0a" points="4684,-472 4684,-489 5496,-489 5496,-472 4684,-472"/>
<text text-anchor="start" x="4685" y="-476.8" font-family="Helvetica,sans-Serif" font-size="14.00"> &#160;&#160;&#160;&#160;&#160;&#160;&#160;&#160;&#160;&#160;&#160;&#160;&#160;&#160;&#160;CMD&#45;SHELL &#39;pg_isready &#45;&#45;username postgres &#45;&#45;dbname postgres &#45;&#45;port 5432&#39; &#160;&#160;&#160;&#160;&#160;&#160;&#160;&#160;&#160;&#160;&#160;</text>
<polygon fill="none" stroke="#0a0a0a" points="4208,-400 4208,-472 4684,-472 4684,-400 4208,-400"/>
<text text-anchor="start" x="4445" y="-432.3" font-family="Helvetica,sans-Serif" font-size="14.00"> &#160;&#160;&#160;&#160;&#160;&#160;&#160;&#160;&#160;&#160;&#160;&#160;&#160;&#160;&#160;environment (4) &#160;&#160;&#160;&#160;&#160;&#160;&#160;&#160;&#160;&#160;&#160;</text>
<polygon fill="none" stroke="#0a0a0a" points="4684,-400 4684,-472 5496,-472 5496,-400 4684,-400"/>
<polygon fill="none" stroke="#0a0a0a" points="4686,-453 4686,-470 5494,-470 5494,-453 4686,-453"/>
<text text-anchor="start" x="4687" y="-457.8" font-family="Helvetica,sans-Serif" font-size="14.00"> &#160;&#160;&#160;&#160;&#160;&#160;&#160;&#160;&#160;&#160;&#160;&#160;&#160;&#160;&#160;&#160;&#160;&#160;&#160;&#160;&#160;&#160;&#160;&#160;&#160;&#160;&#160;PGDATA=/var/lib/postgresql/data/pgdata &#160;&#160;&#160;&#160;&#160;&#160;&#160;&#160;&#160;&#160;&#160;&#160;&#160;&#160;&#160;&#160;&#160;&#160;&#160;&#160;&#160;&#160;&#160;</text>
<polygon fill="none" stroke="#0a0a0a" points="4686,-436 4686,-453 5494,-453 5494,-436 4686,-436"/>
<text text-anchor="start" x="4687" y="-440.8" font-family="Helvetica,sans-Serif" font-size="14.00"> &#160;&#160;&#160;&#160;&#160;&#160;&#160;&#160;&#160;&#160;&#160;&#160;&#160;&#160;&#160;&#160;&#160;&#160;&#160;&#160;&#160;&#160;&#160;&#160;&#160;&#160;&#160;POSTGRES_DB=postgres &#160;&#160;&#160;&#160;&#160;&#160;&#160;&#160;&#160;&#160;&#160;&#160;&#160;&#160;&#160;&#160;&#160;&#160;&#160;&#160;&#160;&#160;&#160;</text>
<polygon fill="none" stroke="#0a0a0a" points="4686,-419 4686,-436 5494,-436 5494,-419 4686,-419"/>
<text text-anchor="start" x="4687" y="-423.8" font-family="Helvetica,sans-Serif" font-size="14.00"> &#160;&#160;&#160;&#160;&#160;&#160;&#160;&#160;&#160;&#160;&#160;&#160;&#160;&#160;&#160;&#160;&#160;&#160;&#160;&#160;&#160;&#160;&#160;&#160;&#160;&#160;&#160;POSTGRES_PASSWORD=mysecretpassword &#160;&#160;&#160;&#160;&#160;&#160;&#160;&#160;&#160;&#160;&#160;&#160;&#160;&#160;&#160;&#160;&#160;&#160;&#160;&#160;&#160;&#160;&#160;</text>
<polygon fill="none" stroke="#0a0a0a" points="4686,-402 4686,-419 5494,-419 5494,-402 4686,-402"/>
<text text-anchor="start" x="4687" y="-406.8" font-family="Helvetica,sans-Serif" font-size="14.00"> &#160;&#160;&#160;&#160;&#160;&#160;&#160;&#160;&#160;&#160;&#160;&#160;&#160;&#160;&#160;&#160;&#160;&#160;&#160;&#160;&#160;&#160;&#160;&#160;&#160;&#160;&#160;POSTGRES_USER=postgres &#160;&#160;&#160;&#160;&#160;&#160;&#160;&#160;&#160;&#160;&#160;&#160;&#160;&#160;&#160;&#160;&#160;&#160;&#160;&#160;&#160;&#160;&#160;</text>
<polygon fill="none" stroke="#0a0a0a" points="4685,-401 4685,-471 5495,-471 5495,-401 4685,-401"/>
<polygon fill="none" stroke="#0a0a0a" points="4208,-379 4208,-400 4684,-400 4684,-379 4208,-379"/>
<polygon fill="none" stroke="#0a0a0a" points="4210,-381 4210,-398 4682,-398 4682,-381 4210,-381"/>
<text text-anchor="start" x="4211" y="-385.8" font-family="Helvetica,sans-Serif" font-size="14.00"> &#160;&#160;&#160;&#160;&#160;&#160;&#160;&#160;&#160;&#160;&#160;&#160;&#160;&#160;&#160;&#160;&#160;&#160;&#160;&#160;&#160;&#160;&#160;&#160;&#160;&#160;&#160;/var/lib/postgresql/data/pgdata:rw &#160;&#160;&#160;&#160;&#160;&#160;&#160;&#160;&#160;&#160;&#160;&#160;&#160;&#160;&#160;&#160;&#160;&#160;&#160;&#160;&#160;&#160;&#160;</text>
<polygon fill="none" stroke="#0a0a0a" points="4209,-380 4209,-399 4683,-399 4683,-380 4209,-380"/>
<polygon fill="none" stroke="#0a0a0a" points="4684,-379 4684,-400 5496,-400 5496,-379 4684,-379"/>
<text text-anchor="start" x="4685" y="-385.8" font-family="Helvetica,sans-Serif" font-size="14.00"> &#160;&#160;&#160;&#160;&#160;&#160;&#160;&#160;&#160;&#160;&#160;&#160;&#160;&#160;&#160;volumes (1) &#160;&#160;&#160;&#160;&#160;&#160;&#160;&#160;&#160;&#160;&#160;</text>
<polygon fill="none" stroke="#0a0a0a" points="4208,-307 4208,-379 4684,-379 4684,-307 4208,-307"/>
<polygon fill="none" stroke="#0a0a0a" points="4210,-360 4210,-377 4682,-377 4682,-360 4210,-360"/>
<text text-anchor="start" x="4211" y="-364.8" font-family="Helvetica,sans-Serif" font-size="14.00"> &#160;&#160;&#160;&#160;&#160;&#160;&#160;&#160;&#160;&#160;&#160;&#160;&#160;&#160;&#160;&#160;&#160;&#160;&#160;&#160;&#160;&#160;&#160;&#160;&#160;&#160;&#160;ayon &#160;&#160;&#160;&#160;&#160;&#160;&#160;&#160;&#160;&#160;&#160;&#160;&#160;&#160;&#160;&#160;&#160;&#160;&#160;&#160;&#160;&#160;&#160;</text>
<polygon fill="none" stroke="#0a0a0a" points="4210,-343 4210,-360 4682,-360 4682,-343 4210,-343"/>
<text text-anchor="start" x="4211" y="-347.8" font-family="Helvetica,sans-Serif" font-size="14.00"> &#160;&#160;&#160;&#160;&#160;&#160;&#160;&#160;&#160;&#160;&#160;&#160;&#160;&#160;&#160;&#160;&#160;&#160;&#160;&#160;&#160;&#160;&#160;&#160;&#160;&#160;&#160;dagster &#160;&#160;&#160;&#160;&#160;&#160;&#160;&#160;&#160;&#160;&#160;&#160;&#160;&#160;&#160;&#160;&#160;&#160;&#160;&#160;&#160;&#160;&#160;</text>
<polygon fill="none" stroke="#0a0a0a" points="4210,-326 4210,-343 4682,-343 4682,-326 4210,-326"/>
<text text-anchor="start" x="4211" y="-330.8" font-family="Helvetica,sans-Serif" font-size="14.00"> &#160;&#160;&#160;&#160;&#160;&#160;&#160;&#160;&#160;&#160;&#160;&#160;&#160;&#160;&#160;&#160;&#160;&#160;&#160;&#160;&#160;&#160;&#160;&#160;&#160;&#160;&#160;mongodb &#160;&#160;&#160;&#160;&#160;&#160;&#160;&#160;&#160;&#160;&#160;&#160;&#160;&#160;&#160;&#160;&#160;&#160;&#160;&#160;&#160;&#160;&#160;</text>
<polygon fill="none" stroke="#0a0a0a" points="4210,-309 4210,-326 4682,-326 4682,-309 4210,-309"/>
<text text-anchor="start" x="4211" y="-313.8" font-family="Helvetica,sans-Serif" font-size="14.00"> &#160;&#160;&#160;&#160;&#160;&#160;&#160;&#160;&#160;&#160;&#160;&#160;&#160;&#160;&#160;&#160;&#160;&#160;&#160;&#160;&#160;&#160;&#160;&#160;&#160;&#160;&#160;repository &#160;&#160;&#160;&#160;&#160;&#160;&#160;&#160;&#160;&#160;&#160;&#160;&#160;&#160;&#160;&#160;&#160;&#160;&#160;&#160;&#160;&#160;&#160;</text>
<polygon fill="none" stroke="#0a0a0a" points="4209,-308 4209,-378 4683,-378 4683,-308 4209,-308"/>
<polygon fill="none" stroke="#0a0a0a" points="4684,-307 4684,-379 5496,-379 5496,-307 4684,-307"/>
<text text-anchor="start" x="4685" y="-339.3" font-family="Helvetica,sans-Serif" font-size="14.00"> &#160;&#160;&#160;&#160;&#160;&#160;&#160;&#160;&#160;&#160;&#160;&#160;&#160;&#160;&#160;networks (4) &#160;&#160;&#160;&#160;&#160;&#160;&#160;&#160;&#160;&#160;&#160;</text>
<polygon fill="none" stroke="#0a0a0a" points="4207,-306.5 4207,-609.5 5497,-609.5 5497,-306.5 4207,-306.5"/>
</g>
<!-- NODE&#45;SERVICE_dagster&#45;&gt;NODE&#45;SERVICE_openstudiolandscapes&#45;postgres&#45;dagster -->
<g id="edge1" class="edge">
<title>NODE&#45;SERVICE_dagster:e&#45;&gt;NODE&#45;SERVICE_openstudiolandscapes&#45;postgres&#45;dagster:w</title>
<path fill="none" stroke="yellow" stroke-width="2" d="M3495.21,-537.89C3576.96,-545.02 4124.19,-592.77 4198.62,-599.27"/>
<polygon fill="yellow" stroke="yellow" stroke-width="2" points="3485.3,-533.51 3494.96,-537.87 3484.7,-540.49 3485.3,-533.51"/>
<ellipse fill="yellow" stroke="yellow" stroke-width="2" cx="4203.02" cy="-599.65" rx="4" ry="4"/>
</g>
<!-- dagster__3003__3006 -->
<g id="node3" class="node">
<title>dagster__3003__3006</title>
<ellipse fill="#ffffff" stroke="black" cx="665.5" cy="-653" rx="34.39" ry="34.39"/>
<text text-anchor="middle" x="665.5" y="-649.3" font-family="Helvetica,sans-Serif" font-size="14.00">3003</text>
</g>
<!-- dagster__3003__3006&#45;&gt;NODE&#45;SERVICE_dagster -->
<g id="edge2" class="edge">
<title>dagster__3003__3006:e&#45;&gt;NODE&#45;SERVICE_dagster:w</title>
<path fill="none" stroke="#ffffff" d="M709.63,-651.38C815.26,-630.29 1915.86,-410.59 2020.95,-389.61"/>
<ellipse fill="#ffffff" stroke="#ffffff" cx="705.42" cy="-652.22" rx="4" ry="4"/>
<ellipse fill="#ffffff" stroke="#ffffff" cx="2025.08" cy="-388.78" rx="4" ry="4"/>
</g>
<!-- /data/share/nfs -->
<g id="node4" class="node">
<title>/data/share/nfs</title>
<path fill="#00ffff" stroke="black" d="M714,-543C714,-543 617,-543 617,-543 611,-543 605,-537 605,-531 605,-531 605,-519 605,-519 605,-513 611,-507 617,-507 617,-507 714,-507 714,-507 720,-507 726,-513 726,-519 726,-519 726,-531 726,-531 726,-537 720,-543 714,-543"/>
<text text-anchor="middle" x="665.5" y="-521.3" font-family="Helvetica,sans-Serif" font-size="14.00">/data/share/nfs</text>
</g>
<!-- /data/share/nfs&#45;&gt;NODE&#45;SERVICE_dagster -->
<g id="edge3" class="edge">
<title>/data/share/nfs:e&#45;&gt;NODE&#45;SERVICE_dagster:w</title>
<path fill="none" stroke="#00ffff" d="M734.82,-524.58C840.33,-519.32 1916,-465.64 2020.8,-460.41"/>
<ellipse fill="#00ffff" stroke="#00ffff" cx="730.5" cy="-524.8" rx="4" ry="4"/>
<ellipse fill="#00ffff" stroke="#00ffff" cx="2025" cy="-460.2" rx="4" ry="4"/>
</g>
<!-- /data/share/nfs&#45;&gt;NODE&#45;SERVICE_dagster -->
<g id="edge4" class="edge">
<title>/data/share/nfs:e&#45;&gt;NODE&#45;SERVICE_dagster:w</title>
<path fill="none" stroke="#00ffff" d="M734.82,-524.48C840.33,-517.83 1916,-450.11 2020.8,-443.52"/>
<ellipse fill="#00ffff" stroke="#00ffff" cx="730.49" cy="-524.75" rx="4" ry="4"/>
<ellipse fill="#00ffff" stroke="#00ffff" cx="2025.01" cy="-443.25" rx="4" ry="4"/>
</g>
<!-- /home/user/git/repos/OpenStudioLandscapes/.landscapes/2025&#45;07&#45;09&#45;10&#45;57&#45;24&#45;9749b6a35f504cce82b6622608cf10a9/Dagster__Dagster/Dagster__dagster_yaml/materializations -->
<g id="node5" class="node">
<title>/home/user/git/repos/OpenStudioLandscapes/.landscapes/2025&#45;07&#45;09&#45;10&#45;57&#45;24&#45;9749b6a35f504cce82b6622608cf10a9/Dagster__Dagster/Dagster__dagster_yaml/materializations</title>
<path fill="#00ffff" stroke="black" d="M1283.5,-485C1283.5,-485 47.5,-485 47.5,-485 41.5,-485 35.5,-479 35.5,-473 35.5,-473 35.5,-461 35.5,-461 35.5,-455 41.5,-449 47.5,-449 47.5,-449 1283.5,-449 1283.5,-449 1289.5,-449 1295.5,-455 1295.5,-461 1295.5,-461 1295.5,-473 1295.5,-473 1295.5,-479 1289.5,-485 1283.5,-485"/>
<text text-anchor="middle" x="665.5" y="-463.3" font-family="Helvetica,sans-Serif" font-size="14.00">/home/user/git/repos/OpenStudioLandscapes/.landscapes/2025&#45;07&#45;09&#45;10&#45;57&#45;24&#45;9749b6a35f504cce82b6622608cf10a9/Dagster__Dagster/Dagster__dagster_yaml/materializations</text>
</g>
<!-- /home/user/git/repos/OpenStudioLandscapes/.landscapes/2025&#45;07&#45;09&#45;10&#45;57&#45;24&#45;9749b6a35f504cce82b6622608cf10a9/Dagster__Dagster/Dagster__dagster_yaml/materializations&#45;&gt;NODE&#45;SERVICE_dagster -->
<g id="edge5" class="edge">
<title>/home/user/git/repos/OpenStudioLandscapes/.landscapes/2025&#45;07&#45;09&#45;10&#45;57&#45;24&#45;9749b6a35f504cce82b6622608cf10a9/Dagster__Dagster/Dagster__dagster_yaml/materializations:e&#45;&gt;NODE&#45;SERVICE_dagster:w</title>
<path fill="none" stroke="#00ffff" stroke-dasharray="5,2" d="M1304.73,-466.54C1379.86,-462.33 1945.98,-430.65 2020.84,-426.46"/>
<ellipse fill="#00ffff" stroke="#00ffff" cx="1300.49" cy="-466.78" rx="4" ry="4"/>
<ellipse fill="#00ffff" stroke="#00ffff" cx="2025.01" cy="-426.22" rx="4" ry="4"/>
</g>
<!-- /home/user/git/repos/OpenStudioLandscapes/.landscapes/2025&#45;07&#45;09&#45;10&#45;57&#45;24&#45;9749b6a35f504cce82b6622608cf10a9/Dagster__Dagster/Dagster__workspace_yaml/workspace.yaml -->
<g id="node6" class="node">
<title>/home/user/git/repos/OpenStudioLandscapes/.landscapes/2025&#45;07&#45;09&#45;10&#45;57&#45;24&#45;9749b6a35f504cce82b6622608cf10a9/Dagster__Dagster/Dagster__workspace_yaml/workspace.yaml</title>
<path fill="#00ffff" stroke="black" d="M1295,-427C1295,-427 36,-427 36,-427 30,-427 24,-421 24,-415 24,-415 24,-403 24,-403 24,-397 30,-391 36,-391 36,-391 1295,-391 1295,-391 1301,-391 1307,-397 1307,-403 1307,-403 1307,-415 1307,-415 1307,-421 1301,-427 1295,-427"/>
<text text-anchor="middle" x="665.5" y="-405.3" font-family="Helvetica,sans-Serif" font-size="14.00">/home/user/git/repos/OpenStudioLandscapes/.landscapes/2025&#45;07&#45;09&#45;10&#45;57&#45;24&#45;9749b6a35f504cce82b6622608cf10a9/Dagster__Dagster/Dagster__workspace_yaml/workspace.yaml</text>
</g>
<!-- /home/user/git/repos/OpenStudioLandscapes/.landscapes/2025&#45;07&#45;09&#45;10&#45;57&#45;24&#45;9749b6a35f504cce82b6622608cf10a9/Dagster__Dagster/Dagster__workspace_yaml/workspace.yaml&#45;&gt;NODE&#45;SERVICE_dagster -->
<g id="edge6" class="edge">
<title>/home/user/git/repos/OpenStudioLandscapes/.landscapes/2025&#45;07&#45;09&#45;10&#45;57&#45;24&#45;9749b6a35f504cce82b6622608cf10a9/Dagster__Dagster/Dagster__workspace_yaml/workspace.yaml:e&#45;&gt;NODE&#45;SERVICE_dagster:w</title>
<path fill="none" stroke="#00ffff" stroke-dasharray="5,2" d="M1316.59,-409C1390.49,-409 1947.34,-409 2020.97,-409"/>
<ellipse fill="#00ffff" stroke="#00ffff" cx="1312.5" cy="-409" rx="4" ry="4"/>
<ellipse fill="#00ffff" stroke="#00ffff" cx="2025" cy="-409" rx="4" ry="4"/>
</g>
<!-- /home/user/git/repos/OpenStudioLandscapes/.landscapes/.dagster/postgres -->
<g id="node7" class="node">
<title>/home/user/git/repos/OpenStudioLandscapes/.landscapes/.dagster/postgres</title>
<path fill="#00ffff" stroke="black" d="M924.5,-369C924.5,-369 406.5,-369 406.5,-369 400.5,-369 394.5,-363 394.5,-357 394.5,-357 394.5,-345 394.5,-345 394.5,-339 400.5,-333 406.5,-333 406.5,-333 924.5,-333 924.5,-333 930.5,-333 936.5,-339 936.5,-345 936.5,-345 936.5,-357 936.5,-357 936.5,-363 930.5,-369 924.5,-369"/>
<text text-anchor="middle" x="665.5" y="-347.3" font-family="Helvetica,sans-Serif" font-size="14.00">/home/user/git/repos/OpenStudioLandscapes/.landscapes/.dagster/postgres</text>
</g>
<!-- /home/user/git/repos/OpenStudioLandscapes/.landscapes/.dagster/postgres&#45;&gt;NODE&#45;SERVICE_openstudiolandscapes&#45;postgres&#45;dagster -->
<g id="edge7" class="edge">
<title>/home/user/git/repos/OpenStudioLandscapes/.landscapes/.dagster/postgres:e&#45;&gt;NODE&#45;SERVICE_openstudiolandscapes&#45;postgres&#45;dagster:w</title>
<path fill="none" stroke="#00ffff" d="M944.76,-351.1C1120.11,-353.13 4028.83,-386.9 4201.95,-388.91"/>
<ellipse fill="#00ffff" stroke="#00ffff" cx="940.5" cy="-351.05" rx="4" ry="4"/>
<ellipse fill="#00ffff" stroke="#00ffff" cx="4206" cy="-388.95" rx="4" ry="4"/>
</g>
<!-- ayon -->
<g id="node8" class="node">
<title>ayon</title>
<path fill="#ffa500" stroke="black" d="M680.5,-257C680.5,-257 650.5,-257 650.5,-257 644.5,-257 638.5,-251 638.5,-245 638.5,-245 638.5,-233 638.5,-233 638.5,-227 644.5,-221 650.5,-221 650.5,-221 680.5,-221 680.5,-221 686.5,-221 692.5,-227 692.5,-233 692.5,-233 692.5,-245 692.5,-245 692.5,-251 686.5,-257 680.5,-257"/>
<text text-anchor="middle" x="665.5" y="-235.3" font-family="Helvetica,sans-Serif" font-size="14.00">ayon</text>
</g>
<!-- ayon&#45;&gt;NODE&#45;SERVICE_dagster -->
<g id="edge8" class="edge">
<title>ayon:e&#45;&gt;NODE&#45;SERVICE_dagster:w</title>
<path fill="none" stroke="#ffa500" d="M701.68,-239.78C807.94,-249.97 1915.18,-356.09 2020.9,-366.22"/>
<ellipse fill="#ffa500" stroke="#ffa500" cx="697.48" cy="-239.38" rx="4" ry="4"/>
<ellipse fill="#ffa500" stroke="#ffa500" cx="2025.02" cy="-366.62" rx="4" ry="4"/>
</g>
<!-- ayon&#45;&gt;NODE&#45;SERVICE_openstudiolandscapes&#45;postgres&#45;dagster -->
<g id="edge12" class="edge">
<title>ayon:e&#45;&gt;NODE&#45;SERVICE_openstudiolandscapes&#45;postgres&#45;dagster:w</title>
<path fill="none" stroke="#ffa500" d="M700.52,-239.29C880.24,-245.89 4021.06,-361.07 4201.88,-367.7"/>
<ellipse fill="#ffa500" stroke="#ffa500" cx="696.5" cy="-239.15" rx="4" ry="4"/>
<ellipse fill="#ffa500" stroke="#ffa500" cx="4206" cy="-367.85" rx="4" ry="4"/>
</g>
<!-- dagster -->
<g id="node9" class="node">
<title>dagster</title>
<path fill="#ffa500" stroke="black" d="M688.5,-199C688.5,-199 642.5,-199 642.5,-199 636.5,-199 630.5,-193 630.5,-187 630.5,-187 630.5,-175 630.5,-175 630.5,-169 636.5,-163 642.5,-163 642.5,-163 688.5,-163 688.5,-163 694.5,-163 700.5,-169 700.5,-175 700.5,-175 700.5,-187 700.5,-187 700.5,-193 694.5,-199 688.5,-199"/>
<text text-anchor="middle" x="665.5" y="-177.3" font-family="Helvetica,sans-Serif" font-size="14.00">dagster</text>
</g>
<!-- dagster&#45;&gt;NODE&#45;SERVICE_dagster -->
<g id="edge9" class="edge">
<title>dagster:e&#45;&gt;NODE&#45;SERVICE_dagster:w</title>
<path fill="none" stroke="#ffa500" d="M709.63,-182.04C815.26,-195.48 1915.86,-335.6 2020.95,-348.98"/>
<ellipse fill="#ffa500" stroke="#ffa500" cx="705.47" cy="-181.51" rx="4" ry="4"/>
<ellipse fill="#ffa500" stroke="#ffa500" cx="2025.03" cy="-349.49" rx="4" ry="4"/>
</g>
<!-- dagster&#45;&gt;NODE&#45;SERVICE_openstudiolandscapes&#45;postgres&#45;dagster -->
<g id="edge13" class="edge">
<title>dagster:e&#45;&gt;NODE&#45;SERVICE_openstudiolandscapes&#45;postgres&#45;dagster:w</title>
<path fill="none" stroke="#ffa500" d="M708.5,-181.39C887.82,-190.07 4021.49,-341.87 4201.9,-350.61"/>
<ellipse fill="#ffa500" stroke="#ffa500" cx="704.5" cy="-181.19" rx="4" ry="4"/>
<ellipse fill="#ffa500" stroke="#ffa500" cx="4206" cy="-350.81" rx="4" ry="4"/>
</g>
<!-- mongodb -->
<g id="node10" class="node">
<title>mongodb</title>
<path fill="#ffa500" stroke="black" d="M695,-141C695,-141 636,-141 636,-141 630,-141 624,-135 624,-129 624,-129 624,-117 624,-117 624,-111 630,-105 636,-105 636,-105 695,-105 695,-105 701,-105 707,-111 707,-117 707,-117 707,-129 707,-129 707,-135 701,-141 695,-141"/>
<text text-anchor="middle" x="665.5" y="-119.3" font-family="Helvetica,sans-Serif" font-size="14.00">mongodb</text>
</g>
<!-- mongodb&#45;&gt;NODE&#45;SERVICE_dagster -->
<g id="edge10" class="edge">
<title>mongodb:e&#45;&gt;NODE&#45;SERVICE_dagster:w</title>
<path fill="none" stroke="#ffa500" d="M716.59,-124.29C821.66,-141 1916.46,-315.1 2020.99,-331.73"/>
<ellipse fill="#ffa500" stroke="#ffa500" cx="712.45" cy="-123.63" rx="4" ry="4"/>
<ellipse fill="#ffa500" stroke="#ffa500" cx="2025.05" cy="-332.37" rx="4" ry="4"/>
</g>
<!-- mongodb&#45;&gt;NODE&#45;SERVICE_openstudiolandscapes&#45;postgres&#45;dagster -->
<g id="edge14" class="edge">
<title>mongodb:e&#45;&gt;NODE&#45;SERVICE_openstudiolandscapes&#45;postgres&#45;dagster:w</title>
<path fill="none" stroke="#ffa500" d="M715.49,-123.48C894.44,-134.26 4021.87,-322.67 4201.91,-333.51"/>
<ellipse fill="#ffa500" stroke="#ffa500" cx="711.49" cy="-123.24" rx="4" ry="4"/>
<ellipse fill="#ffa500" stroke="#ffa500" cx="4206.01" cy="-333.76" rx="4" ry="4"/>
</g>
<!-- repository -->
<g id="node11" class="node">
<title>repository</title>
<path fill="#ffa500" stroke="black" d="M696.5,-83C696.5,-83 634.5,-83 634.5,-83 628.5,-83 622.5,-77 622.5,-71 622.5,-71 622.5,-59 622.5,-59 622.5,-53 628.5,-47 634.5,-47 634.5,-47 696.5,-47 696.5,-47 702.5,-47 708.5,-53 708.5,-59 708.5,-59 708.5,-71 708.5,-71 708.5,-77 702.5,-83 696.5,-83"/>
<text text-anchor="middle" x="665.5" y="-61.3" font-family="Helvetica,sans-Serif" font-size="14.00">repository</text>
</g>
<!-- repository&#45;&gt;NODE&#45;SERVICE_dagster -->
<g id="edge11" class="edge">
<title>repository:e&#45;&gt;NODE&#45;SERVICE_dagster:w</title>
<path fill="none" stroke="#ffa500" d="M717.58,-66.54C822.57,-86.51 1916.54,-294.61 2021,-314.48"/>
<ellipse fill="#ffa500" stroke="#ffa500" cx="713.43" cy="-65.75" rx="4" ry="4"/>
<ellipse fill="#ffa500" stroke="#ffa500" cx="2025.07" cy="-315.25" rx="4" ry="4"/>
</g>
<!-- repository&#45;&gt;NODE&#45;SERVICE_openstudiolandscapes&#45;postgres&#45;dagster -->
<g id="edge15" class="edge">
<title>repository:e&#45;&gt;NODE&#45;SERVICE_openstudiolandscapes&#45;postgres&#45;dagster:w</title>
<path fill="none" stroke="#ffa500" d="M716.49,-65.57C895.39,-78.45 4021.92,-303.46 4201.91,-316.42"/>
<ellipse fill="#ffa500" stroke="#ffa500" cx="712.49" cy="-65.29" rx="4" ry="4"/>
<ellipse fill="#ffa500" stroke="#ffa500" cx="4206.01" cy="-316.71" rx="4" ry="4"/>
</g>
</g>
</svg>
