<?xml version="1.0" encoding="UTF-8" standalone="no"?>
<!DOCTYPE svg PUBLIC "-//W3C//DTD SVG 1.1//EN"
 "http://www.w3.org/Graphics/SVG/1.1/DTD/svg11.dtd">
<!-- Generated by graphviz version 2.43.0 (0)
 -->
<!-- Title: main_graph Pages: 1 -->
<svg width="4843pt" height="896pt"
 viewBox="0.00 0.00 4843.00 896.00" xmlns="http://www.w3.org/2000/svg" xmlns:xlink="http://www.w3.org/1999/xlink">
<g id="graph0" class="graph" transform="scale(1 1) rotate(0) translate(108 788)">
<title>main_graph</title>
<polygon fill="#2f2f2f" stroke="transparent" points="-108,108 -108,-788 4735,-788 4735,108 -108,108"/>
<text text-anchor="middle" x="2313.5" y="-7.8" font-family="Helvetica,sans-Serif" font-size="14.00">/home/user/git/repos/OpenStudioLandscapes/.landscapes/2025&#45;07&#45;09&#45;10&#45;57&#45;24&#45;9749b6a35f504cce82b6622608cf10a9/Ayon__Ayon/Ayon__DOCKER_COMPOSE/docker_compose/docker&#45;compose.yml</text>
<g id="clust1" class="cluster">
<title>cluster_cluster_root_services_2025&#45;07&#45;09&#45;10&#45;57&#45;24&#45;9749b6a35f504cce82b6622608cf10a9&#45;default</title>
<path fill="#ff00ff" fill-opacity="0.062745" stroke="#ff00ff" d="M1852,-31C1852,-31 4607,-31 4607,-31 4613,-31 4619,-37 4619,-43 4619,-43 4619,-660 4619,-660 4619,-666 4613,-672 4607,-672 4607,-672 1852,-672 1852,-672 1846,-672 1840,-666 1840,-660 1840,-660 1840,-43 1840,-43 1840,-37 1846,-31 1852,-31"/>
<text text-anchor="middle" x="3229.5" y="-636" font-family="Helvetica,sans-Serif" font-size="40.00" fill="#ff00ff">Compose Services (2025&#45;07&#45;09&#45;10&#45;57&#45;24&#45;9749b6a35f504cce82b6622608cf10a9&#45;default)</text>
</g>
<g id="clust2" class="cluster">
<title>cluster_cluster_service_postgres</title>
<path fill="#00ffff" fill-opacity="0.062745" stroke="white" d="M3549,-274C3549,-274 4599,-274 4599,-274 4605,-274 4611,-280 4611,-286 4611,-286 4611,-600 4611,-600 4611,-606 4605,-612 4599,-612 4599,-612 3549,-612 3549,-612 3543,-612 3537,-606 3537,-600 3537,-600 3537,-286 3537,-286 3537,-280 3543,-274 3549,-274"/>
<text text-anchor="middle" x="4074" y="-576" font-family="Helvetica,sans-Serif" font-size="40.00" fill="white">postgres</text>
</g>
<g id="clust3" class="cluster">
<title>cluster_cluster_service_redis</title>
<path fill="#00ffff" fill-opacity="0.062745" stroke="white" d="M3633,-39C3633,-39 4515,-39 4515,-39 4521,-39 4527,-45 4527,-51 4527,-51 4527,-254 4527,-254 4527,-260 4521,-266 4515,-266 4515,-266 3633,-266 3633,-266 3627,-266 3621,-260 3621,-254 3621,-254 3621,-51 3621,-51 3621,-45 3627,-39 3633,-39"/>
<text text-anchor="middle" x="4074" y="-230" font-family="Helvetica,sans-Serif" font-size="40.00" fill="white">redis</text>
</g>
<g id="clust4" class="cluster">
<title>cluster_cluster_service_server</title>
<path fill="#00ffff" fill-opacity="0.062745" stroke="white" d="M1860,-270C1860,-270 2821,-270 2821,-270 2827,-270 2833,-276 2833,-282 2833,-282 2833,-600 2833,-600 2833,-606 2827,-612 2821,-612 2821,-612 1860,-612 1860,-612 1854,-612 1848,-606 1848,-600 1848,-600 1848,-282 1848,-282 1848,-276 1854,-270 1860,-270"/>
<text text-anchor="middle" x="2340.5" y="-576" font-family="Helvetica,sans-Serif" font-size="40.00" fill="white">server</text>
</g>
<g id="clust5" class="cluster">
<title>cluster_cluster_host</title>
<path fill="#000000" fill-opacity="0.062745" stroke="#000000" d="M20,-43C20,-43 1140,-43 1140,-43 1146,-43 1152,-49 1152,-55 1152,-55 1152,-517 1152,-517 1152,-523 1146,-529 1140,-529 1140,-529 20,-529 20,-529 14,-529 8,-523 8,-517 8,-517 8,-55 8,-55 8,-49 14,-43 20,-43"/>
<text text-anchor="middle" x="580" y="-493" font-family="Helvetica,sans-Serif" font-size="40.00" fill="#000000">Host</text>
</g>
<g id="clust6" class="cluster">
<title>cluster_cluster_root_ports</title>
<path fill="#ffffff" fill-opacity="0.062745" stroke="#ffffff" d="M441.55,-333C441.55,-333 718.45,-333 718.45,-333 724.45,-333 730.45,-339 730.45,-345 730.45,-345 730.45,-457 730.45,-457 730.45,-463 724.45,-469 718.45,-469 718.45,-469 441.55,-469 441.55,-469 435.55,-469 429.55,-463 429.55,-457 429.55,-457 429.55,-345 429.55,-345 429.55,-339 435.55,-333 441.55,-333"/>
<text text-anchor="middle" x="580" y="-433" font-family="Helvetica,sans-Serif" font-size="40.00" fill="#ffffff">Exposed Ports</text>
</g>
<g id="clust7" class="cluster">
<title>cluster_cluster_root_volumes</title>
<path fill="#00ffff" fill-opacity="0.062745" stroke="#00ffff" d="M28,-163C28,-163 1132,-163 1132,-163 1138,-163 1144,-169 1144,-175 1144,-175 1144,-313 1144,-313 1144,-319 1138,-325 1132,-325 1132,-325 28,-325 28,-325 22,-325 16,-319 16,-313 16,-313 16,-175 16,-175 16,-169 22,-163 28,-163"/>
<text text-anchor="middle" x="580" y="-289" font-family="Helvetica,sans-Serif" font-size="40.00" fill="#00ffff">Mounted Volumes</text>
</g>
<g id="clust8" class="cluster">
<title>cluster_cluster_root_networks</title>
<path fill="#ffa500" fill-opacity="0.062745" stroke="#ffa500" d="M489,-51C489,-51 671,-51 671,-51 677,-51 683,-57 683,-63 683,-63 683,-143 683,-143 683,-149 677,-155 671,-155 671,-155 489,-155 489,-155 483,-155 477,-149 477,-143 477,-143 477,-63 477,-63 477,-57 483,-51 489,-51"/>
<text text-anchor="middle" x="580" y="-119" font-family="Helvetica,sans-Serif" font-size="40.00" fill="#ffa500">Networks</text>
</g>
<!-- NODE&#45;SERVICE_postgres -->
<g id="node1" class="node">
<title>NODE&#45;SERVICE_postgres</title>
<polygon fill="#a0a0a0" stroke="transparent" points="4603,-551.5 3545,-551.5 3545,-282.5 4603,-282.5 4603,-551.5"/>
<polygon fill="none" stroke="#0a0a0a" points="3546,-533 3546,-550 3969,-550 3969,-533 3546,-533"/>
<text text-anchor="start" x="3782" y="-537.8" font-family="Helvetica,sans-Serif" font-size="14.00"> &#160;&#160;&#160;&#160;&#160;&#160;&#160;&#160;&#160;&#160;&#160;service_name &#160;&#160;&#160;&#160;&#160;&#160;&#160;</text>
<polygon fill="none" stroke="#0a0a0a" points="3969,-533 3969,-550 4602,-550 4602,-533 3969,-533"/>
<text text-anchor="start" x="3970" y="-537.8" font-family="Helvetica,sans-Serif" font-size="14.00"> &#160;&#160;&#160;&#160;&#160;&#160;&#160;&#160;&#160;&#160;&#160;postgres &#160;&#160;&#160;&#160;&#160;&#160;&#160;</text>
<polygon fill="none" stroke="#0a0a0a" points="3546,-516 3546,-533 3969,-533 3969,-516 3546,-516"/>
<text text-anchor="start" x="3766" y="-520.8" font-family="Helvetica,sans-Serif" font-size="14.00"> &#160;&#160;&#160;&#160;&#160;&#160;&#160;&#160;&#160;&#160;&#160;container_name &#160;&#160;&#160;&#160;&#160;&#160;&#160;</text>
<polygon fill="none" stroke="#0a0a0a" points="3969,-516 3969,-533 4602,-533 4602,-516 3969,-516"/>
<text text-anchor="start" x="3970" y="-520.8" font-family="Helvetica,sans-Serif" font-size="14.00"> &#160;&#160;&#160;&#160;&#160;&#160;&#160;&#160;&#160;&#160;&#160;ayon&#45;postgres&#45;&#45;2025&#45;07&#45;09&#45;10&#45;57&#45;24&#45;9749b6a35f504cce82b6622608cf10a9 &#160;&#160;&#160;&#160;&#160;&#160;&#160;</text>
<polygon fill="none" stroke="#0a0a0a" points="3546,-499 3546,-516 3969,-516 3969,-499 3546,-499"/>
<text text-anchor="start" x="3808" y="-503.8" font-family="Helvetica,sans-Serif" font-size="14.00"> &#160;&#160;&#160;&#160;&#160;&#160;&#160;&#160;&#160;&#160;&#160;hostname &#160;&#160;&#160;&#160;&#160;&#160;&#160;</text>
<polygon fill="none" stroke="#0a0a0a" points="3969,-499 3969,-516 4602,-516 4602,-499 3969,-499"/>
<text text-anchor="start" x="3970" y="-503.8" font-family="Helvetica,sans-Serif" font-size="14.00"> &#160;&#160;&#160;&#160;&#160;&#160;&#160;&#160;&#160;&#160;&#160;postgres.farm.evil &#160;&#160;&#160;&#160;&#160;&#160;&#160;</text>
<polygon fill="none" stroke="#0a0a0a" points="3546,-482 3546,-499 3969,-499 3969,-482 3546,-482"/>
<text text-anchor="start" x="3787" y="-486.8" font-family="Helvetica,sans-Serif" font-size="14.00"> &#160;&#160;&#160;&#160;&#160;&#160;&#160;&#160;&#160;&#160;&#160;domainname &#160;&#160;&#160;&#160;&#160;&#160;&#160;</text>
<polygon fill="none" stroke="#0a0a0a" points="3969,-482 3969,-499 4602,-499 4602,-482 3969,-482"/>
<text text-anchor="start" x="3970" y="-486.8" font-family="Helvetica,sans-Serif" font-size="14.00"> &#160;&#160;&#160;&#160;&#160;&#160;&#160;&#160;&#160;&#160;&#160;farm.evil &#160;&#160;&#160;&#160;&#160;&#160;&#160;</text>
<polygon fill="none" stroke="#0a0a0a" points="3546,-465 3546,-482 3969,-482 3969,-465 3546,-465"/>
<text text-anchor="start" x="3832" y="-469.8" font-family="Helvetica,sans-Serif" font-size="14.00"> &#160;&#160;&#160;&#160;&#160;&#160;&#160;&#160;&#160;&#160;&#160;restart &#160;&#160;&#160;&#160;&#160;&#160;&#160;</text>
<polygon fill="none" stroke="#0a0a0a" points="3969,-465 3969,-482 4602,-482 4602,-465 3969,-465"/>
<text text-anchor="start" x="3970" y="-469.8" font-family="Helvetica,sans-Serif" font-size="14.00"> &#160;&#160;&#160;&#160;&#160;&#160;&#160;&#160;&#160;&#160;&#160;unless&#45;stopped &#160;&#160;&#160;&#160;&#160;&#160;&#160;</text>
<polygon fill="none" stroke="#0a0a0a" points="3546,-448 3546,-465 3969,-465 3969,-448 3546,-448"/>
<text text-anchor="start" x="3835" y="-452.8" font-family="Helvetica,sans-Serif" font-size="14.00"> &#160;&#160;&#160;&#160;&#160;&#160;&#160;&#160;&#160;&#160;&#160;image &#160;&#160;&#160;&#160;&#160;&#160;&#160;</text>
<polygon fill="none" stroke="#0a0a0a" points="3969,-448 3969,-465 4602,-465 4602,-448 3969,-448"/>
<text text-anchor="start" x="3970" y="-452.8" font-family="Helvetica,sans-Serif" font-size="14.00"> &#160;&#160;&#160;&#160;&#160;&#160;&#160;&#160;&#160;&#160;&#160;postgres:${AYON_STACK_POSTGRES_TAG:&#45;15} &#160;&#160;&#160;&#160;&#160;&#160;&#160;</text>
<polygon fill="none" stroke="#0a0a0a" points="3546,-431 3546,-448 3969,-448 3969,-431 3546,-431"/>
<text text-anchor="start" x="3689" y="-435.8" font-family="Helvetica,sans-Serif" font-size="14.00"> &#160;&#160;&#160;&#160;&#160;&#160;&#160;&#160;&#160;&#160;&#160;command (ENTRYPOINT +) &#160;&#160;&#160;&#160;&#160;&#160;&#160;</text>
<polygon fill="none" stroke="#0a0a0a" points="3969,-431 3969,-448 4602,-448 4602,-431 3969,-431"/>
<text text-anchor="start" x="3970" y="-435.8" font-family="Helvetica,sans-Serif" font-size="14.00"> &#160;&#160;&#160;&#160;&#160;&#160;&#160;&#160;&#160;&#160;&#160;&#45; &#160;&#160;&#160;&#160;&#160;&#160;&#160;</text>
<polygon fill="none" stroke="#0a0a0a" points="3546,-414 3546,-431 3969,-431 3969,-414 3546,-414"/>
<text text-anchor="start" x="3757" y="-418.8" font-family="Helvetica,sans-Serif" font-size="14.00"> &#160;&#160;&#160;&#160;&#160;&#160;&#160;&#160;&#160;&#160;&#160;&#160;&#160;&#160;&#160;healthcheck &#160;&#160;&#160;&#160;&#160;&#160;&#160;&#160;&#160;&#160;&#160;</text>
<polygon fill="none" stroke="#0a0a0a" points="3969,-414 3969,-431 4602,-431 4602,-414 3969,-414"/>
<text text-anchor="start" x="3970" y="-418.8" font-family="Helvetica,sans-Serif" font-size="14.00"> &#160;&#160;&#160;&#160;&#160;&#160;&#160;&#160;&#160;&#160;&#160;&#160;&#160;&#160;&#160;CMD&#45;SHELL &#39;pg_isready &#45;U ayon&#39; &#160;&#160;&#160;&#160;&#160;&#160;&#160;&#160;&#160;&#160;&#160;</text>
<polygon fill="none" stroke="#0a0a0a" points="3546,-359 3546,-414 3969,-414 3969,-359 3546,-359"/>
<text text-anchor="start" x="3730" y="-382.8" font-family="Helvetica,sans-Serif" font-size="14.00"> &#160;&#160;&#160;&#160;&#160;&#160;&#160;&#160;&#160;&#160;&#160;&#160;&#160;&#160;&#160;environment (3) &#160;&#160;&#160;&#160;&#160;&#160;&#160;&#160;&#160;&#160;&#160;</text>
<polygon fill="none" stroke="#0a0a0a" points="3969,-359 3969,-414 4602,-414 4602,-359 3969,-359"/>
<polygon fill="none" stroke="#0a0a0a" points="3971,-395 3971,-412 4600,-412 4600,-395 3971,-395"/>
<text text-anchor="start" x="3972" y="-399.8" font-family="Helvetica,sans-Serif" font-size="14.00"> &#160;&#160;&#160;&#160;&#160;&#160;&#160;&#160;&#160;&#160;&#160;&#160;&#160;&#160;&#160;&#160;&#160;&#160;&#160;&#160;&#160;&#160;&#160;&#160;&#160;&#160;&#160;POSTGRES_DB=ayon &#160;&#160;&#160;&#160;&#160;&#160;&#160;&#160;&#160;&#160;&#160;&#160;&#160;&#160;&#160;&#160;&#160;&#160;&#160;&#160;&#160;&#160;&#160;</text>
<polygon fill="none" stroke="#0a0a0a" points="3971,-378 3971,-395 4600,-395 4600,-378 3971,-378"/>
<text text-anchor="start" x="3972" y="-382.8" font-family="Helvetica,sans-Serif" font-size="14.00"> &#160;&#160;&#160;&#160;&#160;&#160;&#160;&#160;&#160;&#160;&#160;&#160;&#160;&#160;&#160;&#160;&#160;&#160;&#160;&#160;&#160;&#160;&#160;&#160;&#160;&#160;&#160;POSTGRES_PASSWORD=ayon &#160;&#160;&#160;&#160;&#160;&#160;&#160;&#160;&#160;&#160;&#160;&#160;&#160;&#160;&#160;&#160;&#160;&#160;&#160;&#160;&#160;&#160;&#160;</text>
<polygon fill="none" stroke="#0a0a0a" points="3971,-361 3971,-378 4600,-378 4600,-361 3971,-361"/>
<text text-anchor="start" x="3972" y="-365.8" font-family="Helvetica,sans-Serif" font-size="14.00"> &#160;&#160;&#160;&#160;&#160;&#160;&#160;&#160;&#160;&#160;&#160;&#160;&#160;&#160;&#160;&#160;&#160;&#160;&#160;&#160;&#160;&#160;&#160;&#160;&#160;&#160;&#160;POSTGRES_USER=ayon &#160;&#160;&#160;&#160;&#160;&#160;&#160;&#160;&#160;&#160;&#160;&#160;&#160;&#160;&#160;&#160;&#160;&#160;&#160;&#160;&#160;&#160;&#160;</text>
<polygon fill="none" stroke="#0a0a0a" points="3970,-360 3970,-413 4601,-413 4601,-360 3970,-360"/>
<polygon fill="none" stroke="#0a0a0a" points="3546,-304 3546,-359 3969,-359 3969,-304 3546,-304"/>
<polygon fill="none" stroke="#0a0a0a" points="3548,-340 3548,-357 3967,-357 3967,-340 3548,-340"/>
<text text-anchor="start" x="3549" y="-344.8" font-family="Helvetica,sans-Serif" font-size="14.00"> &#160;&#160;&#160;&#160;&#160;&#160;&#160;&#160;&#160;&#160;&#160;&#160;&#160;&#160;&#160;&#160;&#160;&#160;&#160;&#160;&#160;&#160;&#160;&#160;&#160;&#160;&#160;/etc/localtime:ro &#160;&#160;&#160;&#160;&#160;&#160;&#160;&#160;&#160;&#160;&#160;&#160;&#160;&#160;&#160;&#160;&#160;&#160;&#160;&#160;&#160;&#160;&#160;</text>
<polygon fill="none" stroke="#0a0a0a" points="3548,-323 3548,-340 3967,-340 3967,-323 3548,-323"/>
<text text-anchor="start" x="3549" y="-327.8" font-family="Helvetica,sans-Serif" font-size="14.00"> &#160;&#160;&#160;&#160;&#160;&#160;&#160;&#160;&#160;&#160;&#160;&#160;&#160;&#160;&#160;&#160;&#160;&#160;&#160;&#160;&#160;&#160;&#160;&#160;&#160;&#160;&#160;/var/lib/postgresql/data:rw &#160;&#160;&#160;&#160;&#160;&#160;&#160;&#160;&#160;&#160;&#160;&#160;&#160;&#160;&#160;&#160;&#160;&#160;&#160;&#160;&#160;&#160;&#160;</text>
<polygon fill="none" stroke="#0a0a0a" points="3548,-306 3548,-323 3967,-323 3967,-306 3548,-306"/>
<text text-anchor="start" x="3549" y="-310.8" font-family="Helvetica,sans-Serif" font-size="14.00"> &#160;&#160;&#160;&#160;&#160;&#160;&#160;&#160;&#160;&#160;&#160;&#160;&#160;&#160;&#160;&#160;&#160;&#160;&#160;&#160;&#160;&#160;&#160;&#160;&#160;&#160;&#160;/var/lib/postgresql/data:rw &#160;&#160;&#160;&#160;&#160;&#160;&#160;&#160;&#160;&#160;&#160;&#160;&#160;&#160;&#160;&#160;&#160;&#160;&#160;&#160;&#160;&#160;&#160;</text>
<polygon fill="none" stroke="#0a0a0a" points="3547,-305 3547,-358 3968,-358 3968,-305 3547,-305"/>
<polygon fill="none" stroke="#0a0a0a" points="3969,-304 3969,-359 4602,-359 4602,-304 3969,-304"/>
<text text-anchor="start" x="3970" y="-327.8" font-family="Helvetica,sans-Serif" font-size="14.00"> &#160;&#160;&#160;&#160;&#160;&#160;&#160;&#160;&#160;&#160;&#160;&#160;&#160;&#160;&#160;volumes (3) &#160;&#160;&#160;&#160;&#160;&#160;&#160;&#160;&#160;&#160;&#160;</text>
<polygon fill="none" stroke="#0a0a0a" points="3546,-283 3546,-304 3969,-304 3969,-283 3546,-283"/>
<polygon fill="none" stroke="#0a0a0a" points="3548,-285 3548,-302 3967,-302 3967,-285 3548,-285"/>
<text text-anchor="start" x="3549" y="-289.8" font-family="Helvetica,sans-Serif" font-size="14.00"> &#160;&#160;&#160;&#160;&#160;&#160;&#160;&#160;&#160;&#160;&#160;&#160;&#160;&#160;&#160;&#160;&#160;&#160;&#160;&#160;&#160;&#160;&#160;&#160;&#160;&#160;&#160;ayon &#160;&#160;&#160;&#160;&#160;&#160;&#160;&#160;&#160;&#160;&#160;&#160;&#160;&#160;&#160;&#160;&#160;&#160;&#160;&#160;&#160;&#160;&#160;</text>
<polygon fill="none" stroke="#0a0a0a" points="3547,-284 3547,-303 3968,-303 3968,-284 3547,-284"/>
<polygon fill="none" stroke="#0a0a0a" points="3969,-283 3969,-304 4602,-304 4602,-283 3969,-283"/>
<text text-anchor="start" x="3970" y="-289.8" font-family="Helvetica,sans-Serif" font-size="14.00"> &#160;&#160;&#160;&#160;&#160;&#160;&#160;&#160;&#160;&#160;&#160;&#160;&#160;&#160;&#160;networks (1) &#160;&#160;&#160;&#160;&#160;&#160;&#160;&#160;&#160;&#160;&#160;</text>
<polygon fill="none" stroke="#0a0a0a" points="3545,-282.5 3545,-551.5 4603,-551.5 4603,-282.5 3545,-282.5"/>
</g>
<!-- NODE&#45;SERVICE_redis -->
<g id="node2" class="node">
<title>NODE&#45;SERVICE_redis</title>
<polygon fill="#a0a0a0" stroke="transparent" points="4519,-205.5 3629,-205.5 3629,-46.5 4519,-46.5 4519,-205.5"/>
<polygon fill="none" stroke="#0a0a0a" points="3630,-187 3630,-204 3911,-204 3911,-187 3630,-187"/>
<text text-anchor="start" x="3724" y="-191.8" font-family="Helvetica,sans-Serif" font-size="14.00"> &#160;&#160;&#160;&#160;&#160;&#160;&#160;&#160;&#160;&#160;&#160;service_name &#160;&#160;&#160;&#160;&#160;&#160;&#160;</text>
<polygon fill="none" stroke="#0a0a0a" points="3911,-187 3911,-204 4518,-204 4518,-187 3911,-187"/>
<text text-anchor="start" x="3912" y="-191.8" font-family="Helvetica,sans-Serif" font-size="14.00"> &#160;&#160;&#160;&#160;&#160;&#160;&#160;&#160;&#160;&#160;&#160;redis &#160;&#160;&#160;&#160;&#160;&#160;&#160;</text>
<polygon fill="none" stroke="#0a0a0a" points="3630,-170 3630,-187 3911,-187 3911,-170 3630,-170"/>
<text text-anchor="start" x="3708" y="-174.8" font-family="Helvetica,sans-Serif" font-size="14.00"> &#160;&#160;&#160;&#160;&#160;&#160;&#160;&#160;&#160;&#160;&#160;container_name &#160;&#160;&#160;&#160;&#160;&#160;&#160;</text>
<polygon fill="none" stroke="#0a0a0a" points="3911,-170 3911,-187 4518,-187 4518,-170 3911,-170"/>
<text text-anchor="start" x="3912" y="-174.8" font-family="Helvetica,sans-Serif" font-size="14.00"> &#160;&#160;&#160;&#160;&#160;&#160;&#160;&#160;&#160;&#160;&#160;ayon&#45;redis&#45;&#45;2025&#45;07&#45;09&#45;10&#45;57&#45;24&#45;9749b6a35f504cce82b6622608cf10a9 &#160;&#160;&#160;&#160;&#160;&#160;&#160;</text>
<polygon fill="none" stroke="#0a0a0a" points="3630,-153 3630,-170 3911,-170 3911,-153 3630,-153"/>
<text text-anchor="start" x="3750" y="-157.8" font-family="Helvetica,sans-Serif" font-size="14.00"> &#160;&#160;&#160;&#160;&#160;&#160;&#160;&#160;&#160;&#160;&#160;hostname &#160;&#160;&#160;&#160;&#160;&#160;&#160;</text>
<polygon fill="none" stroke="#0a0a0a" points="3911,-153 3911,-170 4518,-170 4518,-153 3911,-153"/>
<text text-anchor="start" x="3912" y="-157.8" font-family="Helvetica,sans-Serif" font-size="14.00"> &#160;&#160;&#160;&#160;&#160;&#160;&#160;&#160;&#160;&#160;&#160;redis.farm.evil &#160;&#160;&#160;&#160;&#160;&#160;&#160;</text>
<polygon fill="none" stroke="#0a0a0a" points="3630,-136 3630,-153 3911,-153 3911,-136 3630,-136"/>
<text text-anchor="start" x="3729" y="-140.8" font-family="Helvetica,sans-Serif" font-size="14.00"> &#160;&#160;&#160;&#160;&#160;&#160;&#160;&#160;&#160;&#160;&#160;domainname &#160;&#160;&#160;&#160;&#160;&#160;&#160;</text>
<polygon fill="none" stroke="#0a0a0a" points="3911,-136 3911,-153 4518,-153 4518,-136 3911,-136"/>
<text text-anchor="start" x="3912" y="-140.8" font-family="Helvetica,sans-Serif" font-size="14.00"> &#160;&#160;&#160;&#160;&#160;&#160;&#160;&#160;&#160;&#160;&#160;farm.evil &#160;&#160;&#160;&#160;&#160;&#160;&#160;</text>
<polygon fill="none" stroke="#0a0a0a" points="3630,-119 3630,-136 3911,-136 3911,-119 3630,-119"/>
<text text-anchor="start" x="3774" y="-123.8" font-family="Helvetica,sans-Serif" font-size="14.00"> &#160;&#160;&#160;&#160;&#160;&#160;&#160;&#160;&#160;&#160;&#160;restart &#160;&#160;&#160;&#160;&#160;&#160;&#160;</text>
<polygon fill="none" stroke="#0a0a0a" points="3911,-119 3911,-136 4518,-136 4518,-119 3911,-119"/>
<text text-anchor="start" x="3912" y="-123.8" font-family="Helvetica,sans-Serif" font-size="14.00"> &#160;&#160;&#160;&#160;&#160;&#160;&#160;&#160;&#160;&#160;&#160;unless&#45;stopped &#160;&#160;&#160;&#160;&#160;&#160;&#160;</text>
<polygon fill="none" stroke="#0a0a0a" points="3630,-102 3630,-119 3911,-119 3911,-102 3630,-102"/>
<text text-anchor="start" x="3777" y="-106.8" font-family="Helvetica,sans-Serif" font-size="14.00"> &#160;&#160;&#160;&#160;&#160;&#160;&#160;&#160;&#160;&#160;&#160;image &#160;&#160;&#160;&#160;&#160;&#160;&#160;</text>
<polygon fill="none" stroke="#0a0a0a" points="3911,-102 3911,-119 4518,-119 4518,-102 3911,-102"/>
<text text-anchor="start" x="3912" y="-106.8" font-family="Helvetica,sans-Serif" font-size="14.00"> &#160;&#160;&#160;&#160;&#160;&#160;&#160;&#160;&#160;&#160;&#160;redis:alpine &#160;&#160;&#160;&#160;&#160;&#160;&#160;</text>
<polygon fill="none" stroke="#0a0a0a" points="3630,-85 3630,-102 3911,-102 3911,-85 3630,-85"/>
<text text-anchor="start" x="3631" y="-89.8" font-family="Helvetica,sans-Serif" font-size="14.00"> &#160;&#160;&#160;&#160;&#160;&#160;&#160;&#160;&#160;&#160;&#160;command (ENTRYPOINT +) &#160;&#160;&#160;&#160;&#160;&#160;&#160;</text>
<polygon fill="none" stroke="#0a0a0a" points="3911,-85 3911,-102 4518,-102 4518,-85 3911,-85"/>
<text text-anchor="start" x="3912" y="-89.8" font-family="Helvetica,sans-Serif" font-size="14.00"> &#160;&#160;&#160;&#160;&#160;&#160;&#160;&#160;&#160;&#160;&#160;&#45; &#160;&#160;&#160;&#160;&#160;&#160;&#160;</text>
<polygon fill="none" stroke="#0a0a0a" points="3630,-68 3630,-85 3911,-85 3911,-68 3630,-68"/>
<text text-anchor="start" x="3699" y="-72.8" font-family="Helvetica,sans-Serif" font-size="14.00"> &#160;&#160;&#160;&#160;&#160;&#160;&#160;&#160;&#160;&#160;&#160;&#160;&#160;&#160;&#160;healthcheck &#160;&#160;&#160;&#160;&#160;&#160;&#160;&#160;&#160;&#160;&#160;</text>
<polygon fill="none" stroke="#0a0a0a" points="3911,-68 3911,-85 4518,-85 4518,-68 3911,-68"/>
<text text-anchor="start" x="3912" y="-72.8" font-family="Helvetica,sans-Serif" font-size="14.00"> &#160;&#160;&#160;&#160;&#160;&#160;&#160;&#160;&#160;&#160;&#160;&#160;&#160;&#160;&#160;CMD&#45;SHELL &#39;redis&#45;cli ping | grep PONG&#39; &#160;&#160;&#160;&#160;&#160;&#160;&#160;&#160;&#160;&#160;&#160;</text>
<polygon fill="none" stroke="#0a0a0a" points="3630,-47 3630,-68 3911,-68 3911,-47 3630,-47"/>
<polygon fill="none" stroke="#0a0a0a" points="3632,-49 3632,-66 3909,-66 3909,-49 3632,-49"/>
<text text-anchor="start" x="3633" y="-53.8" font-family="Helvetica,sans-Serif" font-size="14.00"> &#160;&#160;&#160;&#160;&#160;&#160;&#160;&#160;&#160;&#160;&#160;&#160;&#160;&#160;&#160;&#160;&#160;&#160;&#160;&#160;&#160;&#160;&#160;&#160;&#160;&#160;&#160;ayon &#160;&#160;&#160;&#160;&#160;&#160;&#160;&#160;&#160;&#160;&#160;&#160;&#160;&#160;&#160;&#160;&#160;&#160;&#160;&#160;&#160;&#160;&#160;</text>
<polygon fill="none" stroke="#0a0a0a" points="3631,-48 3631,-67 3910,-67 3910,-48 3631,-48"/>
<polygon fill="none" stroke="#0a0a0a" points="3911,-47 3911,-68 4518,-68 4518,-47 3911,-47"/>
<text text-anchor="start" x="3912" y="-53.8" font-family="Helvetica,sans-Serif" font-size="14.00"> &#160;&#160;&#160;&#160;&#160;&#160;&#160;&#160;&#160;&#160;&#160;&#160;&#160;&#160;&#160;networks (1) &#160;&#160;&#160;&#160;&#160;&#160;&#160;&#160;&#160;&#160;&#160;</text>
<polygon fill="none" stroke="#0a0a0a" points="3629,-46.5 3629,-205.5 4519,-205.5 4519,-46.5 3629,-46.5"/>
</g>
<!-- NODE&#45;SERVICE_server -->
<g id="node3" class="node">
<title>NODE&#45;SERVICE_server</title>
<polygon fill="#a0a0a0" stroke="transparent" points="2825,-551.5 1856,-551.5 1856,-278.5 2825,-278.5 2825,-551.5"/>
<polygon fill="none" stroke="#0a0a0a" points="1857.5,-533 1857.5,-550 2208.5,-550 2208.5,-533 1857.5,-533"/>
<text text-anchor="start" x="2021.5" y="-537.8" font-family="Helvetica,sans-Serif" font-size="14.00"> &#160;&#160;&#160;&#160;&#160;&#160;&#160;&#160;&#160;&#160;&#160;service_name &#160;&#160;&#160;&#160;&#160;&#160;&#160;</text>
<polygon fill="none" stroke="#0a0a0a" points="2208.5,-533 2208.5,-550 2824.5,-550 2824.5,-533 2208.5,-533"/>
<text text-anchor="start" x="2209.5" y="-537.8" font-family="Helvetica,sans-Serif" font-size="14.00"> &#160;&#160;&#160;&#160;&#160;&#160;&#160;&#160;&#160;&#160;&#160;server &#160;&#160;&#160;&#160;&#160;&#160;&#160;</text>
<polygon fill="none" stroke="#0a0a0a" points="1857.5,-516 1857.5,-533 2208.5,-533 2208.5,-516 1857.5,-516"/>
<text text-anchor="start" x="2005.5" y="-520.8" font-family="Helvetica,sans-Serif" font-size="14.00"> &#160;&#160;&#160;&#160;&#160;&#160;&#160;&#160;&#160;&#160;&#160;container_name &#160;&#160;&#160;&#160;&#160;&#160;&#160;</text>
<polygon fill="none" stroke="#0a0a0a" points="2208.5,-516 2208.5,-533 2824.5,-533 2824.5,-516 2208.5,-516"/>
<text text-anchor="start" x="2209.5" y="-520.8" font-family="Helvetica,sans-Serif" font-size="14.00"> &#160;&#160;&#160;&#160;&#160;&#160;&#160;&#160;&#160;&#160;&#160;ayon&#45;server&#45;&#45;2025&#45;07&#45;09&#45;10&#45;57&#45;24&#45;9749b6a35f504cce82b6622608cf10a9 &#160;&#160;&#160;&#160;&#160;&#160;&#160;</text>
<polygon fill="none" stroke="#0a0a0a" points="1857.5,-499 1857.5,-516 2208.5,-516 2208.5,-499 1857.5,-499"/>
<text text-anchor="start" x="2047.5" y="-503.8" font-family="Helvetica,sans-Serif" font-size="14.00"> &#160;&#160;&#160;&#160;&#160;&#160;&#160;&#160;&#160;&#160;&#160;hostname &#160;&#160;&#160;&#160;&#160;&#160;&#160;</text>
<polygon fill="none" stroke="#0a0a0a" points="2208.5,-499 2208.5,-516 2824.5,-516 2824.5,-499 2208.5,-499"/>
<text text-anchor="start" x="2209.5" y="-503.8" font-family="Helvetica,sans-Serif" font-size="14.00"> &#160;&#160;&#160;&#160;&#160;&#160;&#160;&#160;&#160;&#160;&#160;server.farm.evil &#160;&#160;&#160;&#160;&#160;&#160;&#160;</text>
<polygon fill="none" stroke="#0a0a0a" points="1857.5,-482 1857.5,-499 2208.5,-499 2208.5,-482 1857.5,-482"/>
<text text-anchor="start" x="2026.5" y="-486.8" font-family="Helvetica,sans-Serif" font-size="14.00"> &#160;&#160;&#160;&#160;&#160;&#160;&#160;&#160;&#160;&#160;&#160;domainname &#160;&#160;&#160;&#160;&#160;&#160;&#160;</text>
<polygon fill="none" stroke="#0a0a0a" points="2208.5,-482 2208.5,-499 2824.5,-499 2824.5,-482 2208.5,-482"/>
<text text-anchor="start" x="2209.5" y="-486.8" font-family="Helvetica,sans-Serif" font-size="14.00"> &#160;&#160;&#160;&#160;&#160;&#160;&#160;&#160;&#160;&#160;&#160;farm.evil &#160;&#160;&#160;&#160;&#160;&#160;&#160;</text>
<polygon fill="none" stroke="#0a0a0a" points="1857.5,-465 1857.5,-482 2208.5,-482 2208.5,-465 1857.5,-465"/>
<text text-anchor="start" x="2071.5" y="-469.8" font-family="Helvetica,sans-Serif" font-size="14.00"> &#160;&#160;&#160;&#160;&#160;&#160;&#160;&#160;&#160;&#160;&#160;restart &#160;&#160;&#160;&#160;&#160;&#160;&#160;</text>
<polygon fill="none" stroke="#0a0a0a" points="2208.5,-465 2208.5,-482 2824.5,-482 2824.5,-465 2208.5,-465"/>
<text text-anchor="start" x="2209.5" y="-469.8" font-family="Helvetica,sans-Serif" font-size="14.00"> &#160;&#160;&#160;&#160;&#160;&#160;&#160;&#160;&#160;&#160;&#160;unless&#45;stopped &#160;&#160;&#160;&#160;&#160;&#160;&#160;</text>
<polygon fill="none" stroke="#0a0a0a" points="1857.5,-448 1857.5,-465 2208.5,-465 2208.5,-448 1857.5,-448"/>
<text text-anchor="start" x="2074.5" y="-452.8" font-family="Helvetica,sans-Serif" font-size="14.00"> &#160;&#160;&#160;&#160;&#160;&#160;&#160;&#160;&#160;&#160;&#160;image &#160;&#160;&#160;&#160;&#160;&#160;&#160;</text>
<polygon fill="none" stroke="#0a0a0a" points="2208.5,-448 2208.5,-465 2824.5,-465 2824.5,-448 2208.5,-448"/>
<text text-anchor="start" x="2209.5" y="-452.8" font-family="Helvetica,sans-Serif" font-size="14.00"> &#160;&#160;&#160;&#160;&#160;&#160;&#160;&#160;&#160;&#160;&#160;ynput/ayon:${AYON_STACK_SERVER_TAG:&#45;latest} &#160;&#160;&#160;&#160;&#160;&#160;&#160;</text>
<polygon fill="none" stroke="#0a0a0a" points="1857.5,-431 1857.5,-448 2208.5,-448 2208.5,-431 1857.5,-431"/>
<text text-anchor="start" x="1928.5" y="-435.8" font-family="Helvetica,sans-Serif" font-size="14.00"> &#160;&#160;&#160;&#160;&#160;&#160;&#160;&#160;&#160;&#160;&#160;command (ENTRYPOINT +) &#160;&#160;&#160;&#160;&#160;&#160;&#160;</text>
<polygon fill="none" stroke="#0a0a0a" points="2208.5,-431 2208.5,-448 2824.5,-448 2824.5,-431 2208.5,-431"/>
<text text-anchor="start" x="2209.5" y="-435.8" font-family="Helvetica,sans-Serif" font-size="14.00"> &#160;&#160;&#160;&#160;&#160;&#160;&#160;&#160;&#160;&#160;&#160;&#45; &#160;&#160;&#160;&#160;&#160;&#160;&#160;</text>
<polygon fill="none" stroke="#0a0a0a" points="1857.5,-414 1857.5,-431 2208.5,-431 2208.5,-414 1857.5,-414"/>
<text text-anchor="start" x="1996.5" y="-418.8" font-family="Helvetica,sans-Serif" font-size="14.00"> &#160;&#160;&#160;&#160;&#160;&#160;&#160;&#160;&#160;&#160;&#160;&#160;&#160;&#160;&#160;healthcheck &#160;&#160;&#160;&#160;&#160;&#160;&#160;&#160;&#160;&#160;&#160;</text>
<polygon fill="none" stroke="#0a0a0a" points="2208.5,-414 2208.5,-431 2824.5,-431 2824.5,-414 2208.5,-414"/>
<text text-anchor="start" x="2209.5" y="-418.8" font-family="Helvetica,sans-Serif" font-size="14.00"> &#160;&#160;&#160;&#160;&#160;&#160;&#160;&#160;&#160;&#160;&#160;&#160;&#160;&#160;&#160;CMD curl &#45;f http://localhost:5000/api/info &#160;&#160;&#160;&#160;&#160;&#160;&#160;&#160;&#160;&#160;&#160;</text>
<polygon fill="none" stroke="#0a0a0a" points="1857.5,-376 1857.5,-414 2208.5,-414 2208.5,-376 1857.5,-376"/>
<text text-anchor="start" x="1972.5" y="-391.3" font-family="Helvetica,sans-Serif" font-size="14.00"> &#160;&#160;&#160;&#160;&#160;&#160;&#160;&#160;&#160;&#160;&#160;&#160;&#160;&#160;&#160;depends_on (2) &#160;&#160;&#160;&#160;&#160;&#160;&#160;&#160;&#160;&#160;&#160;</text>
<polygon fill="none" stroke="#0a0a0a" points="2208.5,-376 2208.5,-414 2824.5,-414 2824.5,-376 2208.5,-376"/>
<polygon fill="none" stroke="#0a0a0a" points="2210.5,-395 2210.5,-412 2822.5,-412 2822.5,-395 2210.5,-395"/>
<text text-anchor="start" x="2211.5" y="-399.8" font-family="Helvetica,sans-Serif" font-size="14.00"> &#160;&#160;&#160;&#160;&#160;&#160;&#160;&#160;&#160;&#160;&#160;&#160;&#160;&#160;&#160;&#160;&#160;&#160;&#160;&#160;&#160;&#160;&#160;&#160;&#160;&#160;&#160;postgres (condition: service_healthy) &#160;&#160;&#160;&#160;&#160;&#160;&#160;&#160;&#160;&#160;&#160;&#160;&#160;&#160;&#160;&#160;&#160;&#160;&#160;&#160;&#160;&#160;&#160;</text>
<polygon fill="none" stroke="#0a0a0a" points="2210.5,-378 2210.5,-395 2822.5,-395 2822.5,-378 2210.5,-378"/>
<text text-anchor="start" x="2211.5" y="-382.8" font-family="Helvetica,sans-Serif" font-size="14.00"> &#160;&#160;&#160;&#160;&#160;&#160;&#160;&#160;&#160;&#160;&#160;&#160;&#160;&#160;&#160;&#160;&#160;&#160;&#160;&#160;&#160;&#160;&#160;&#160;&#160;&#160;&#160;redis (condition: service_started) &#160;&#160;&#160;&#160;&#160;&#160;&#160;&#160;&#160;&#160;&#160;&#160;&#160;&#160;&#160;&#160;&#160;&#160;&#160;&#160;&#160;&#160;&#160;</text>
<polygon fill="none" stroke="#0a0a0a" points="2209.5,-377 2209.5,-413 2823.5,-413 2823.5,-377 2209.5,-377"/>
<polygon fill="none" stroke="#0a0a0a" points="1857.5,-321 1857.5,-376 2208.5,-376 2208.5,-321 1857.5,-321"/>
<polygon fill="none" stroke="#0a0a0a" points="1859.5,-357 1859.5,-374 2206.5,-374 2206.5,-357 1859.5,-357"/>
<text text-anchor="start" x="1860.5" y="-361.8" font-family="Helvetica,sans-Serif" font-size="14.00"> &#160;&#160;&#160;&#160;&#160;&#160;&#160;&#160;&#160;&#160;&#160;&#160;&#160;&#160;&#160;&#160;&#160;&#160;&#160;&#160;&#160;&#160;&#160;&#160;&#160;&#160;&#160;/addons:rw &#160;&#160;&#160;&#160;&#160;&#160;&#160;&#160;&#160;&#160;&#160;&#160;&#160;&#160;&#160;&#160;&#160;&#160;&#160;&#160;&#160;&#160;&#160;</text>
<polygon fill="none" stroke="#0a0a0a" points="1859.5,-340 1859.5,-357 2206.5,-357 2206.5,-340 1859.5,-340"/>
<text text-anchor="start" x="1860.5" y="-344.8" font-family="Helvetica,sans-Serif" font-size="14.00"> &#160;&#160;&#160;&#160;&#160;&#160;&#160;&#160;&#160;&#160;&#160;&#160;&#160;&#160;&#160;&#160;&#160;&#160;&#160;&#160;&#160;&#160;&#160;&#160;&#160;&#160;&#160;/storage:rw &#160;&#160;&#160;&#160;&#160;&#160;&#160;&#160;&#160;&#160;&#160;&#160;&#160;&#160;&#160;&#160;&#160;&#160;&#160;&#160;&#160;&#160;&#160;</text>
<polygon fill="none" stroke="#0a0a0a" points="1859.5,-323 1859.5,-340 2206.5,-340 2206.5,-323 1859.5,-323"/>
<text text-anchor="start" x="1860.5" y="-327.8" font-family="Helvetica,sans-Serif" font-size="14.00"> &#160;&#160;&#160;&#160;&#160;&#160;&#160;&#160;&#160;&#160;&#160;&#160;&#160;&#160;&#160;&#160;&#160;&#160;&#160;&#160;&#160;&#160;&#160;&#160;&#160;&#160;&#160;/etc/localtime:ro &#160;&#160;&#160;&#160;&#160;&#160;&#160;&#160;&#160;&#160;&#160;&#160;&#160;&#160;&#160;&#160;&#160;&#160;&#160;&#160;&#160;&#160;&#160;</text>
<polygon fill="none" stroke="#0a0a0a" points="1858.5,-322 1858.5,-375 2207.5,-375 2207.5,-322 1858.5,-322"/>
<polygon fill="none" stroke="#0a0a0a" points="2208.5,-321 2208.5,-376 2824.5,-376 2824.5,-321 2208.5,-321"/>
<text text-anchor="start" x="2209.5" y="-344.8" font-family="Helvetica,sans-Serif" font-size="14.00"> &#160;&#160;&#160;&#160;&#160;&#160;&#160;&#160;&#160;&#160;&#160;&#160;&#160;&#160;&#160;volumes (3) &#160;&#160;&#160;&#160;&#160;&#160;&#160;&#160;&#160;&#160;&#160;</text>
<polygon fill="none" stroke="#0a0a0a" points="1857.5,-300 1857.5,-321 2208.5,-321 2208.5,-300 1857.5,-300"/>
<polygon fill="none" stroke="#0a0a0a" points="1859.5,-302 1859.5,-319 2206.5,-319 2206.5,-302 1859.5,-302"/>
<text text-anchor="start" x="1860.5" y="-306.8" font-family="Helvetica,sans-Serif" font-size="14.00"> &#160;&#160;&#160;&#160;&#160;&#160;&#160;&#160;&#160;&#160;&#160;&#160;&#160;&#160;&#160;&#160;&#160;&#160;&#160;&#160;&#160;&#160;&#160;&#160;&#160;&#160;&#160;5005 → 5000 &#160;&#160;&#160;&#160;&#160;&#160;&#160;&#160;&#160;&#160;&#160;&#160;&#160;&#160;&#160;&#160;&#160;&#160;&#160;&#160;&#160;&#160;&#160;</text>
<polygon fill="none" stroke="#0a0a0a" points="1858.5,-301 1858.5,-320 2207.5,-320 2207.5,-301 1858.5,-301"/>
<polygon fill="none" stroke="#0a0a0a" points="2208.5,-300 2208.5,-321 2824.5,-321 2824.5,-300 2208.5,-300"/>
<text text-anchor="start" x="2209.5" y="-306.8" font-family="Helvetica,sans-Serif" font-size="14.00"> &#160;&#160;&#160;&#160;&#160;&#160;&#160;&#160;&#160;&#160;&#160;&#160;&#160;&#160;&#160;ports (1) &#160;&#160;&#160;&#160;&#160;&#160;&#160;&#160;&#160;&#160;&#160;</text>
<polygon fill="none" stroke="#0a0a0a" points="1857.5,-279 1857.5,-300 2208.5,-300 2208.5,-279 1857.5,-279"/>
<polygon fill="none" stroke="#0a0a0a" points="1859.5,-281 1859.5,-298 2206.5,-298 2206.5,-281 1859.5,-281"/>
<text text-anchor="start" x="1860.5" y="-285.8" font-family="Helvetica,sans-Serif" font-size="14.00"> &#160;&#160;&#160;&#160;&#160;&#160;&#160;&#160;&#160;&#160;&#160;&#160;&#160;&#160;&#160;&#160;&#160;&#160;&#160;&#160;&#160;&#160;&#160;&#160;&#160;&#160;&#160;ayon &#160;&#160;&#160;&#160;&#160;&#160;&#160;&#160;&#160;&#160;&#160;&#160;&#160;&#160;&#160;&#160;&#160;&#160;&#160;&#160;&#160;&#160;&#160;</text>
<polygon fill="none" stroke="#0a0a0a" points="1858.5,-280 1858.5,-299 2207.5,-299 2207.5,-280 1858.5,-280"/>
<polygon fill="none" stroke="#0a0a0a" points="2208.5,-279 2208.5,-300 2824.5,-300 2824.5,-279 2208.5,-279"/>
<text text-anchor="start" x="2209.5" y="-285.8" font-family="Helvetica,sans-Serif" font-size="14.00"> &#160;&#160;&#160;&#160;&#160;&#160;&#160;&#160;&#160;&#160;&#160;&#160;&#160;&#160;&#160;networks (1) &#160;&#160;&#160;&#160;&#160;&#160;&#160;&#160;&#160;&#160;&#160;</text>
<polygon fill="none" stroke="#0a0a0a" points="1856,-278.5 1856,-551.5 2825,-551.5 2825,-278.5 1856,-278.5"/>
</g>
<!-- NODE&#45;SERVICE_server&#45;&gt;NODE&#45;SERVICE_postgres -->
<g id="edge1" class="edge">
<title>NODE&#45;SERVICE_server:e&#45;&gt;NODE&#45;SERVICE_postgres:w</title>
<path fill="none" stroke="yellow" stroke-width="2" d="M2833.42,-404.91C2914.33,-420.5 3464.38,-526.47 3537.07,-540.47"/>
<polygon fill="yellow" stroke="yellow" stroke-width="2" points="2824.16,-399.56 2833.32,-404.89 2822.84,-406.44 2824.16,-399.56"/>
<ellipse fill="yellow" stroke="yellow" stroke-width="2" cx="3541.07" cy="-541.24" rx="4" ry="4"/>
</g>
<!-- NODE&#45;SERVICE_server&#45;&gt;NODE&#45;SERVICE_redis -->
<g id="edge2" class="edge">
<title>NODE&#45;SERVICE_server:e&#45;&gt;NODE&#45;SERVICE_redis:w</title>
<path fill="none" stroke="yellow" stroke-width="2" d="M2833.39,-383.67C2919.7,-363.31 3543.45,-216.18 3621.08,-197.87"/>
<polygon fill="yellow" stroke="yellow" stroke-width="2" points="2822.7,-382.59 2833.23,-383.7 2824.3,-389.41 2822.7,-382.59"/>
<ellipse fill="yellow" stroke="yellow" stroke-width="2" cx="3625.11" cy="-196.92" rx="4" ry="4"/>
</g>
<!-- server__5005__5000 -->
<g id="node4" class="node">
<title>server__5005__5000</title>
<ellipse fill="#ffffff" stroke="black" cx="580" cy="-375" rx="34.39" ry="34.39"/>
<text text-anchor="middle" x="580" y="-371.3" font-family="Helvetica,sans-Serif" font-size="14.00">5005</text>
</g>
<!-- server__5005__5000&#45;&gt;NODE&#45;SERVICE_server -->
<g id="edge3" class="edge">
<title>server__5005__5000:e&#45;&gt;NODE&#45;SERVICE_server:w</title>
<path fill="none" stroke="#ffffff" d="M624.26,-374.57C726.7,-369.21 1748.82,-315.74 1850.38,-310.42"/>
<ellipse fill="#ffffff" stroke="#ffffff" cx="619.99" cy="-374.79" rx="4" ry="4"/>
<ellipse fill="#ffffff" stroke="#ffffff" cx="1854.51" cy="-310.21" rx="4" ry="4"/>
</g>
<!-- /etc/localtime -->
<g id="node5" class="node">
<title>/etc/localtime</title>
<path fill="#00ffff" stroke="black" d="M622.5,-265C622.5,-265 537.5,-265 537.5,-265 531.5,-265 525.5,-259 525.5,-253 525.5,-253 525.5,-241 525.5,-241 525.5,-235 531.5,-229 537.5,-229 537.5,-229 622.5,-229 622.5,-229 628.5,-229 634.5,-235 634.5,-241 634.5,-241 634.5,-253 634.5,-253 634.5,-259 628.5,-265 622.5,-265"/>
<text text-anchor="middle" x="580" y="-243.3" font-family="Helvetica,sans-Serif" font-size="14.00">/etc/localtime</text>
</g>
<!-- /etc/localtime&#45;&gt;NODE&#45;SERVICE_postgres -->
<g id="edge4" class="edge">
<title>/etc/localtime:e&#45;&gt;NODE&#45;SERVICE_postgres:w</title>
<path fill="none" stroke="#00ffff" stroke-dasharray="5,2" d="M643.36,-247.29C808.79,-253.03 3377.05,-342.07 3539.91,-347.72"/>
<ellipse fill="#00ffff" stroke="#00ffff" cx="639" cy="-247.14" rx="4" ry="4"/>
<ellipse fill="#00ffff" stroke="#00ffff" cx="3544" cy="-347.86" rx="4" ry="4"/>
</g>
<!-- /home/user/git/repos/OpenStudioLandscapes/.landscapes/2025&#45;07&#45;09&#45;10&#45;57&#45;24&#45;9749b6a35f504cce82b6622608cf10a9/Ayon__Ayon/data/ayon&#45;db/postgresql -->
<g id="node6" class="node">
<title>/home/user/git/repos/OpenStudioLandscapes/.landscapes/2025&#45;07&#45;09&#45;10&#45;57&#45;24&#45;9749b6a35f504cce82b6622608cf10a9/Ayon__Ayon/data/ayon&#45;db/postgresql</title>
<path fill="#00ffff" stroke="black" d="M1124,-207C1124,-207 36,-207 36,-207 30,-207 24,-201 24,-195 24,-195 24,-183 24,-183 24,-177 30,-171 36,-171 36,-171 1124,-171 1124,-171 1130,-171 1136,-177 1136,-183 1136,-183 1136,-195 1136,-195 1136,-201 1130,-207 1124,-207"/>
<text text-anchor="middle" x="580" y="-185.3" font-family="Helvetica,sans-Serif" font-size="14.00">/home/user/git/repos/OpenStudioLandscapes/.landscapes/2025&#45;07&#45;09&#45;10&#45;57&#45;24&#45;9749b6a35f504cce82b6622608cf10a9/Ayon__Ayon/data/ayon&#45;db/postgresql</text>
</g>
<!-- /home/user/git/repos/OpenStudioLandscapes/.landscapes/2025&#45;07&#45;09&#45;10&#45;57&#45;24&#45;9749b6a35f504cce82b6622608cf10a9/Ayon__Ayon/data/ayon&#45;db/postgresql&#45;&gt;NODE&#45;SERVICE_postgres -->
<g id="edge5" class="edge">
<title>/home/user/git/repos/OpenStudioLandscapes/.landscapes/2025&#45;07&#45;09&#45;10&#45;57&#45;24&#45;9749b6a35f504cce82b6622608cf10a9/Ayon__Ayon/data/ayon&#45;db/postgresql:e&#45;&gt;NODE&#45;SERVICE_postgres:w</title>
<path fill="none" stroke="#00ffff" stroke-dasharray="5,2" d="M1144.26,-189.49C1292.66,-198.22 3392.39,-321.84 3539.85,-330.52"/>
<ellipse fill="#00ffff" stroke="#00ffff" cx="1139.99" cy="-189.24" rx="4" ry="4"/>
<ellipse fill="#00ffff" stroke="#00ffff" cx="3544.01" cy="-330.76" rx="4" ry="4"/>
</g>
<!-- ayon -->
<g id="node7" class="node">
<title>ayon</title>
<path fill="#ffa500" stroke="black" d="M595,-95C595,-95 565,-95 565,-95 559,-95 553,-89 553,-83 553,-83 553,-71 553,-71 553,-65 559,-59 565,-59 565,-59 595,-59 595,-59 601,-59 607,-65 607,-71 607,-71 607,-83 607,-83 607,-89 601,-95 595,-95"/>
<text text-anchor="middle" x="580" y="-73.3" font-family="Helvetica,sans-Serif" font-size="14.00">ayon</text>
</g>
<!-- ayon&#45;&gt;NODE&#45;SERVICE_postgres -->
<g id="edge6" class="edge">
<title>ayon:e&#45;&gt;NODE&#45;SERVICE_postgres:w</title>
<path fill="none" stroke="#ffa500" d="M615.44,-77.62C782.47,-89.89 3375.41,-280.32 3539.83,-292.4"/>
<ellipse fill="#ffa500" stroke="#ffa500" cx="610.99" cy="-77.29" rx="4" ry="4"/>
<ellipse fill="#ffa500" stroke="#ffa500" cx="3544.01" cy="-292.71" rx="4" ry="4"/>
</g>
<!-- ayon&#45;&gt;NODE&#45;SERVICE_redis -->
<g id="edge7" class="edge">
<title>ayon:e&#45;&gt;NODE&#45;SERVICE_redis:w</title>
<path fill="none" stroke="#ffa500" d="M615.15,-76.95C782,-75.84 3456.82,-58.16 3623.83,-57.05"/>
<ellipse fill="#ffa500" stroke="#ffa500" cx="611" cy="-76.97" rx="4" ry="4"/>
<ellipse fill="#ffa500" stroke="#ffa500" cx="3628" cy="-57.03" rx="4" ry="4"/>
</g>
<!-- ayon&#45;&gt;NODE&#45;SERVICE_server -->
<g id="edge8" class="edge">
<title>ayon:e&#45;&gt;NODE&#45;SERVICE_server:w</title>
<path fill="none" stroke="#ffa500" d="M615.99,-78.35C717.18,-95.51 1747.9,-270.25 1850.31,-287.61"/>
<ellipse fill="#ffa500" stroke="#ffa500" cx="611.94" cy="-77.67" rx="4" ry="4"/>
<ellipse fill="#ffa500" stroke="#ffa500" cx="1854.56" cy="-288.33" rx="4" ry="4"/>
</g>
</g>
</svg>
