<?xml version="1.0" encoding="UTF-8" standalone="no"?>
<!DOCTYPE svg PUBLIC "-//W3C//DTD SVG 1.1//EN"
 "http://www.w3.org/Graphics/SVG/1.1/DTD/svg11.dtd">
<!-- Generated by graphviz version 2.43.0 (0)
 -->
<!-- Title: main_graph Pages: 1 -->
<svg width="5764pt" height="973pt"
 viewBox="0.00 0.00 5764.00 973.00" xmlns="http://www.w3.org/2000/svg" xmlns:xlink="http://www.w3.org/1999/xlink">
<g id="graph0" class="graph" transform="scale(1 1) rotate(0) translate(108 865)">
<title>main_graph</title>
<polygon fill="#2f2f2f" stroke="transparent" points="-108,108 -108,-865 5656,-865 5656,108 -108,108"/>
<text text-anchor="middle" x="2774" y="-7.8" font-family="Helvetica,sans-Serif" font-size="14.00">./2025&#45;07&#45;10&#45;22&#45;36&#45;50&#45;47cd6c0a7dd141429707ab6d91190a27/Dagster__Dagster/Dagster__DOCKER_COMPOSE/docker_compose/docker&#45;compose.yml</text>
<g id="clust1" class="cluster">
<title>cluster_cluster_root_services_2025&#45;07&#45;10&#45;22&#45;36&#45;50&#45;47cd6c0a7dd141429707ab6d91190a27&#45;default</title>
<path fill="#ff00ff" fill-opacity="0.062745" stroke="#ff00ff" d="M2032,-283C2032,-283 5528,-283 5528,-283 5534,-283 5540,-289 5540,-295 5540,-295 5540,-735 5540,-735 5540,-741 5534,-747 5528,-747 5528,-747 2032,-747 2032,-747 2026,-747 2020,-741 2020,-735 2020,-735 2020,-295 2020,-295 2020,-289 2026,-283 2032,-283"/>
<text text-anchor="middle" x="3780" y="-711" font-family="Helvetica,sans-Serif" font-size="40.00" fill="#ff00ff">Compose Services (2025&#45;07&#45;10&#45;22&#45;36&#45;50&#45;47cd6c0a7dd141429707ab6d91190a27&#45;default)</text>
</g>
<g id="clust2" class="cluster">
<title>cluster_cluster_service_dagster</title>
<path fill="#00ffff" fill-opacity="0.062745" stroke="white" d="M2040,-291C2040,-291 3501,-291 3501,-291 3507,-291 3513,-297 3513,-303 3513,-303 3513,-675 3513,-675 3513,-681 3507,-687 3501,-687 3501,-687 2040,-687 2040,-687 2034,-687 2028,-681 2028,-675 2028,-675 2028,-303 2028,-303 2028,-297 2034,-291 2040,-291"/>
<text text-anchor="middle" x="2770.5" y="-651" font-family="Helvetica,sans-Serif" font-size="40.00" fill="white">dagster</text>
</g>
<g id="clust3" class="cluster">
<title>cluster_cluster_service_openstudiolandscapes&#45;postgres&#45;dagster</title>
<path fill="#00ffff" fill-opacity="0.062745" stroke="white" d="M4229,-291C4229,-291 5520,-291 5520,-291 5526,-291 5532,-297 5532,-303 5532,-303 5532,-651 5532,-651 5532,-657 5526,-663 5520,-663 5520,-663 4229,-663 4229,-663 4223,-663 4217,-657 4217,-651 4217,-651 4217,-303 4217,-303 4217,-297 4223,-291 4229,-291"/>
<text text-anchor="middle" x="4874.5" y="-627" font-family="Helvetica,sans-Serif" font-size="40.00" fill="white">openstudiolandscapes&#45;postgres&#45;dagster</text>
</g>
<g id="clust4" class="cluster">
<title>cluster_cluster_host</title>
<path fill="#000000" fill-opacity="0.062745" stroke="#000000" d="M20,-31C20,-31 1320,-31 1320,-31 1326,-31 1332,-37 1332,-43 1332,-43 1332,-737 1332,-737 1332,-743 1326,-749 1320,-749 1320,-749 20,-749 20,-749 14,-749 8,-743 8,-737 8,-737 8,-43 8,-43 8,-37 14,-31 20,-31"/>
<text text-anchor="middle" x="670" y="-713" font-family="Helvetica,sans-Serif" font-size="40.00" fill="#000000">Host</text>
</g>
<g id="clust5" class="cluster">
<title>cluster_cluster_root_ports</title>
<path fill="#ffffff" fill-opacity="0.062745" stroke="#ffffff" d="M531.55,-553C531.55,-553 808.45,-553 808.45,-553 814.45,-553 820.45,-559 820.45,-565 820.45,-565 820.45,-677 820.45,-677 820.45,-683 814.45,-689 808.45,-689 808.45,-689 531.55,-689 531.55,-689 525.55,-689 519.55,-683 519.55,-677 519.55,-677 519.55,-565 519.55,-565 519.55,-559 525.55,-553 531.55,-553"/>
<text text-anchor="middle" x="670" y="-653" font-family="Helvetica,sans-Serif" font-size="40.00" fill="#ffffff">Exposed Ports</text>
</g>
<g id="clust6" class="cluster">
<title>cluster_cluster_root_volumes</title>
<path fill="#00ffff" fill-opacity="0.062745" stroke="#00ffff" d="M28,-325C28,-325 1312,-325 1312,-325 1318,-325 1324,-331 1324,-337 1324,-337 1324,-533 1324,-533 1324,-539 1318,-545 1312,-545 1312,-545 28,-545 28,-545 22,-545 16,-539 16,-533 16,-533 16,-337 16,-337 16,-331 22,-325 28,-325"/>
<text text-anchor="middle" x="670" y="-509" font-family="Helvetica,sans-Serif" font-size="40.00" fill="#00ffff">Mounted Volumes</text>
</g>
<g id="clust7" class="cluster">
<title>cluster_cluster_root_networks</title>
<path fill="#ffa500" fill-opacity="0.062745" stroke="#ffa500" d="M579,-39C579,-39 761,-39 761,-39 767,-39 773,-45 773,-51 773,-51 773,-305 773,-305 773,-311 767,-317 761,-317 761,-317 579,-317 579,-317 573,-317 567,-311 567,-305 567,-305 567,-51 567,-51 567,-45 573,-39 579,-39"/>
<text text-anchor="middle" x="670" y="-281" font-family="Helvetica,sans-Serif" font-size="40.00" fill="#ffa500">Networks</text>
</g>
<!-- NODE&#45;SERVICE_dagster -->
<g id="node1" class="node">
<title>NODE&#45;SERVICE_dagster</title>
<polygon fill="#a0a0a0" stroke="transparent" points="3505,-627 2036,-627 2036,-299 3505,-299 3505,-627"/>
<polygon fill="none" stroke="#0a0a0a" points="2037.5,-609 2037.5,-626 2472.5,-626 2472.5,-609 2037.5,-609"/>
<text text-anchor="start" x="2285.5" y="-613.8" font-family="Helvetica,sans-Serif" font-size="14.00"> &#160;&#160;&#160;&#160;&#160;&#160;&#160;&#160;&#160;&#160;&#160;service_name &#160;&#160;&#160;&#160;&#160;&#160;&#160;</text>
<polygon fill="none" stroke="#0a0a0a" points="2472.5,-609 2472.5,-626 3504.5,-626 3504.5,-609 2472.5,-609"/>
<text text-anchor="start" x="2473.5" y="-613.8" font-family="Helvetica,sans-Serif" font-size="14.00"> &#160;&#160;&#160;&#160;&#160;&#160;&#160;&#160;&#160;&#160;&#160;dagster &#160;&#160;&#160;&#160;&#160;&#160;&#160;</text>
<polygon fill="none" stroke="#0a0a0a" points="2037.5,-592 2037.5,-609 2472.5,-609 2472.5,-592 2037.5,-592"/>
<text text-anchor="start" x="2269.5" y="-596.8" font-family="Helvetica,sans-Serif" font-size="14.00"> &#160;&#160;&#160;&#160;&#160;&#160;&#160;&#160;&#160;&#160;&#160;container_name &#160;&#160;&#160;&#160;&#160;&#160;&#160;</text>
<polygon fill="none" stroke="#0a0a0a" points="2472.5,-592 2472.5,-609 3504.5,-609 3504.5,-592 2472.5,-592"/>
<text text-anchor="start" x="2473.5" y="-596.8" font-family="Helvetica,sans-Serif" font-size="14.00"> &#160;&#160;&#160;&#160;&#160;&#160;&#160;&#160;&#160;&#160;&#160;dagster&#45;&#45;2025&#45;07&#45;10&#45;22&#45;36&#45;50&#45;47cd6c0a7dd141429707ab6d91190a27 &#160;&#160;&#160;&#160;&#160;&#160;&#160;</text>
<polygon fill="none" stroke="#0a0a0a" points="2037.5,-575 2037.5,-592 2472.5,-592 2472.5,-575 2037.5,-575"/>
<text text-anchor="start" x="2311.5" y="-579.8" font-family="Helvetica,sans-Serif" font-size="14.00"> &#160;&#160;&#160;&#160;&#160;&#160;&#160;&#160;&#160;&#160;&#160;hostname &#160;&#160;&#160;&#160;&#160;&#160;&#160;</text>
<polygon fill="none" stroke="#0a0a0a" points="2472.5,-575 2472.5,-592 3504.5,-592 3504.5,-575 2472.5,-575"/>
<text text-anchor="start" x="2473.5" y="-579.8" font-family="Helvetica,sans-Serif" font-size="14.00"> &#160;&#160;&#160;&#160;&#160;&#160;&#160;&#160;&#160;&#160;&#160;dagster.farm.evil &#160;&#160;&#160;&#160;&#160;&#160;&#160;</text>
<polygon fill="none" stroke="#0a0a0a" points="2037.5,-558 2037.5,-575 2472.5,-575 2472.5,-558 2037.5,-558"/>
<text text-anchor="start" x="2290.5" y="-562.8" font-family="Helvetica,sans-Serif" font-size="14.00"> &#160;&#160;&#160;&#160;&#160;&#160;&#160;&#160;&#160;&#160;&#160;domainname &#160;&#160;&#160;&#160;&#160;&#160;&#160;</text>
<polygon fill="none" stroke="#0a0a0a" points="2472.5,-558 2472.5,-575 3504.5,-575 3504.5,-558 2472.5,-558"/>
<text text-anchor="start" x="2473.5" y="-562.8" font-family="Helvetica,sans-Serif" font-size="14.00"> &#160;&#160;&#160;&#160;&#160;&#160;&#160;&#160;&#160;&#160;&#160;farm.evil &#160;&#160;&#160;&#160;&#160;&#160;&#160;</text>
<polygon fill="none" stroke="#0a0a0a" points="2037.5,-541 2037.5,-558 2472.5,-558 2472.5,-541 2037.5,-541"/>
<text text-anchor="start" x="2335.5" y="-545.8" font-family="Helvetica,sans-Serif" font-size="14.00"> &#160;&#160;&#160;&#160;&#160;&#160;&#160;&#160;&#160;&#160;&#160;restart &#160;&#160;&#160;&#160;&#160;&#160;&#160;</text>
<polygon fill="none" stroke="#0a0a0a" points="2472.5,-541 2472.5,-558 3504.5,-558 3504.5,-541 2472.5,-541"/>
<text text-anchor="start" x="2473.5" y="-545.8" font-family="Helvetica,sans-Serif" font-size="14.00"> &#160;&#160;&#160;&#160;&#160;&#160;&#160;&#160;&#160;&#160;&#160;always &#160;&#160;&#160;&#160;&#160;&#160;&#160;</text>
<polygon fill="none" stroke="#0a0a0a" points="2037.5,-524 2037.5,-541 2472.5,-541 2472.5,-524 2037.5,-524"/>
<text text-anchor="start" x="2338.5" y="-528.8" font-family="Helvetica,sans-Serif" font-size="14.00"> &#160;&#160;&#160;&#160;&#160;&#160;&#160;&#160;&#160;&#160;&#160;image &#160;&#160;&#160;&#160;&#160;&#160;&#160;</text>
<polygon fill="none" stroke="#0a0a0a" points="2472.5,-524 2472.5,-541 3504.5,-541 3504.5,-524 2472.5,-524"/>
<text text-anchor="start" x="2473.5" y="-528.8" font-family="Helvetica,sans-Serif" font-size="14.00"> &#160;&#160;&#160;&#160;&#160;&#160;&#160;&#160;&#160;&#160;&#160;harbor.farm.evil:80/openstudiolandscapes/dagster_build_docker_image:2025&#45;07&#45;10&#45;22&#45;36&#45;50&#45;47cd6c0a7dd141429707ab6d91190a27 &#160;&#160;&#160;&#160;&#160;&#160;&#160;</text>
<polygon fill="none" stroke="#0a0a0a" points="2037.5,-507 2037.5,-524 2472.5,-524 2472.5,-507 2037.5,-507"/>
<text text-anchor="start" x="2192.5" y="-511.8" font-family="Helvetica,sans-Serif" font-size="14.00"> &#160;&#160;&#160;&#160;&#160;&#160;&#160;&#160;&#160;&#160;&#160;command (ENTRYPOINT +) &#160;&#160;&#160;&#160;&#160;&#160;&#160;</text>
<polygon fill="none" stroke="#0a0a0a" points="2472.5,-507 2472.5,-524 3504.5,-524 3504.5,-507 2472.5,-507"/>
<text text-anchor="start" x="2473.5" y="-511.8" font-family="Helvetica,sans-Serif" font-size="14.00"> &#160;&#160;&#160;&#160;&#160;&#160;&#160;&#160;&#160;&#160;&#160;dagster dev &#45;&#45;workspace /dagster/workspace.yaml &#45;&#45;host 0.0.0.0 &#45;&#45;port 3006 &#160;&#160;&#160;&#160;&#160;&#160;&#160;</text>
<polygon fill="none" stroke="#0a0a0a" points="2037.5,-490 2037.5,-507 2472.5,-507 2472.5,-490 2037.5,-490"/>
<text text-anchor="start" x="2260.5" y="-494.8" font-family="Helvetica,sans-Serif" font-size="14.00"> &#160;&#160;&#160;&#160;&#160;&#160;&#160;&#160;&#160;&#160;&#160;&#160;&#160;&#160;&#160;healthcheck &#160;&#160;&#160;&#160;&#160;&#160;&#160;&#160;&#160;&#160;&#160;</text>
<polygon fill="none" stroke="#0a0a0a" points="2472.5,-490 2472.5,-507 3504.5,-507 3504.5,-490 2472.5,-490"/>
<text text-anchor="start" x="2473.5" y="-494.8" font-family="Helvetica,sans-Serif" font-size="14.00"> &#160;&#160;&#160;&#160;&#160;&#160;&#160;&#160;&#160;&#160;&#160;&#160;&#160;&#160;&#160;CMD curl &#45;f http://localhost:3006 &#160;&#160;&#160;&#160;&#160;&#160;&#160;&#160;&#160;&#160;&#160;</text>
<polygon fill="none" stroke="#0a0a0a" points="2037.5,-469 2037.5,-490 2472.5,-490 2472.5,-469 2037.5,-469"/>
<text text-anchor="start" x="2236.5" y="-475.8" font-family="Helvetica,sans-Serif" font-size="14.00"> &#160;&#160;&#160;&#160;&#160;&#160;&#160;&#160;&#160;&#160;&#160;&#160;&#160;&#160;&#160;depends_on (1) &#160;&#160;&#160;&#160;&#160;&#160;&#160;&#160;&#160;&#160;&#160;</text>
<polygon fill="none" stroke="#0a0a0a" points="2472.5,-469 2472.5,-490 3504.5,-490 3504.5,-469 2472.5,-469"/>
<polygon fill="none" stroke="#0a0a0a" points="2474.5,-471 2474.5,-488 3502.5,-488 3502.5,-471 2474.5,-471"/>
<text text-anchor="start" x="2475.5" y="-475.8" font-family="Helvetica,sans-Serif" font-size="14.00"> &#160;&#160;&#160;&#160;&#160;&#160;&#160;&#160;&#160;&#160;&#160;&#160;&#160;&#160;&#160;&#160;&#160;&#160;&#160;&#160;&#160;&#160;&#160;&#160;&#160;&#160;&#160;openstudiolandscapes&#45;postgres&#45;dagster (condition: None) &#160;&#160;&#160;&#160;&#160;&#160;&#160;&#160;&#160;&#160;&#160;&#160;&#160;&#160;&#160;&#160;&#160;&#160;&#160;&#160;&#160;&#160;&#160;</text>
<polygon fill="none" stroke="#0a0a0a" points="2473.5,-470 2473.5,-489 3503.5,-489 3503.5,-470 2473.5,-470"/>
<polygon fill="none" stroke="#0a0a0a" points="2037.5,-431 2037.5,-469 2472.5,-469 2472.5,-431 2037.5,-431"/>
<text text-anchor="start" x="2233.5" y="-446.3" font-family="Helvetica,sans-Serif" font-size="14.00"> &#160;&#160;&#160;&#160;&#160;&#160;&#160;&#160;&#160;&#160;&#160;&#160;&#160;&#160;&#160;environment (2) &#160;&#160;&#160;&#160;&#160;&#160;&#160;&#160;&#160;&#160;&#160;</text>
<polygon fill="none" stroke="#0a0a0a" points="2472.5,-431 2472.5,-469 3504.5,-469 3504.5,-431 2472.5,-431"/>
<polygon fill="none" stroke="#0a0a0a" points="2474.5,-450 2474.5,-467 3502.5,-467 3502.5,-450 2474.5,-450"/>
<text text-anchor="start" x="2475.5" y="-454.8" font-family="Helvetica,sans-Serif" font-size="14.00"> &#160;&#160;&#160;&#160;&#160;&#160;&#160;&#160;&#160;&#160;&#160;&#160;&#160;&#160;&#160;&#160;&#160;&#160;&#160;&#160;&#160;&#160;&#160;&#160;&#160;&#160;&#160;DAGSTER_DEPLOYMENT=farm &#160;&#160;&#160;&#160;&#160;&#160;&#160;&#160;&#160;&#160;&#160;&#160;&#160;&#160;&#160;&#160;&#160;&#160;&#160;&#160;&#160;&#160;&#160;</text>
<polygon fill="none" stroke="#0a0a0a" points="2474.5,-433 2474.5,-450 3502.5,-450 3502.5,-433 2474.5,-433"/>
<text text-anchor="start" x="2475.5" y="-437.8" font-family="Helvetica,sans-Serif" font-size="14.00"> &#160;&#160;&#160;&#160;&#160;&#160;&#160;&#160;&#160;&#160;&#160;&#160;&#160;&#160;&#160;&#160;&#160;&#160;&#160;&#160;&#160;&#160;&#160;&#160;&#160;&#160;&#160;DAGSTER_HOME=/dagster/materializations &#160;&#160;&#160;&#160;&#160;&#160;&#160;&#160;&#160;&#160;&#160;&#160;&#160;&#160;&#160;&#160;&#160;&#160;&#160;&#160;&#160;&#160;&#160;</text>
<polygon fill="none" stroke="#0a0a0a" points="2473.5,-432 2473.5,-468 3503.5,-468 3503.5,-432 2473.5,-432"/>
<polygon fill="none" stroke="#0a0a0a" points="2037.5,-393 2037.5,-431 2472.5,-431 2472.5,-393 2037.5,-393"/>
<polygon fill="none" stroke="#0a0a0a" points="2039.5,-412 2039.5,-429 2470.5,-429 2470.5,-412 2039.5,-412"/>
<text text-anchor="start" x="2040.5" y="-416.8" font-family="Helvetica,sans-Serif" font-size="14.00"> &#160;&#160;&#160;&#160;&#160;&#160;&#160;&#160;&#160;&#160;&#160;&#160;&#160;&#160;&#160;&#160;&#160;&#160;&#160;&#160;&#160;&#160;&#160;&#160;&#160;&#160;&#160;/dagster/materializations:rw &#160;&#160;&#160;&#160;&#160;&#160;&#160;&#160;&#160;&#160;&#160;&#160;&#160;&#160;&#160;&#160;&#160;&#160;&#160;&#160;&#160;&#160;&#160;</text>
<polygon fill="none" stroke="#0a0a0a" points="2039.5,-395 2039.5,-412 2470.5,-412 2470.5,-395 2039.5,-395"/>
<text text-anchor="start" x="2040.5" y="-399.8" font-family="Helvetica,sans-Serif" font-size="14.00"> &#160;&#160;&#160;&#160;&#160;&#160;&#160;&#160;&#160;&#160;&#160;&#160;&#160;&#160;&#160;&#160;&#160;&#160;&#160;&#160;&#160;&#160;&#160;&#160;&#160;&#160;&#160;/dagster/workspace.yaml:ro &#160;&#160;&#160;&#160;&#160;&#160;&#160;&#160;&#160;&#160;&#160;&#160;&#160;&#160;&#160;&#160;&#160;&#160;&#160;&#160;&#160;&#160;&#160;</text>
<polygon fill="none" stroke="#0a0a0a" points="2038.5,-394 2038.5,-430 2471.5,-430 2471.5,-394 2038.5,-394"/>
<polygon fill="none" stroke="#0a0a0a" points="2472.5,-393 2472.5,-431 3504.5,-431 3504.5,-393 2472.5,-393"/>
<text text-anchor="start" x="2473.5" y="-408.3" font-family="Helvetica,sans-Serif" font-size="14.00"> &#160;&#160;&#160;&#160;&#160;&#160;&#160;&#160;&#160;&#160;&#160;&#160;&#160;&#160;&#160;volumes (2) &#160;&#160;&#160;&#160;&#160;&#160;&#160;&#160;&#160;&#160;&#160;</text>
<polygon fill="none" stroke="#0a0a0a" points="2037.5,-372 2037.5,-393 2472.5,-393 2472.5,-372 2037.5,-372"/>
<polygon fill="none" stroke="#0a0a0a" points="2039.5,-374 2039.5,-391 2470.5,-391 2470.5,-374 2039.5,-374"/>
<text text-anchor="start" x="2040.5" y="-378.8" font-family="Helvetica,sans-Serif" font-size="14.00"> &#160;&#160;&#160;&#160;&#160;&#160;&#160;&#160;&#160;&#160;&#160;&#160;&#160;&#160;&#160;&#160;&#160;&#160;&#160;&#160;&#160;&#160;&#160;&#160;&#160;&#160;&#160;3003 → 3006 &#160;&#160;&#160;&#160;&#160;&#160;&#160;&#160;&#160;&#160;&#160;&#160;&#160;&#160;&#160;&#160;&#160;&#160;&#160;&#160;&#160;&#160;&#160;</text>
<polygon fill="none" stroke="#0a0a0a" points="2038.5,-373 2038.5,-392 2471.5,-392 2471.5,-373 2038.5,-373"/>
<polygon fill="none" stroke="#0a0a0a" points="2472.5,-372 2472.5,-393 3504.5,-393 3504.5,-372 2472.5,-372"/>
<text text-anchor="start" x="2473.5" y="-378.8" font-family="Helvetica,sans-Serif" font-size="14.00"> &#160;&#160;&#160;&#160;&#160;&#160;&#160;&#160;&#160;&#160;&#160;&#160;&#160;&#160;&#160;ports (1) &#160;&#160;&#160;&#160;&#160;&#160;&#160;&#160;&#160;&#160;&#160;</text>
<polygon fill="none" stroke="#0a0a0a" points="2037.5,-300 2037.5,-372 2472.5,-372 2472.5,-300 2037.5,-300"/>
<polygon fill="none" stroke="#0a0a0a" points="2039.5,-353 2039.5,-370 2470.5,-370 2470.5,-353 2039.5,-353"/>
<text text-anchor="start" x="2040.5" y="-357.8" font-family="Helvetica,sans-Serif" font-size="14.00"> &#160;&#160;&#160;&#160;&#160;&#160;&#160;&#160;&#160;&#160;&#160;&#160;&#160;&#160;&#160;&#160;&#160;&#160;&#160;&#160;&#160;&#160;&#160;&#160;&#160;&#160;&#160;ayon &#160;&#160;&#160;&#160;&#160;&#160;&#160;&#160;&#160;&#160;&#160;&#160;&#160;&#160;&#160;&#160;&#160;&#160;&#160;&#160;&#160;&#160;&#160;</text>
<polygon fill="none" stroke="#0a0a0a" points="2039.5,-336 2039.5,-353 2470.5,-353 2470.5,-336 2039.5,-336"/>
<text text-anchor="start" x="2040.5" y="-340.8" font-family="Helvetica,sans-Serif" font-size="14.00"> &#160;&#160;&#160;&#160;&#160;&#160;&#160;&#160;&#160;&#160;&#160;&#160;&#160;&#160;&#160;&#160;&#160;&#160;&#160;&#160;&#160;&#160;&#160;&#160;&#160;&#160;&#160;dagster &#160;&#160;&#160;&#160;&#160;&#160;&#160;&#160;&#160;&#160;&#160;&#160;&#160;&#160;&#160;&#160;&#160;&#160;&#160;&#160;&#160;&#160;&#160;</text>
<polygon fill="none" stroke="#0a0a0a" points="2039.5,-319 2039.5,-336 2470.5,-336 2470.5,-319 2039.5,-319"/>
<text text-anchor="start" x="2040.5" y="-323.8" font-family="Helvetica,sans-Serif" font-size="14.00"> &#160;&#160;&#160;&#160;&#160;&#160;&#160;&#160;&#160;&#160;&#160;&#160;&#160;&#160;&#160;&#160;&#160;&#160;&#160;&#160;&#160;&#160;&#160;&#160;&#160;&#160;&#160;mongodb &#160;&#160;&#160;&#160;&#160;&#160;&#160;&#160;&#160;&#160;&#160;&#160;&#160;&#160;&#160;&#160;&#160;&#160;&#160;&#160;&#160;&#160;&#160;</text>
<polygon fill="none" stroke="#0a0a0a" points="2039.5,-302 2039.5,-319 2470.5,-319 2470.5,-302 2039.5,-302"/>
<text text-anchor="start" x="2040.5" y="-306.8" font-family="Helvetica,sans-Serif" font-size="14.00"> &#160;&#160;&#160;&#160;&#160;&#160;&#160;&#160;&#160;&#160;&#160;&#160;&#160;&#160;&#160;&#160;&#160;&#160;&#160;&#160;&#160;&#160;&#160;&#160;&#160;&#160;&#160;repository &#160;&#160;&#160;&#160;&#160;&#160;&#160;&#160;&#160;&#160;&#160;&#160;&#160;&#160;&#160;&#160;&#160;&#160;&#160;&#160;&#160;&#160;&#160;</text>
<polygon fill="none" stroke="#0a0a0a" points="2038.5,-301 2038.5,-371 2471.5,-371 2471.5,-301 2038.5,-301"/>
<polygon fill="none" stroke="#0a0a0a" points="2472.5,-300 2472.5,-372 3504.5,-372 3504.5,-300 2472.5,-300"/>
<text text-anchor="start" x="2473.5" y="-332.3" font-family="Helvetica,sans-Serif" font-size="14.00"> &#160;&#160;&#160;&#160;&#160;&#160;&#160;&#160;&#160;&#160;&#160;&#160;&#160;&#160;&#160;networks (4) &#160;&#160;&#160;&#160;&#160;&#160;&#160;&#160;&#160;&#160;&#160;</text>
<polygon fill="none" stroke="#0a0a0a" points="2036,-299 2036,-627 3505,-627 3505,-299 2036,-299"/>
</g>
<!-- NODE&#45;SERVICE_openstudiolandscapes&#45;postgres&#45;dagster -->
<g id="node2" class="node">
<title>NODE&#45;SERVICE_openstudiolandscapes&#45;postgres&#45;dagster</title>
<polygon fill="#a0a0a0" stroke="transparent" points="5524,-602.5 4225,-602.5 4225,-299.5 5524,-299.5 5524,-602.5"/>
<polygon fill="none" stroke="#0a0a0a" points="4226.5,-584 4226.5,-601 4702.5,-601 4702.5,-584 4226.5,-584"/>
<text text-anchor="start" x="4515.5" y="-588.8" font-family="Helvetica,sans-Serif" font-size="14.00"> &#160;&#160;&#160;&#160;&#160;&#160;&#160;&#160;&#160;&#160;&#160;service_name &#160;&#160;&#160;&#160;&#160;&#160;&#160;</text>
<polygon fill="none" stroke="#0a0a0a" points="4702.5,-584 4702.5,-601 5523.5,-601 5523.5,-584 4702.5,-584"/>
<text text-anchor="start" x="4703.5" y="-588.8" font-family="Helvetica,sans-Serif" font-size="14.00"> &#160;&#160;&#160;&#160;&#160;&#160;&#160;&#160;&#160;&#160;&#160;openstudiolandscapes&#45;postgres&#45;dagster &#160;&#160;&#160;&#160;&#160;&#160;&#160;</text>
<polygon fill="none" stroke="#0a0a0a" points="4226.5,-567 4226.5,-584 4702.5,-584 4702.5,-567 4226.5,-567"/>
<text text-anchor="start" x="4499.5" y="-571.8" font-family="Helvetica,sans-Serif" font-size="14.00"> &#160;&#160;&#160;&#160;&#160;&#160;&#160;&#160;&#160;&#160;&#160;container_name &#160;&#160;&#160;&#160;&#160;&#160;&#160;</text>
<polygon fill="none" stroke="#0a0a0a" points="4702.5,-567 4702.5,-584 5523.5,-584 5523.5,-567 4702.5,-567"/>
<text text-anchor="start" x="4703.5" y="-571.8" font-family="Helvetica,sans-Serif" font-size="14.00"> &#160;&#160;&#160;&#160;&#160;&#160;&#160;&#160;&#160;&#160;&#160;openstudiolandscapes&#45;postgres&#45;dagster&#45;&#45;2025&#45;07&#45;10&#45;22&#45;36&#45;50&#45;47cd6c0a7dd141429707ab6d91190a27 &#160;&#160;&#160;&#160;&#160;&#160;&#160;</text>
<polygon fill="none" stroke="#0a0a0a" points="4226.5,-550 4226.5,-567 4702.5,-567 4702.5,-550 4226.5,-550"/>
<text text-anchor="start" x="4541.5" y="-554.8" font-family="Helvetica,sans-Serif" font-size="14.00"> &#160;&#160;&#160;&#160;&#160;&#160;&#160;&#160;&#160;&#160;&#160;hostname &#160;&#160;&#160;&#160;&#160;&#160;&#160;</text>
<polygon fill="none" stroke="#0a0a0a" points="4702.5,-550 4702.5,-567 5523.5,-567 5523.5,-550 4702.5,-550"/>
<text text-anchor="start" x="4703.5" y="-554.8" font-family="Helvetica,sans-Serif" font-size="14.00"> &#160;&#160;&#160;&#160;&#160;&#160;&#160;&#160;&#160;&#160;&#160;openstudiolandscapes&#45;postgres&#45;dagster.farm.evil &#160;&#160;&#160;&#160;&#160;&#160;&#160;</text>
<polygon fill="none" stroke="#0a0a0a" points="4226.5,-533 4226.5,-550 4702.5,-550 4702.5,-533 4226.5,-533"/>
<text text-anchor="start" x="4520.5" y="-537.8" font-family="Helvetica,sans-Serif" font-size="14.00"> &#160;&#160;&#160;&#160;&#160;&#160;&#160;&#160;&#160;&#160;&#160;domainname &#160;&#160;&#160;&#160;&#160;&#160;&#160;</text>
<polygon fill="none" stroke="#0a0a0a" points="4702.5,-533 4702.5,-550 5523.5,-550 5523.5,-533 4702.5,-533"/>
<text text-anchor="start" x="4703.5" y="-537.8" font-family="Helvetica,sans-Serif" font-size="14.00"> &#160;&#160;&#160;&#160;&#160;&#160;&#160;&#160;&#160;&#160;&#160;farm.evil &#160;&#160;&#160;&#160;&#160;&#160;&#160;</text>
<polygon fill="none" stroke="#0a0a0a" points="4226.5,-516 4226.5,-533 4702.5,-533 4702.5,-516 4226.5,-516"/>
<text text-anchor="start" x="4565.5" y="-520.8" font-family="Helvetica,sans-Serif" font-size="14.00"> &#160;&#160;&#160;&#160;&#160;&#160;&#160;&#160;&#160;&#160;&#160;restart &#160;&#160;&#160;&#160;&#160;&#160;&#160;</text>
<polygon fill="none" stroke="#0a0a0a" points="4702.5,-516 4702.5,-533 5523.5,-533 5523.5,-516 4702.5,-516"/>
<text text-anchor="start" x="4703.5" y="-520.8" font-family="Helvetica,sans-Serif" font-size="14.00"> &#160;&#160;&#160;&#160;&#160;&#160;&#160;&#160;&#160;&#160;&#160;always &#160;&#160;&#160;&#160;&#160;&#160;&#160;</text>
<polygon fill="none" stroke="#0a0a0a" points="4226.5,-499 4226.5,-516 4702.5,-516 4702.5,-499 4226.5,-499"/>
<text text-anchor="start" x="4568.5" y="-503.8" font-family="Helvetica,sans-Serif" font-size="14.00"> &#160;&#160;&#160;&#160;&#160;&#160;&#160;&#160;&#160;&#160;&#160;image &#160;&#160;&#160;&#160;&#160;&#160;&#160;</text>
<polygon fill="none" stroke="#0a0a0a" points="4702.5,-499 4702.5,-516 5523.5,-516 5523.5,-499 4702.5,-499"/>
<text text-anchor="start" x="4703.5" y="-503.8" font-family="Helvetica,sans-Serif" font-size="14.00"> &#160;&#160;&#160;&#160;&#160;&#160;&#160;&#160;&#160;&#160;&#160;docker.io/postgres &#160;&#160;&#160;&#160;&#160;&#160;&#160;</text>
<polygon fill="none" stroke="#0a0a0a" points="4226.5,-482 4226.5,-499 4702.5,-499 4702.5,-482 4226.5,-482"/>
<text text-anchor="start" x="4422.5" y="-486.8" font-family="Helvetica,sans-Serif" font-size="14.00"> &#160;&#160;&#160;&#160;&#160;&#160;&#160;&#160;&#160;&#160;&#160;command (ENTRYPOINT +) &#160;&#160;&#160;&#160;&#160;&#160;&#160;</text>
<polygon fill="none" stroke="#0a0a0a" points="4702.5,-482 4702.5,-499 5523.5,-499 5523.5,-482 4702.5,-482"/>
<text text-anchor="start" x="4703.5" y="-486.8" font-family="Helvetica,sans-Serif" font-size="14.00"> &#160;&#160;&#160;&#160;&#160;&#160;&#160;&#160;&#160;&#160;&#160;&#45; &#160;&#160;&#160;&#160;&#160;&#160;&#160;</text>
<polygon fill="none" stroke="#0a0a0a" points="4226.5,-465 4226.5,-482 4702.5,-482 4702.5,-465 4226.5,-465"/>
<text text-anchor="start" x="4490.5" y="-469.8" font-family="Helvetica,sans-Serif" font-size="14.00"> &#160;&#160;&#160;&#160;&#160;&#160;&#160;&#160;&#160;&#160;&#160;&#160;&#160;&#160;&#160;healthcheck &#160;&#160;&#160;&#160;&#160;&#160;&#160;&#160;&#160;&#160;&#160;</text>
<polygon fill="none" stroke="#0a0a0a" points="4702.5,-465 4702.5,-482 5523.5,-482 5523.5,-465 4702.5,-465"/>
<text text-anchor="start" x="4703.5" y="-469.8" font-family="Helvetica,sans-Serif" font-size="14.00"> &#160;&#160;&#160;&#160;&#160;&#160;&#160;&#160;&#160;&#160;&#160;&#160;&#160;&#160;&#160;CMD&#45;SHELL &#39;pg_isready &#45;&#45;username postgres &#45;&#45;dbname postgres &#45;&#45;port 5432&#39; &#160;&#160;&#160;&#160;&#160;&#160;&#160;&#160;&#160;&#160;&#160;</text>
<polygon fill="none" stroke="#0a0a0a" points="4226.5,-393 4226.5,-465 4702.5,-465 4702.5,-393 4226.5,-393"/>
<text text-anchor="start" x="4463.5" y="-425.3" font-family="Helvetica,sans-Serif" font-size="14.00"> &#160;&#160;&#160;&#160;&#160;&#160;&#160;&#160;&#160;&#160;&#160;&#160;&#160;&#160;&#160;environment (4) &#160;&#160;&#160;&#160;&#160;&#160;&#160;&#160;&#160;&#160;&#160;</text>
<polygon fill="none" stroke="#0a0a0a" points="4702.5,-393 4702.5,-465 5523.5,-465 5523.5,-393 4702.5,-393"/>
<polygon fill="none" stroke="#0a0a0a" points="4704.5,-446 4704.5,-463 5521.5,-463 5521.5,-446 4704.5,-446"/>
<text text-anchor="start" x="4705.5" y="-450.8" font-family="Helvetica,sans-Serif" font-size="14.00"> &#160;&#160;&#160;&#160;&#160;&#160;&#160;&#160;&#160;&#160;&#160;&#160;&#160;&#160;&#160;&#160;&#160;&#160;&#160;&#160;&#160;&#160;&#160;&#160;&#160;&#160;&#160;PGDATA=/var/lib/postgresql/data/pgdata &#160;&#160;&#160;&#160;&#160;&#160;&#160;&#160;&#160;&#160;&#160;&#160;&#160;&#160;&#160;&#160;&#160;&#160;&#160;&#160;&#160;&#160;&#160;</text>
<polygon fill="none" stroke="#0a0a0a" points="4704.5,-429 4704.5,-446 5521.5,-446 5521.5,-429 4704.5,-429"/>
<text text-anchor="start" x="4705.5" y="-433.8" font-family="Helvetica,sans-Serif" font-size="14.00"> &#160;&#160;&#160;&#160;&#160;&#160;&#160;&#160;&#160;&#160;&#160;&#160;&#160;&#160;&#160;&#160;&#160;&#160;&#160;&#160;&#160;&#160;&#160;&#160;&#160;&#160;&#160;POSTGRES_DB=postgres &#160;&#160;&#160;&#160;&#160;&#160;&#160;&#160;&#160;&#160;&#160;&#160;&#160;&#160;&#160;&#160;&#160;&#160;&#160;&#160;&#160;&#160;&#160;</text>
<polygon fill="none" stroke="#0a0a0a" points="4704.5,-412 4704.5,-429 5521.5,-429 5521.5,-412 4704.5,-412"/>
<text text-anchor="start" x="4705.5" y="-416.8" font-family="Helvetica,sans-Serif" font-size="14.00"> &#160;&#160;&#160;&#160;&#160;&#160;&#160;&#160;&#160;&#160;&#160;&#160;&#160;&#160;&#160;&#160;&#160;&#160;&#160;&#160;&#160;&#160;&#160;&#160;&#160;&#160;&#160;POSTGRES_PASSWORD=mysecretpassword &#160;&#160;&#160;&#160;&#160;&#160;&#160;&#160;&#160;&#160;&#160;&#160;&#160;&#160;&#160;&#160;&#160;&#160;&#160;&#160;&#160;&#160;&#160;</text>
<polygon fill="none" stroke="#0a0a0a" points="4704.5,-395 4704.5,-412 5521.5,-412 5521.5,-395 4704.5,-395"/>
<text text-anchor="start" x="4705.5" y="-399.8" font-family="Helvetica,sans-Serif" font-size="14.00"> &#160;&#160;&#160;&#160;&#160;&#160;&#160;&#160;&#160;&#160;&#160;&#160;&#160;&#160;&#160;&#160;&#160;&#160;&#160;&#160;&#160;&#160;&#160;&#160;&#160;&#160;&#160;POSTGRES_USER=postgres &#160;&#160;&#160;&#160;&#160;&#160;&#160;&#160;&#160;&#160;&#160;&#160;&#160;&#160;&#160;&#160;&#160;&#160;&#160;&#160;&#160;&#160;&#160;</text>
<polygon fill="none" stroke="#0a0a0a" points="4703.5,-394 4703.5,-464 5522.5,-464 5522.5,-394 4703.5,-394"/>
<polygon fill="none" stroke="#0a0a0a" points="4226.5,-372 4226.5,-393 4702.5,-393 4702.5,-372 4226.5,-372"/>
<polygon fill="none" stroke="#0a0a0a" points="4228.5,-374 4228.5,-391 4700.5,-391 4700.5,-374 4228.5,-374"/>
<text text-anchor="start" x="4229.5" y="-378.8" font-family="Helvetica,sans-Serif" font-size="14.00"> &#160;&#160;&#160;&#160;&#160;&#160;&#160;&#160;&#160;&#160;&#160;&#160;&#160;&#160;&#160;&#160;&#160;&#160;&#160;&#160;&#160;&#160;&#160;&#160;&#160;&#160;&#160;/var/lib/postgresql/data/pgdata:rw &#160;&#160;&#160;&#160;&#160;&#160;&#160;&#160;&#160;&#160;&#160;&#160;&#160;&#160;&#160;&#160;&#160;&#160;&#160;&#160;&#160;&#160;&#160;</text>
<polygon fill="none" stroke="#0a0a0a" points="4227.5,-373 4227.5,-392 4701.5,-392 4701.5,-373 4227.5,-373"/>
<polygon fill="none" stroke="#0a0a0a" points="4702.5,-372 4702.5,-393 5523.5,-393 5523.5,-372 4702.5,-372"/>
<text text-anchor="start" x="4703.5" y="-378.8" font-family="Helvetica,sans-Serif" font-size="14.00"> &#160;&#160;&#160;&#160;&#160;&#160;&#160;&#160;&#160;&#160;&#160;&#160;&#160;&#160;&#160;volumes (1) &#160;&#160;&#160;&#160;&#160;&#160;&#160;&#160;&#160;&#160;&#160;</text>
<polygon fill="none" stroke="#0a0a0a" points="4226.5,-300 4226.5,-372 4702.5,-372 4702.5,-300 4226.5,-300"/>
<polygon fill="none" stroke="#0a0a0a" points="4228.5,-353 4228.5,-370 4700.5,-370 4700.5,-353 4228.5,-353"/>
<text text-anchor="start" x="4229.5" y="-357.8" font-family="Helvetica,sans-Serif" font-size="14.00"> &#160;&#160;&#160;&#160;&#160;&#160;&#160;&#160;&#160;&#160;&#160;&#160;&#160;&#160;&#160;&#160;&#160;&#160;&#160;&#160;&#160;&#160;&#160;&#160;&#160;&#160;&#160;ayon &#160;&#160;&#160;&#160;&#160;&#160;&#160;&#160;&#160;&#160;&#160;&#160;&#160;&#160;&#160;&#160;&#160;&#160;&#160;&#160;&#160;&#160;&#160;</text>
<polygon fill="none" stroke="#0a0a0a" points="4228.5,-336 4228.5,-353 4700.5,-353 4700.5,-336 4228.5,-336"/>
<text text-anchor="start" x="4229.5" y="-340.8" font-family="Helvetica,sans-Serif" font-size="14.00"> &#160;&#160;&#160;&#160;&#160;&#160;&#160;&#160;&#160;&#160;&#160;&#160;&#160;&#160;&#160;&#160;&#160;&#160;&#160;&#160;&#160;&#160;&#160;&#160;&#160;&#160;&#160;dagster &#160;&#160;&#160;&#160;&#160;&#160;&#160;&#160;&#160;&#160;&#160;&#160;&#160;&#160;&#160;&#160;&#160;&#160;&#160;&#160;&#160;&#160;&#160;</text>
<polygon fill="none" stroke="#0a0a0a" points="4228.5,-319 4228.5,-336 4700.5,-336 4700.5,-319 4228.5,-319"/>
<text text-anchor="start" x="4229.5" y="-323.8" font-family="Helvetica,sans-Serif" font-size="14.00"> &#160;&#160;&#160;&#160;&#160;&#160;&#160;&#160;&#160;&#160;&#160;&#160;&#160;&#160;&#160;&#160;&#160;&#160;&#160;&#160;&#160;&#160;&#160;&#160;&#160;&#160;&#160;mongodb &#160;&#160;&#160;&#160;&#160;&#160;&#160;&#160;&#160;&#160;&#160;&#160;&#160;&#160;&#160;&#160;&#160;&#160;&#160;&#160;&#160;&#160;&#160;</text>
<polygon fill="none" stroke="#0a0a0a" points="4228.5,-302 4228.5,-319 4700.5,-319 4700.5,-302 4228.5,-302"/>
<text text-anchor="start" x="4229.5" y="-306.8" font-family="Helvetica,sans-Serif" font-size="14.00"> &#160;&#160;&#160;&#160;&#160;&#160;&#160;&#160;&#160;&#160;&#160;&#160;&#160;&#160;&#160;&#160;&#160;&#160;&#160;&#160;&#160;&#160;&#160;&#160;&#160;&#160;&#160;repository &#160;&#160;&#160;&#160;&#160;&#160;&#160;&#160;&#160;&#160;&#160;&#160;&#160;&#160;&#160;&#160;&#160;&#160;&#160;&#160;&#160;&#160;&#160;</text>
<polygon fill="none" stroke="#0a0a0a" points="4227.5,-301 4227.5,-371 4701.5,-371 4701.5,-301 4227.5,-301"/>
<polygon fill="none" stroke="#0a0a0a" points="4702.5,-300 4702.5,-372 5523.5,-372 5523.5,-300 4702.5,-300"/>
<text text-anchor="start" x="4703.5" y="-332.3" font-family="Helvetica,sans-Serif" font-size="14.00"> &#160;&#160;&#160;&#160;&#160;&#160;&#160;&#160;&#160;&#160;&#160;&#160;&#160;&#160;&#160;networks (4) &#160;&#160;&#160;&#160;&#160;&#160;&#160;&#160;&#160;&#160;&#160;</text>
<polygon fill="none" stroke="#0a0a0a" points="4225,-299.5 4225,-602.5 5524,-602.5 5524,-299.5 4225,-299.5"/>
</g>
<!-- NODE&#45;SERVICE_dagster&#45;&gt;NODE&#45;SERVICE_openstudiolandscapes&#45;postgres&#45;dagster -->
<g id="edge1" class="edge">
<title>NODE&#45;SERVICE_dagster:e&#45;&gt;NODE&#45;SERVICE_openstudiolandscapes&#45;postgres&#45;dagster:w</title>
<path fill="none" stroke="yellow" stroke-width="2" d="M3513.43,-481.55C3594.39,-494.23 4144.82,-580.37 4217.57,-591.76"/>
<polygon fill="yellow" stroke="yellow" stroke-width="2" points="3504.04,-476.54 3513.38,-481.55 3502.96,-483.46 3504.04,-476.54"/>
<ellipse fill="yellow" stroke="yellow" stroke-width="2" cx="4221.55" cy="-592.38" rx="4" ry="4"/>
</g>
<!-- dagster__3003__3006 -->
<g id="node3" class="node">
<title>dagster__3003__3006</title>
<ellipse fill="#ffffff" stroke="black" cx="670" cy="-595" rx="34.39" ry="34.39"/>
<text text-anchor="middle" x="670" y="-591.3" font-family="Helvetica,sans-Serif" font-size="14.00">3003</text>
</g>
<!-- dagster__3003__3006&#45;&gt;NODE&#45;SERVICE_dagster -->
<g id="edge2" class="edge">
<title>dagster__3003__3006:e&#45;&gt;NODE&#45;SERVICE_dagster:w</title>
<path fill="none" stroke="#ffffff" d="M714.16,-593.7C820.18,-576.75 1924.94,-400.15 2030.42,-383.29"/>
<ellipse fill="#ffffff" stroke="#ffffff" cx="709.95" cy="-594.37" rx="4" ry="4"/>
<ellipse fill="#ffffff" stroke="#ffffff" cx="2034.55" cy="-382.63" rx="4" ry="4"/>
</g>
<!-- ./2025&#45;07&#45;10&#45;22&#45;36&#45;50&#45;47cd6c0a7dd141429707ab6d91190a27/Dagster__Dagster/Dagster__dagster_yaml/materializations -->
<g id="node4" class="node">
<title>./2025&#45;07&#45;10&#45;22&#45;36&#45;50&#45;47cd6c0a7dd141429707ab6d91190a27/Dagster__Dagster/Dagster__dagster_yaml/materializations</title>
<path fill="#00ffff" stroke="black" d="M1292.5,-485C1292.5,-485 47.5,-485 47.5,-485 41.5,-485 35.5,-479 35.5,-473 35.5,-473 35.5,-461 35.5,-461 35.5,-455 41.5,-449 47.5,-449 47.5,-449 1292.5,-449 1292.5,-449 1298.5,-449 1304.5,-455 1304.5,-461 1304.5,-461 1304.5,-473 1304.5,-473 1304.5,-479 1298.5,-485 1292.5,-485"/>
<text text-anchor="middle" x="670" y="-463.3" font-family="Helvetica,sans-Serif" font-size="14.00">./2025&#45;07&#45;10&#45;22&#45;36&#45;50&#45;47cd6c0a7dd141429707ab6d91190a27/Dagster__Dagster/Dagster__dagster_yaml/materializations</text>
</g>
<!-- ./2025&#45;07&#45;10&#45;22&#45;36&#45;50&#45;47cd6c0a7dd141429707ab6d91190a27/Dagster__Dagster/Dagster__dagster_yaml/materializations&#45;&gt;NODE&#45;SERVICE_dagster -->
<g id="edge3" class="edge">
<title>./2025&#45;07&#45;10&#45;22&#45;36&#45;50&#45;47cd6c0a7dd141429707ab6d91190a27/Dagster__Dagster/Dagster__dagster_yaml/materializations:e&#45;&gt;NODE&#45;SERVICE_dagster:w</title>
<path fill="none" stroke="#00ffff" stroke-dasharray="5,2" d="M1314.23,-466.47C1389.36,-461.65 1955.48,-425.33 2030.34,-420.52"/>
<ellipse fill="#00ffff" stroke="#00ffff" cx="1309.99" cy="-466.74" rx="4" ry="4"/>
<ellipse fill="#00ffff" stroke="#00ffff" cx="2034.51" cy="-420.26" rx="4" ry="4"/>
</g>
<!-- ./2025&#45;07&#45;10&#45;22&#45;36&#45;50&#45;47cd6c0a7dd141429707ab6d91190a27/Dagster__Dagster/Dagster__workspace_yaml/workspace.yaml -->
<g id="node5" class="node">
<title>./2025&#45;07&#45;10&#45;22&#45;36&#45;50&#45;47cd6c0a7dd141429707ab6d91190a27/Dagster__Dagster/Dagster__workspace_yaml/workspace.yaml</title>
<path fill="#00ffff" stroke="black" d="M1304,-427C1304,-427 36,-427 36,-427 30,-427 24,-421 24,-415 24,-415 24,-403 24,-403 24,-397 30,-391 36,-391 36,-391 1304,-391 1304,-391 1310,-391 1316,-397 1316,-403 1316,-403 1316,-415 1316,-415 1316,-421 1310,-427 1304,-427"/>
<text text-anchor="middle" x="670" y="-405.3" font-family="Helvetica,sans-Serif" font-size="14.00">./2025&#45;07&#45;10&#45;22&#45;36&#45;50&#45;47cd6c0a7dd141429707ab6d91190a27/Dagster__Dagster/Dagster__workspace_yaml/workspace.yaml</text>
</g>
<!-- ./2025&#45;07&#45;10&#45;22&#45;36&#45;50&#45;47cd6c0a7dd141429707ab6d91190a27/Dagster__Dagster/Dagster__workspace_yaml/workspace.yaml&#45;&gt;NODE&#45;SERVICE_dagster -->
<g id="edge4" class="edge">
<title>./2025&#45;07&#45;10&#45;22&#45;36&#45;50&#45;47cd6c0a7dd141429707ab6d91190a27/Dagster__Dagster/Dagster__workspace_yaml/workspace.yaml:e&#45;&gt;NODE&#45;SERVICE_dagster:w</title>
<path fill="none" stroke="#00ffff" stroke-dasharray="5,2" d="M1325.1,-408.93C1399.11,-408.32 1956.73,-403.68 2030.46,-403.07"/>
<ellipse fill="#00ffff" stroke="#00ffff" cx="1321" cy="-408.97" rx="4" ry="4"/>
<ellipse fill="#00ffff" stroke="#00ffff" cx="2034.5" cy="-403.03" rx="4" ry="4"/>
</g>
<!-- ./.dagster/postgres -->
<g id="node6" class="node">
<title>./.dagster/postgres</title>
<path fill="#00ffff" stroke="black" d="M929,-369C929,-369 411,-369 411,-369 405,-369 399,-363 399,-357 399,-357 399,-345 399,-345 399,-339 405,-333 411,-333 411,-333 929,-333 929,-333 935,-333 941,-339 941,-345 941,-345 941,-357 941,-357 941,-363 935,-369 929,-369"/>
<text text-anchor="middle" x="670" y="-347.3" font-family="Helvetica,sans-Serif" font-size="14.00">./.dagster/postgres</text>
</g>
<!-- ./.dagster/postgres&#45;&gt;NODE&#45;SERVICE_openstudiolandscapes&#45;postgres&#45;dagster -->
<g id="edge5" class="edge">
<title>./.dagster/postgres:e&#45;&gt;NODE&#45;SERVICE_openstudiolandscapes&#45;postgres&#45;dagster:w</title>
<path fill="none" stroke="#00ffff" d="M949.03,-351.08C1122.37,-352.71 4046.38,-380.28 4220.41,-381.92"/>
<ellipse fill="#00ffff" stroke="#00ffff" cx="945" cy="-351.04" rx="4" ry="4"/>
<ellipse fill="#00ffff" stroke="#00ffff" cx="4224.5" cy="-381.96" rx="4" ry="4"/>
</g>
<!-- ayon -->
<g id="node7" class="node">
<title>ayon</title>
<path fill="#ffa500" stroke="black" d="M685,-257C685,-257 655,-257 655,-257 649,-257 643,-251 643,-245 643,-245 643,-233 643,-233 643,-227 649,-221 655,-221 655,-221 685,-221 685,-221 691,-221 697,-227 697,-233 697,-233 697,-245 697,-245 697,-251 691,-257 685,-257"/>
<text text-anchor="middle" x="670" y="-235.3" font-family="Helvetica,sans-Serif" font-size="14.00">ayon</text>
</g>
<!-- ayon&#45;&gt;NODE&#45;SERVICE_dagster -->
<g id="edge6" class="edge">
<title>ayon:e&#45;&gt;NODE&#45;SERVICE_dagster:w</title>
<path fill="none" stroke="#ffa500" d="M706.21,-239.75C812.87,-249.45 1924.25,-350.6 2030.37,-360.26"/>
<ellipse fill="#ffa500" stroke="#ffa500" cx="701.98" cy="-239.36" rx="4" ry="4"/>
<ellipse fill="#ffa500" stroke="#ffa500" cx="2034.52" cy="-360.64" rx="4" ry="4"/>
</g>
<!-- ayon&#45;&gt;NODE&#45;SERVICE_openstudiolandscapes&#45;postgres&#45;dagster -->
<g id="edge10" class="edge">
<title>ayon:e&#45;&gt;NODE&#45;SERVICE_openstudiolandscapes&#45;postgres&#45;dagster:w</title>
<path fill="none" stroke="#ffa500" d="M705.05,-239.28C885.49,-245.51 4038.81,-354.45 4220.35,-360.72"/>
<ellipse fill="#ffa500" stroke="#ffa500" cx="701" cy="-239.14" rx="4" ry="4"/>
<ellipse fill="#ffa500" stroke="#ffa500" cx="4224.5" cy="-360.86" rx="4" ry="4"/>
</g>
<!-- dagster -->
<g id="node8" class="node">
<title>dagster</title>
<path fill="#ffa500" stroke="black" d="M693,-199C693,-199 647,-199 647,-199 641,-199 635,-193 635,-187 635,-187 635,-175 635,-175 635,-169 641,-163 647,-163 647,-163 693,-163 693,-163 699,-163 705,-169 705,-175 705,-175 705,-187 705,-187 705,-193 699,-199 693,-199"/>
<text text-anchor="middle" x="670" y="-177.3" font-family="Helvetica,sans-Serif" font-size="14.00">dagster</text>
</g>
<!-- dagster&#45;&gt;NODE&#45;SERVICE_dagster -->
<g id="edge7" class="edge">
<title>dagster:e&#45;&gt;NODE&#45;SERVICE_dagster:w</title>
<path fill="none" stroke="#ffa500" d="M714.16,-182C820.18,-194.97 1924.94,-330.11 2030.42,-343.01"/>
<ellipse fill="#ffa500" stroke="#ffa500" cx="709.97" cy="-181.49" rx="4" ry="4"/>
<ellipse fill="#ffa500" stroke="#ffa500" cx="2034.53" cy="-343.51" rx="4" ry="4"/>
</g>
<!-- dagster&#45;&gt;NODE&#45;SERVICE_openstudiolandscapes&#45;postgres&#45;dagster -->
<g id="edge11" class="edge">
<title>dagster:e&#45;&gt;NODE&#45;SERVICE_openstudiolandscapes&#45;postgres&#45;dagster:w</title>
<path fill="none" stroke="#ffa500" d="M713.04,-181.37C893.06,-189.7 4039.24,-335.24 4220.36,-343.62"/>
<ellipse fill="#ffa500" stroke="#ffa500" cx="709" cy="-181.18" rx="4" ry="4"/>
<ellipse fill="#ffa500" stroke="#ffa500" cx="4224.5" cy="-343.82" rx="4" ry="4"/>
</g>
<!-- mongodb -->
<g id="node9" class="node">
<title>mongodb</title>
<path fill="#ffa500" stroke="black" d="M699.5,-141C699.5,-141 640.5,-141 640.5,-141 634.5,-141 628.5,-135 628.5,-129 628.5,-129 628.5,-117 628.5,-117 628.5,-111 634.5,-105 640.5,-105 640.5,-105 699.5,-105 699.5,-105 705.5,-105 711.5,-111 711.5,-117 711.5,-117 711.5,-129 711.5,-129 711.5,-135 705.5,-141 699.5,-141"/>
<text text-anchor="middle" x="670" y="-119.3" font-family="Helvetica,sans-Serif" font-size="14.00">mongodb</text>
</g>
<!-- mongodb&#45;&gt;NODE&#45;SERVICE_dagster -->
<g id="edge8" class="edge">
<title>mongodb:e&#45;&gt;NODE&#45;SERVICE_dagster:w</title>
<path fill="none" stroke="#ffa500" d="M721.12,-124.25C826.58,-140.48 1925.53,-309.61 2030.46,-325.76"/>
<ellipse fill="#ffa500" stroke="#ffa500" cx="716.95" cy="-123.61" rx="4" ry="4"/>
<ellipse fill="#ffa500" stroke="#ffa500" cx="2034.55" cy="-326.39" rx="4" ry="4"/>
</g>
<!-- mongodb&#45;&gt;NODE&#45;SERVICE_openstudiolandscapes&#45;postgres&#45;dagster -->
<g id="edge12" class="edge">
<title>mongodb:e&#45;&gt;NODE&#45;SERVICE_openstudiolandscapes&#45;postgres&#45;dagster:w</title>
<path fill="none" stroke="#ffa500" d="M720.02,-123.47C899.69,-133.89 4039.62,-316.04 4220.38,-326.53"/>
<ellipse fill="#ffa500" stroke="#ffa500" cx="715.99" cy="-123.23" rx="4" ry="4"/>
<ellipse fill="#ffa500" stroke="#ffa500" cx="4224.51" cy="-326.77" rx="4" ry="4"/>
</g>
<!-- repository -->
<g id="node10" class="node">
<title>repository</title>
<path fill="#ffa500" stroke="black" d="M701,-83C701,-83 639,-83 639,-83 633,-83 627,-77 627,-71 627,-71 627,-59 627,-59 627,-53 633,-47 639,-47 639,-47 701,-47 701,-47 707,-47 713,-53 713,-59 713,-59 713,-71 713,-71 713,-77 707,-83 701,-83"/>
<text text-anchor="middle" x="670" y="-61.3" font-family="Helvetica,sans-Serif" font-size="14.00">repository</text>
</g>
<!-- repository&#45;&gt;NODE&#45;SERVICE_dagster -->
<g id="edge9" class="edge">
<title>repository:e&#45;&gt;NODE&#45;SERVICE_dagster:w</title>
<path fill="none" stroke="#ffa500" d="M722.11,-66.5C827.5,-85.99 1925.62,-289.12 2030.47,-308.51"/>
<ellipse fill="#ffa500" stroke="#ffa500" cx="717.93" cy="-65.73" rx="4" ry="4"/>
<ellipse fill="#ffa500" stroke="#ffa500" cx="2034.57" cy="-309.27" rx="4" ry="4"/>
</g>
<!-- repository&#45;&gt;NODE&#45;SERVICE_openstudiolandscapes&#45;postgres&#45;dagster -->
<g id="edge13" class="edge">
<title>repository:e&#45;&gt;NODE&#45;SERVICE_openstudiolandscapes&#45;postgres&#45;dagster:w</title>
<path fill="none" stroke="#ffa500" d="M721.02,-65.56C900.64,-78.08 4039.67,-296.84 4220.38,-309.43"/>
<ellipse fill="#ffa500" stroke="#ffa500" cx="716.99" cy="-65.28" rx="4" ry="4"/>
<ellipse fill="#ffa500" stroke="#ffa500" cx="4224.51" cy="-309.72" rx="4" ry="4"/>
</g>
</g>
</svg>
