<?xml version="1.0" encoding="UTF-8" standalone="no"?>
<!DOCTYPE svg PUBLIC "-//W3C//DTD SVG 1.1//EN"
 "http://www.w3.org/Graphics/SVG/1.1/DTD/svg11.dtd">
<!-- Generated by graphviz version 2.43.0 (0)
 -->
<!-- Title: main_graph Pages: 1 -->
<svg width="5763pt" height="874pt"
 viewBox="0.00 0.00 5763.00 874.00" xmlns="http://www.w3.org/2000/svg" xmlns:xlink="http://www.w3.org/1999/xlink">
<g id="graph0" class="graph" transform="scale(1 1) rotate(0) translate(108 766)">
<title>main_graph</title>
<polygon fill="#2f2f2f" stroke="transparent" points="-108,108 -108,-766 5655,-766 5655,108 -108,108"/>
<text text-anchor="middle" x="2773.5" y="-7.8" font-family="Helvetica,sans-Serif" font-size="14.00">/home/user/git/repos/OpenStudioLandscapes/.landscapes/2025&#45;07&#45;10&#45;22&#45;36&#45;50&#45;47cd6c0a7dd141429707ab6d91190a27/Kitsu__Kitsu/Kitsu__DOCKER_COMPOSE/docker_compose/docker&#45;compose.yml</text>
<g id="clust1" class="cluster">
<title>cluster_cluster_root_services_2025&#45;07&#45;10&#45;22&#45;36&#45;50&#45;47cd6c0a7dd141429707ab6d91190a27&#45;default</title>
<path fill="#ff00ff" fill-opacity="0.062745" stroke="#ff00ff" d="M1979,-170C1979,-170 5527,-170 5527,-170 5533,-170 5539,-176 5539,-182 5539,-182 5539,-638 5539,-638 5539,-644 5533,-650 5527,-650 5527,-650 1979,-650 1979,-650 1973,-650 1967,-644 1967,-638 1967,-638 1967,-182 1967,-182 1967,-176 1973,-170 1979,-170"/>
<text text-anchor="middle" x="3753" y="-614" font-family="Helvetica,sans-Serif" font-size="40.00" fill="#ff00ff">Compose Services (2025&#45;07&#45;10&#45;22&#45;36&#45;50&#45;47cd6c0a7dd141429707ab6d91190a27&#45;default)</text>
</g>
<g id="clust2" class="cluster">
<title>cluster_cluster_service_kitsu</title>
<path fill="#00ffff" fill-opacity="0.062745" stroke="white" d="M1987,-178C1987,-178 3397,-178 3397,-178 3403,-178 3409,-184 3409,-190 3409,-190 3409,-578 3409,-578 3409,-584 3403,-590 3397,-590 3397,-590 1987,-590 1987,-590 1981,-590 1975,-584 1975,-578 1975,-578 1975,-190 1975,-190 1975,-184 1981,-178 1987,-178"/>
<text text-anchor="middle" x="2692" y="-554" font-family="Helvetica,sans-Serif" font-size="40.00" fill="white">kitsu</text>
</g>
<g id="clust3" class="cluster">
<title>cluster_cluster_service_kitsu&#45;init&#45;db</title>
<path fill="#00ffff" fill-opacity="0.062745" stroke="white" d="M4125,-178C4125,-178 5519,-178 5519,-178 5525,-178 5531,-184 5531,-190 5531,-190 5531,-465 5531,-465 5531,-471 5525,-477 5519,-477 5519,-477 4125,-477 4125,-477 4119,-477 4113,-471 4113,-465 4113,-465 4113,-190 4113,-190 4113,-184 4119,-178 4125,-178"/>
<text text-anchor="middle" x="4822" y="-441" font-family="Helvetica,sans-Serif" font-size="40.00" fill="white">kitsu&#45;init&#45;db</text>
</g>
<g id="clust4" class="cluster">
<title>cluster_cluster_host</title>
<path fill="#000000" fill-opacity="0.062745" stroke="#000000" d="M20,-31C20,-31 1267,-31 1267,-31 1273,-31 1279,-37 1279,-43 1279,-43 1279,-563 1279,-563 1279,-569 1273,-575 1267,-575 1267,-575 20,-575 20,-575 14,-575 8,-569 8,-563 8,-563 8,-43 8,-43 8,-37 14,-31 20,-31"/>
<text text-anchor="middle" x="643.5" y="-539" font-family="Helvetica,sans-Serif" font-size="40.00" fill="#000000">Host</text>
</g>
<g id="clust5" class="cluster">
<title>cluster_cluster_root_ports</title>
<path fill="#ffffff" fill-opacity="0.062745" stroke="#ffffff" d="M505.05,-379C505.05,-379 781.95,-379 781.95,-379 787.95,-379 793.95,-385 793.95,-391 793.95,-391 793.95,-503 793.95,-503 793.95,-509 787.95,-515 781.95,-515 781.95,-515 505.05,-515 505.05,-515 499.05,-515 493.05,-509 493.05,-503 493.05,-503 493.05,-391 493.05,-391 493.05,-385 499.05,-379 505.05,-379"/>
<text text-anchor="middle" x="643.5" y="-479" font-family="Helvetica,sans-Serif" font-size="40.00" fill="#ffffff">Exposed Ports</text>
</g>
<g id="clust6" class="cluster">
<title>cluster_cluster_root_volumes</title>
<path fill="#00ffff" fill-opacity="0.062745" stroke="#00ffff" d="M28,-151C28,-151 1259,-151 1259,-151 1265,-151 1271,-157 1271,-163 1271,-163 1271,-359 1271,-359 1271,-365 1265,-371 1259,-371 1259,-371 28,-371 28,-371 22,-371 16,-365 16,-359 16,-359 16,-163 16,-163 16,-157 22,-151 28,-151"/>
<text text-anchor="middle" x="643.5" y="-335" font-family="Helvetica,sans-Serif" font-size="40.00" fill="#00ffff">Mounted Volumes</text>
</g>
<g id="clust7" class="cluster">
<title>cluster_cluster_root_networks</title>
<path fill="#ffa500" fill-opacity="0.062745" stroke="#ffa500" d="M552.5,-39C552.5,-39 734.5,-39 734.5,-39 740.5,-39 746.5,-45 746.5,-51 746.5,-51 746.5,-131 746.5,-131 746.5,-137 740.5,-143 734.5,-143 734.5,-143 552.5,-143 552.5,-143 546.5,-143 540.5,-137 540.5,-131 540.5,-131 540.5,-51 540.5,-51 540.5,-45 546.5,-39 552.5,-39"/>
<text text-anchor="middle" x="643.5" y="-107" font-family="Helvetica,sans-Serif" font-size="40.00" fill="#ffa500">Networks</text>
</g>
<!-- NODE&#45;SERVICE_kitsu -->
<g id="node1" class="node">
<title>NODE&#45;SERVICE_kitsu</title>
<polygon fill="#a0a0a0" stroke="transparent" points="3401,-530.5 1983,-530.5 1983,-185.5 3401,-185.5 3401,-530.5"/>
<polygon fill="none" stroke="#0a0a0a" points="1984,-512 1984,-529 2388,-529 2388,-512 1984,-512"/>
<text text-anchor="start" x="2201" y="-516.8" font-family="Helvetica,sans-Serif" font-size="14.00"> &#160;&#160;&#160;&#160;&#160;&#160;&#160;&#160;&#160;&#160;&#160;service_name &#160;&#160;&#160;&#160;&#160;&#160;&#160;</text>
<polygon fill="none" stroke="#0a0a0a" points="2388,-512 2388,-529 3400,-529 3400,-512 2388,-512"/>
<text text-anchor="start" x="2389" y="-516.8" font-family="Helvetica,sans-Serif" font-size="14.00"> &#160;&#160;&#160;&#160;&#160;&#160;&#160;&#160;&#160;&#160;&#160;kitsu &#160;&#160;&#160;&#160;&#160;&#160;&#160;</text>
<polygon fill="none" stroke="#0a0a0a" points="1984,-495 1984,-512 2388,-512 2388,-495 1984,-495"/>
<text text-anchor="start" x="2185" y="-499.8" font-family="Helvetica,sans-Serif" font-size="14.00"> &#160;&#160;&#160;&#160;&#160;&#160;&#160;&#160;&#160;&#160;&#160;container_name &#160;&#160;&#160;&#160;&#160;&#160;&#160;</text>
<polygon fill="none" stroke="#0a0a0a" points="2388,-495 2388,-512 3400,-512 3400,-495 2388,-495"/>
<text text-anchor="start" x="2389" y="-499.8" font-family="Helvetica,sans-Serif" font-size="14.00"> &#160;&#160;&#160;&#160;&#160;&#160;&#160;&#160;&#160;&#160;&#160;kitsu&#45;&#45;2025&#45;07&#45;10&#45;22&#45;36&#45;50&#45;47cd6c0a7dd141429707ab6d91190a27 &#160;&#160;&#160;&#160;&#160;&#160;&#160;</text>
<polygon fill="none" stroke="#0a0a0a" points="1984,-478 1984,-495 2388,-495 2388,-478 1984,-478"/>
<text text-anchor="start" x="2227" y="-482.8" font-family="Helvetica,sans-Serif" font-size="14.00"> &#160;&#160;&#160;&#160;&#160;&#160;&#160;&#160;&#160;&#160;&#160;hostname &#160;&#160;&#160;&#160;&#160;&#160;&#160;</text>
<polygon fill="none" stroke="#0a0a0a" points="2388,-478 2388,-495 3400,-495 3400,-478 2388,-478"/>
<text text-anchor="start" x="2389" y="-482.8" font-family="Helvetica,sans-Serif" font-size="14.00"> &#160;&#160;&#160;&#160;&#160;&#160;&#160;&#160;&#160;&#160;&#160;kitsu.farm.evil &#160;&#160;&#160;&#160;&#160;&#160;&#160;</text>
<polygon fill="none" stroke="#0a0a0a" points="1984,-461 1984,-478 2388,-478 2388,-461 1984,-461"/>
<text text-anchor="start" x="2206" y="-465.8" font-family="Helvetica,sans-Serif" font-size="14.00"> &#160;&#160;&#160;&#160;&#160;&#160;&#160;&#160;&#160;&#160;&#160;domainname &#160;&#160;&#160;&#160;&#160;&#160;&#160;</text>
<polygon fill="none" stroke="#0a0a0a" points="2388,-461 2388,-478 3400,-478 3400,-461 2388,-461"/>
<text text-anchor="start" x="2389" y="-465.8" font-family="Helvetica,sans-Serif" font-size="14.00"> &#160;&#160;&#160;&#160;&#160;&#160;&#160;&#160;&#160;&#160;&#160;farm.evil &#160;&#160;&#160;&#160;&#160;&#160;&#160;</text>
<polygon fill="none" stroke="#0a0a0a" points="1984,-444 1984,-461 2388,-461 2388,-444 1984,-444"/>
<text text-anchor="start" x="2251" y="-448.8" font-family="Helvetica,sans-Serif" font-size="14.00"> &#160;&#160;&#160;&#160;&#160;&#160;&#160;&#160;&#160;&#160;&#160;restart &#160;&#160;&#160;&#160;&#160;&#160;&#160;</text>
<polygon fill="none" stroke="#0a0a0a" points="2388,-444 2388,-461 3400,-461 3400,-444 2388,-444"/>
<text text-anchor="start" x="2389" y="-448.8" font-family="Helvetica,sans-Serif" font-size="14.00"> &#160;&#160;&#160;&#160;&#160;&#160;&#160;&#160;&#160;&#160;&#160;always &#160;&#160;&#160;&#160;&#160;&#160;&#160;</text>
<polygon fill="none" stroke="#0a0a0a" points="1984,-427 1984,-444 2388,-444 2388,-427 1984,-427"/>
<text text-anchor="start" x="2254" y="-431.8" font-family="Helvetica,sans-Serif" font-size="14.00"> &#160;&#160;&#160;&#160;&#160;&#160;&#160;&#160;&#160;&#160;&#160;image &#160;&#160;&#160;&#160;&#160;&#160;&#160;</text>
<polygon fill="none" stroke="#0a0a0a" points="2388,-427 2388,-444 3400,-444 3400,-427 2388,-427"/>
<text text-anchor="start" x="2389" y="-431.8" font-family="Helvetica,sans-Serif" font-size="14.00"> &#160;&#160;&#160;&#160;&#160;&#160;&#160;&#160;&#160;&#160;&#160;harbor.farm.evil:80/openstudiolandscapes/kitsu_build_docker_image:2025&#45;07&#45;10&#45;22&#45;36&#45;50&#45;47cd6c0a7dd141429707ab6d91190a27 &#160;&#160;&#160;&#160;&#160;&#160;&#160;</text>
<polygon fill="none" stroke="#0a0a0a" points="1984,-410 1984,-427 2388,-427 2388,-410 1984,-410"/>
<text text-anchor="start" x="2108" y="-414.8" font-family="Helvetica,sans-Serif" font-size="14.00"> &#160;&#160;&#160;&#160;&#160;&#160;&#160;&#160;&#160;&#160;&#160;command (ENTRYPOINT +) &#160;&#160;&#160;&#160;&#160;&#160;&#160;</text>
<polygon fill="none" stroke="#0a0a0a" points="2388,-410 2388,-427 3400,-427 3400,-410 2388,-410"/>
<text text-anchor="start" x="2389" y="-414.8" font-family="Helvetica,sans-Serif" font-size="14.00"> &#160;&#160;&#160;&#160;&#160;&#160;&#160;&#160;&#160;&#160;&#160;bash /opt/zou/start_zou.sh &#160;&#160;&#160;&#160;&#160;&#160;&#160;</text>
<polygon fill="none" stroke="#0a0a0a" points="1984,-389 1984,-410 2388,-410 2388,-389 1984,-389"/>
<text text-anchor="start" x="2152" y="-395.8" font-family="Helvetica,sans-Serif" font-size="14.00"> &#160;&#160;&#160;&#160;&#160;&#160;&#160;&#160;&#160;&#160;&#160;&#160;&#160;&#160;&#160;depends_on (1) &#160;&#160;&#160;&#160;&#160;&#160;&#160;&#160;&#160;&#160;&#160;</text>
<polygon fill="none" stroke="#0a0a0a" points="2388,-389 2388,-410 3400,-410 3400,-389 2388,-389"/>
<polygon fill="none" stroke="#0a0a0a" points="2390,-391 2390,-408 3398,-408 3398,-391 2390,-391"/>
<text text-anchor="start" x="2391" y="-395.8" font-family="Helvetica,sans-Serif" font-size="14.00"> &#160;&#160;&#160;&#160;&#160;&#160;&#160;&#160;&#160;&#160;&#160;&#160;&#160;&#160;&#160;&#160;&#160;&#160;&#160;&#160;&#160;&#160;&#160;&#160;&#160;&#160;&#160;kitsu&#45;init&#45;db (condition: service_completed_successfully) &#160;&#160;&#160;&#160;&#160;&#160;&#160;&#160;&#160;&#160;&#160;&#160;&#160;&#160;&#160;&#160;&#160;&#160;&#160;&#160;&#160;&#160;&#160;</text>
<polygon fill="none" stroke="#0a0a0a" points="2389,-390 2389,-409 3399,-409 3399,-390 2389,-390"/>
<polygon fill="none" stroke="#0a0a0a" points="1984,-283 1984,-389 2388,-389 2388,-283 1984,-283"/>
<text text-anchor="start" x="2149" y="-332.3" font-family="Helvetica,sans-Serif" font-size="14.00"> &#160;&#160;&#160;&#160;&#160;&#160;&#160;&#160;&#160;&#160;&#160;&#160;&#160;&#160;&#160;environment (6) &#160;&#160;&#160;&#160;&#160;&#160;&#160;&#160;&#160;&#160;&#160;</text>
<polygon fill="none" stroke="#0a0a0a" points="2388,-283 2388,-389 3400,-389 3400,-283 2388,-283"/>
<polygon fill="none" stroke="#0a0a0a" points="2390,-370 2390,-387 3398,-387 3398,-370 2390,-370"/>
<text text-anchor="start" x="2391" y="-374.8" font-family="Helvetica,sans-Serif" font-size="14.00"> &#160;&#160;&#160;&#160;&#160;&#160;&#160;&#160;&#160;&#160;&#160;&#160;&#160;&#160;&#160;&#160;&#160;&#160;&#160;&#160;&#160;&#160;&#160;&#160;&#160;&#160;&#160;DB_PASSWORD=mysecretpassword &#160;&#160;&#160;&#160;&#160;&#160;&#160;&#160;&#160;&#160;&#160;&#160;&#160;&#160;&#160;&#160;&#160;&#160;&#160;&#160;&#160;&#160;&#160;</text>
<polygon fill="none" stroke="#0a0a0a" points="2390,-353 2390,-370 3398,-370 3398,-353 2390,-353"/>
<text text-anchor="start" x="2391" y="-357.8" font-family="Helvetica,sans-Serif" font-size="14.00"> &#160;&#160;&#160;&#160;&#160;&#160;&#160;&#160;&#160;&#160;&#160;&#160;&#160;&#160;&#160;&#160;&#160;&#160;&#160;&#160;&#160;&#160;&#160;&#160;&#160;&#160;&#160;ENABLE_JOB_QUEUE=True &#160;&#160;&#160;&#160;&#160;&#160;&#160;&#160;&#160;&#160;&#160;&#160;&#160;&#160;&#160;&#160;&#160;&#160;&#160;&#160;&#160;&#160;&#160;</text>
<polygon fill="none" stroke="#0a0a0a" points="2390,-336 2390,-353 3398,-353 3398,-336 2390,-336"/>
<text text-anchor="start" x="2391" y="-340.8" font-family="Helvetica,sans-Serif" font-size="14.00"> &#160;&#160;&#160;&#160;&#160;&#160;&#160;&#160;&#160;&#160;&#160;&#160;&#160;&#160;&#160;&#160;&#160;&#160;&#160;&#160;&#160;&#160;&#160;&#160;&#160;&#160;&#160;KITSU_ADMIN=admin@example.com &#160;&#160;&#160;&#160;&#160;&#160;&#160;&#160;&#160;&#160;&#160;&#160;&#160;&#160;&#160;&#160;&#160;&#160;&#160;&#160;&#160;&#160;&#160;</text>
<polygon fill="none" stroke="#0a0a0a" points="2390,-319 2390,-336 3398,-336 3398,-319 2390,-319"/>
<text text-anchor="start" x="2391" y="-323.8" font-family="Helvetica,sans-Serif" font-size="14.00"> &#160;&#160;&#160;&#160;&#160;&#160;&#160;&#160;&#160;&#160;&#160;&#160;&#160;&#160;&#160;&#160;&#160;&#160;&#160;&#160;&#160;&#160;&#160;&#160;&#160;&#160;&#160;PREVIEW_FOLDER=/opt/zou/previews &#160;&#160;&#160;&#160;&#160;&#160;&#160;&#160;&#160;&#160;&#160;&#160;&#160;&#160;&#160;&#160;&#160;&#160;&#160;&#160;&#160;&#160;&#160;</text>
<polygon fill="none" stroke="#0a0a0a" points="2390,-302 2390,-319 3398,-319 3398,-302 2390,-302"/>
<text text-anchor="start" x="2391" y="-306.8" font-family="Helvetica,sans-Serif" font-size="14.00"> &#160;&#160;&#160;&#160;&#160;&#160;&#160;&#160;&#160;&#160;&#160;&#160;&#160;&#160;&#160;&#160;&#160;&#160;&#160;&#160;&#160;&#160;&#160;&#160;&#160;&#160;&#160;SECRET_KEY=yourrandomsecretkey &#160;&#160;&#160;&#160;&#160;&#160;&#160;&#160;&#160;&#160;&#160;&#160;&#160;&#160;&#160;&#160;&#160;&#160;&#160;&#160;&#160;&#160;&#160;</text>
<polygon fill="none" stroke="#0a0a0a" points="2390,-285 2390,-302 3398,-302 3398,-285 2390,-285"/>
<text text-anchor="start" x="2391" y="-289.8" font-family="Helvetica,sans-Serif" font-size="14.00"> &#160;&#160;&#160;&#160;&#160;&#160;&#160;&#160;&#160;&#160;&#160;&#160;&#160;&#160;&#160;&#160;&#160;&#160;&#160;&#160;&#160;&#160;&#160;&#160;&#160;&#160;&#160;TMP_DIR=/opt/zou/tmp &#160;&#160;&#160;&#160;&#160;&#160;&#160;&#160;&#160;&#160;&#160;&#160;&#160;&#160;&#160;&#160;&#160;&#160;&#160;&#160;&#160;&#160;&#160;</text>
<polygon fill="none" stroke="#0a0a0a" points="2389,-284 2389,-388 3399,-388 3399,-284 2389,-284"/>
<polygon fill="none" stroke="#0a0a0a" points="1984,-228 1984,-283 2388,-283 2388,-228 1984,-228"/>
<polygon fill="none" stroke="#0a0a0a" points="1986,-264 1986,-281 2386,-281 2386,-264 1986,-264"/>
<text text-anchor="start" x="1987" y="-268.8" font-family="Helvetica,sans-Serif" font-size="14.00"> &#160;&#160;&#160;&#160;&#160;&#160;&#160;&#160;&#160;&#160;&#160;&#160;&#160;&#160;&#160;&#160;&#160;&#160;&#160;&#160;&#160;&#160;&#160;&#160;&#160;&#160;&#160;/var/lib/postgresql:rw &#160;&#160;&#160;&#160;&#160;&#160;&#160;&#160;&#160;&#160;&#160;&#160;&#160;&#160;&#160;&#160;&#160;&#160;&#160;&#160;&#160;&#160;&#160;</text>
<polygon fill="none" stroke="#0a0a0a" points="1986,-247 1986,-264 2386,-264 2386,-247 1986,-247"/>
<text text-anchor="start" x="1987" y="-251.8" font-family="Helvetica,sans-Serif" font-size="14.00"> &#160;&#160;&#160;&#160;&#160;&#160;&#160;&#160;&#160;&#160;&#160;&#160;&#160;&#160;&#160;&#160;&#160;&#160;&#160;&#160;&#160;&#160;&#160;&#160;&#160;&#160;&#160;/opt/zou/previews:rw &#160;&#160;&#160;&#160;&#160;&#160;&#160;&#160;&#160;&#160;&#160;&#160;&#160;&#160;&#160;&#160;&#160;&#160;&#160;&#160;&#160;&#160;&#160;</text>
<polygon fill="none" stroke="#0a0a0a" points="1986,-230 1986,-247 2386,-247 2386,-230 1986,-230"/>
<text text-anchor="start" x="1987" y="-234.8" font-family="Helvetica,sans-Serif" font-size="14.00"> &#160;&#160;&#160;&#160;&#160;&#160;&#160;&#160;&#160;&#160;&#160;&#160;&#160;&#160;&#160;&#160;&#160;&#160;&#160;&#160;&#160;&#160;&#160;&#160;&#160;&#160;&#160;/etc/supervisord.conf:ro &#160;&#160;&#160;&#160;&#160;&#160;&#160;&#160;&#160;&#160;&#160;&#160;&#160;&#160;&#160;&#160;&#160;&#160;&#160;&#160;&#160;&#160;&#160;</text>
<polygon fill="none" stroke="#0a0a0a" points="1985,-229 1985,-282 2387,-282 2387,-229 1985,-229"/>
<polygon fill="none" stroke="#0a0a0a" points="2388,-228 2388,-283 3400,-283 3400,-228 2388,-228"/>
<text text-anchor="start" x="2389" y="-251.8" font-family="Helvetica,sans-Serif" font-size="14.00"> &#160;&#160;&#160;&#160;&#160;&#160;&#160;&#160;&#160;&#160;&#160;&#160;&#160;&#160;&#160;volumes (3) &#160;&#160;&#160;&#160;&#160;&#160;&#160;&#160;&#160;&#160;&#160;</text>
<polygon fill="none" stroke="#0a0a0a" points="1984,-207 1984,-228 2388,-228 2388,-207 1984,-207"/>
<polygon fill="none" stroke="#0a0a0a" points="1986,-209 1986,-226 2386,-226 2386,-209 1986,-209"/>
<text text-anchor="start" x="1987" y="-213.8" font-family="Helvetica,sans-Serif" font-size="14.00"> &#160;&#160;&#160;&#160;&#160;&#160;&#160;&#160;&#160;&#160;&#160;&#160;&#160;&#160;&#160;&#160;&#160;&#160;&#160;&#160;&#160;&#160;&#160;&#160;&#160;&#160;&#160;4545 → 80 &#160;&#160;&#160;&#160;&#160;&#160;&#160;&#160;&#160;&#160;&#160;&#160;&#160;&#160;&#160;&#160;&#160;&#160;&#160;&#160;&#160;&#160;&#160;</text>
<polygon fill="none" stroke="#0a0a0a" points="1985,-208 1985,-227 2387,-227 2387,-208 1985,-208"/>
<polygon fill="none" stroke="#0a0a0a" points="2388,-207 2388,-228 3400,-228 3400,-207 2388,-207"/>
<text text-anchor="start" x="2389" y="-213.8" font-family="Helvetica,sans-Serif" font-size="14.00"> &#160;&#160;&#160;&#160;&#160;&#160;&#160;&#160;&#160;&#160;&#160;&#160;&#160;&#160;&#160;ports (1) &#160;&#160;&#160;&#160;&#160;&#160;&#160;&#160;&#160;&#160;&#160;</text>
<polygon fill="none" stroke="#0a0a0a" points="1984,-186 1984,-207 2388,-207 2388,-186 1984,-186"/>
<polygon fill="none" stroke="#0a0a0a" points="1986,-188 1986,-205 2386,-205 2386,-188 1986,-188"/>
<text text-anchor="start" x="1987" y="-192.8" font-family="Helvetica,sans-Serif" font-size="14.00"> &#160;&#160;&#160;&#160;&#160;&#160;&#160;&#160;&#160;&#160;&#160;&#160;&#160;&#160;&#160;&#160;&#160;&#160;&#160;&#160;&#160;&#160;&#160;&#160;&#160;&#160;&#160;kitsu &#160;&#160;&#160;&#160;&#160;&#160;&#160;&#160;&#160;&#160;&#160;&#160;&#160;&#160;&#160;&#160;&#160;&#160;&#160;&#160;&#160;&#160;&#160;</text>
<polygon fill="none" stroke="#0a0a0a" points="1985,-187 1985,-206 2387,-206 2387,-187 1985,-187"/>
<polygon fill="none" stroke="#0a0a0a" points="2388,-186 2388,-207 3400,-207 3400,-186 2388,-186"/>
<text text-anchor="start" x="2389" y="-192.8" font-family="Helvetica,sans-Serif" font-size="14.00"> &#160;&#160;&#160;&#160;&#160;&#160;&#160;&#160;&#160;&#160;&#160;&#160;&#160;&#160;&#160;networks (1) &#160;&#160;&#160;&#160;&#160;&#160;&#160;&#160;&#160;&#160;&#160;</text>
<polygon fill="none" stroke="#0a0a0a" points="1983,-185.5 1983,-530.5 3401,-530.5 3401,-185.5 1983,-185.5"/>
</g>
<!-- NODE&#45;SERVICE_kitsu&#45;init&#45;db -->
<g id="node2" class="node">
<title>NODE&#45;SERVICE_kitsu&#45;init&#45;db</title>
<polygon fill="#a0a0a0" stroke="transparent" points="5523,-416.5 4121,-416.5 4121,-185.5 5523,-185.5 5523,-416.5"/>
<polygon fill="none" stroke="#0a0a0a" points="4122,-398 4122,-415 4510,-415 4510,-398 4122,-398"/>
<text text-anchor="start" x="4323" y="-402.8" font-family="Helvetica,sans-Serif" font-size="14.00"> &#160;&#160;&#160;&#160;&#160;&#160;&#160;&#160;&#160;&#160;&#160;service_name &#160;&#160;&#160;&#160;&#160;&#160;&#160;</text>
<polygon fill="none" stroke="#0a0a0a" points="4510,-398 4510,-415 5522,-415 5522,-398 4510,-398"/>
<text text-anchor="start" x="4511" y="-402.8" font-family="Helvetica,sans-Serif" font-size="14.00"> &#160;&#160;&#160;&#160;&#160;&#160;&#160;&#160;&#160;&#160;&#160;kitsu&#45;init&#45;db &#160;&#160;&#160;&#160;&#160;&#160;&#160;</text>
<polygon fill="none" stroke="#0a0a0a" points="4122,-381 4122,-398 4510,-398 4510,-381 4122,-381"/>
<text text-anchor="start" x="4307" y="-385.8" font-family="Helvetica,sans-Serif" font-size="14.00"> &#160;&#160;&#160;&#160;&#160;&#160;&#160;&#160;&#160;&#160;&#160;container_name &#160;&#160;&#160;&#160;&#160;&#160;&#160;</text>
<polygon fill="none" stroke="#0a0a0a" points="4510,-381 4510,-398 5522,-398 5522,-381 4510,-381"/>
<text text-anchor="start" x="4511" y="-385.8" font-family="Helvetica,sans-Serif" font-size="14.00"> &#160;&#160;&#160;&#160;&#160;&#160;&#160;&#160;&#160;&#160;&#160;kitsu&#45;init&#45;db&#45;&#45;2025&#45;07&#45;10&#45;22&#45;36&#45;50&#45;47cd6c0a7dd141429707ab6d91190a27 &#160;&#160;&#160;&#160;&#160;&#160;&#160;</text>
<polygon fill="none" stroke="#0a0a0a" points="4122,-364 4122,-381 4510,-381 4510,-364 4122,-364"/>
<text text-anchor="start" x="4349" y="-368.8" font-family="Helvetica,sans-Serif" font-size="14.00"> &#160;&#160;&#160;&#160;&#160;&#160;&#160;&#160;&#160;&#160;&#160;hostname &#160;&#160;&#160;&#160;&#160;&#160;&#160;</text>
<polygon fill="none" stroke="#0a0a0a" points="4510,-364 4510,-381 5522,-381 5522,-364 4510,-364"/>
<text text-anchor="start" x="4511" y="-368.8" font-family="Helvetica,sans-Serif" font-size="14.00"> &#160;&#160;&#160;&#160;&#160;&#160;&#160;&#160;&#160;&#160;&#160;kitsu&#45;init&#45;db.farm.evil &#160;&#160;&#160;&#160;&#160;&#160;&#160;</text>
<polygon fill="none" stroke="#0a0a0a" points="4122,-347 4122,-364 4510,-364 4510,-347 4122,-347"/>
<text text-anchor="start" x="4328" y="-351.8" font-family="Helvetica,sans-Serif" font-size="14.00"> &#160;&#160;&#160;&#160;&#160;&#160;&#160;&#160;&#160;&#160;&#160;domainname &#160;&#160;&#160;&#160;&#160;&#160;&#160;</text>
<polygon fill="none" stroke="#0a0a0a" points="4510,-347 4510,-364 5522,-364 5522,-347 4510,-347"/>
<text text-anchor="start" x="4511" y="-351.8" font-family="Helvetica,sans-Serif" font-size="14.00"> &#160;&#160;&#160;&#160;&#160;&#160;&#160;&#160;&#160;&#160;&#160;farm.evil &#160;&#160;&#160;&#160;&#160;&#160;&#160;</text>
<polygon fill="none" stroke="#0a0a0a" points="4122,-330 4122,-347 4510,-347 4510,-330 4122,-330"/>
<text text-anchor="start" x="4373" y="-334.8" font-family="Helvetica,sans-Serif" font-size="14.00"> &#160;&#160;&#160;&#160;&#160;&#160;&#160;&#160;&#160;&#160;&#160;restart &#160;&#160;&#160;&#160;&#160;&#160;&#160;</text>
<polygon fill="none" stroke="#0a0a0a" points="4510,-330 4510,-347 5522,-347 5522,-330 4510,-330"/>
<text text-anchor="start" x="4511" y="-334.8" font-family="Helvetica,sans-Serif" font-size="14.00"> &#160;&#160;&#160;&#160;&#160;&#160;&#160;&#160;&#160;&#160;&#160;no &#160;&#160;&#160;&#160;&#160;&#160;&#160;</text>
<polygon fill="none" stroke="#0a0a0a" points="4122,-313 4122,-330 4510,-330 4510,-313 4122,-313"/>
<text text-anchor="start" x="4376" y="-317.8" font-family="Helvetica,sans-Serif" font-size="14.00"> &#160;&#160;&#160;&#160;&#160;&#160;&#160;&#160;&#160;&#160;&#160;image &#160;&#160;&#160;&#160;&#160;&#160;&#160;</text>
<polygon fill="none" stroke="#0a0a0a" points="4510,-313 4510,-330 5522,-330 5522,-313 4510,-313"/>
<text text-anchor="start" x="4511" y="-317.8" font-family="Helvetica,sans-Serif" font-size="14.00"> &#160;&#160;&#160;&#160;&#160;&#160;&#160;&#160;&#160;&#160;&#160;harbor.farm.evil:80/openstudiolandscapes/kitsu_build_docker_image:2025&#45;07&#45;10&#45;22&#45;36&#45;50&#45;47cd6c0a7dd141429707ab6d91190a27 &#160;&#160;&#160;&#160;&#160;&#160;&#160;</text>
<polygon fill="none" stroke="#0a0a0a" points="4122,-296 4122,-313 4510,-313 4510,-296 4122,-296"/>
<text text-anchor="start" x="4230" y="-300.8" font-family="Helvetica,sans-Serif" font-size="14.00"> &#160;&#160;&#160;&#160;&#160;&#160;&#160;&#160;&#160;&#160;&#160;command (ENTRYPOINT +) &#160;&#160;&#160;&#160;&#160;&#160;&#160;</text>
<polygon fill="none" stroke="#0a0a0a" points="4510,-296 4510,-313 5522,-313 5522,-296 4510,-296"/>
<text text-anchor="start" x="4511" y="-300.8" font-family="Helvetica,sans-Serif" font-size="14.00"> &#160;&#160;&#160;&#160;&#160;&#160;&#160;&#160;&#160;&#160;&#160;/usr/bin/bash /opt/zou/init_db.sh &#160;&#160;&#160;&#160;&#160;&#160;&#160;</text>
<polygon fill="none" stroke="#0a0a0a" points="4122,-207 4122,-296 4510,-296 4510,-207 4122,-207"/>
<text text-anchor="start" x="4271" y="-247.8" font-family="Helvetica,sans-Serif" font-size="14.00"> &#160;&#160;&#160;&#160;&#160;&#160;&#160;&#160;&#160;&#160;&#160;&#160;&#160;&#160;&#160;environment (5) &#160;&#160;&#160;&#160;&#160;&#160;&#160;&#160;&#160;&#160;&#160;</text>
<polygon fill="none" stroke="#0a0a0a" points="4510,-207 4510,-296 5522,-296 5522,-207 4510,-207"/>
<polygon fill="none" stroke="#0a0a0a" points="4512,-277 4512,-294 5520,-294 5520,-277 4512,-277"/>
<text text-anchor="start" x="4513" y="-281.8" font-family="Helvetica,sans-Serif" font-size="14.00"> &#160;&#160;&#160;&#160;&#160;&#160;&#160;&#160;&#160;&#160;&#160;&#160;&#160;&#160;&#160;&#160;&#160;&#160;&#160;&#160;&#160;&#160;&#160;&#160;&#160;&#160;&#160;DB_PASSWORD=mysecretpassword &#160;&#160;&#160;&#160;&#160;&#160;&#160;&#160;&#160;&#160;&#160;&#160;&#160;&#160;&#160;&#160;&#160;&#160;&#160;&#160;&#160;&#160;&#160;</text>
<polygon fill="none" stroke="#0a0a0a" points="4512,-260 4512,-277 5520,-277 5520,-260 4512,-260"/>
<text text-anchor="start" x="4513" y="-264.8" font-family="Helvetica,sans-Serif" font-size="14.00"> &#160;&#160;&#160;&#160;&#160;&#160;&#160;&#160;&#160;&#160;&#160;&#160;&#160;&#160;&#160;&#160;&#160;&#160;&#160;&#160;&#160;&#160;&#160;&#160;&#160;&#160;&#160;KITSU_ADMIN=admin@example.com &#160;&#160;&#160;&#160;&#160;&#160;&#160;&#160;&#160;&#160;&#160;&#160;&#160;&#160;&#160;&#160;&#160;&#160;&#160;&#160;&#160;&#160;&#160;</text>
<polygon fill="none" stroke="#0a0a0a" points="4512,-243 4512,-260 5520,-260 5520,-243 4512,-243"/>
<text text-anchor="start" x="4513" y="-247.8" font-family="Helvetica,sans-Serif" font-size="14.00"> &#160;&#160;&#160;&#160;&#160;&#160;&#160;&#160;&#160;&#160;&#160;&#160;&#160;&#160;&#160;&#160;&#160;&#160;&#160;&#160;&#160;&#160;&#160;&#160;&#160;&#160;&#160;PREVIEW_FOLDER=/opt/zou/previews &#160;&#160;&#160;&#160;&#160;&#160;&#160;&#160;&#160;&#160;&#160;&#160;&#160;&#160;&#160;&#160;&#160;&#160;&#160;&#160;&#160;&#160;&#160;</text>
<polygon fill="none" stroke="#0a0a0a" points="4512,-226 4512,-243 5520,-243 5520,-226 4512,-226"/>
<text text-anchor="start" x="4513" y="-230.8" font-family="Helvetica,sans-Serif" font-size="14.00"> &#160;&#160;&#160;&#160;&#160;&#160;&#160;&#160;&#160;&#160;&#160;&#160;&#160;&#160;&#160;&#160;&#160;&#160;&#160;&#160;&#160;&#160;&#160;&#160;&#160;&#160;&#160;SECRET_KEY=yourrandomsecretkey &#160;&#160;&#160;&#160;&#160;&#160;&#160;&#160;&#160;&#160;&#160;&#160;&#160;&#160;&#160;&#160;&#160;&#160;&#160;&#160;&#160;&#160;&#160;</text>
<polygon fill="none" stroke="#0a0a0a" points="4512,-209 4512,-226 5520,-226 5520,-209 4512,-209"/>
<text text-anchor="start" x="4513" y="-213.8" font-family="Helvetica,sans-Serif" font-size="14.00"> &#160;&#160;&#160;&#160;&#160;&#160;&#160;&#160;&#160;&#160;&#160;&#160;&#160;&#160;&#160;&#160;&#160;&#160;&#160;&#160;&#160;&#160;&#160;&#160;&#160;&#160;&#160;TMP_DIR=/opt/zou/tmp &#160;&#160;&#160;&#160;&#160;&#160;&#160;&#160;&#160;&#160;&#160;&#160;&#160;&#160;&#160;&#160;&#160;&#160;&#160;&#160;&#160;&#160;&#160;</text>
<polygon fill="none" stroke="#0a0a0a" points="4511,-208 4511,-295 5521,-295 5521,-208 4511,-208"/>
<polygon fill="none" stroke="#0a0a0a" points="4122,-186 4122,-207 4510,-207 4510,-186 4122,-186"/>
<polygon fill="none" stroke="#0a0a0a" points="4124,-188 4124,-205 4508,-205 4508,-188 4124,-188"/>
<text text-anchor="start" x="4125" y="-192.8" font-family="Helvetica,sans-Serif" font-size="14.00"> &#160;&#160;&#160;&#160;&#160;&#160;&#160;&#160;&#160;&#160;&#160;&#160;&#160;&#160;&#160;&#160;&#160;&#160;&#160;&#160;&#160;&#160;&#160;&#160;&#160;&#160;&#160;/var/lib/postgresql:rw &#160;&#160;&#160;&#160;&#160;&#160;&#160;&#160;&#160;&#160;&#160;&#160;&#160;&#160;&#160;&#160;&#160;&#160;&#160;&#160;&#160;&#160;&#160;</text>
<polygon fill="none" stroke="#0a0a0a" points="4123,-187 4123,-206 4509,-206 4509,-187 4123,-187"/>
<polygon fill="none" stroke="#0a0a0a" points="4510,-186 4510,-207 5522,-207 5522,-186 4510,-186"/>
<text text-anchor="start" x="4511" y="-192.8" font-family="Helvetica,sans-Serif" font-size="14.00"> &#160;&#160;&#160;&#160;&#160;&#160;&#160;&#160;&#160;&#160;&#160;&#160;&#160;&#160;&#160;volumes (1) &#160;&#160;&#160;&#160;&#160;&#160;&#160;&#160;&#160;&#160;&#160;</text>
<polygon fill="none" stroke="#0a0a0a" points="4121,-185.5 4121,-416.5 5523,-416.5 5523,-185.5 4121,-185.5"/>
</g>
<!-- NODE&#45;SERVICE_kitsu&#45;&gt;NODE&#45;SERVICE_kitsu&#45;init&#45;db -->
<g id="edge1" class="edge">
<title>NODE&#45;SERVICE_kitsu:e&#45;&gt;NODE&#45;SERVICE_kitsu&#45;init&#45;db:w</title>
<path fill="none" stroke="yellow" stroke-width="2" d="M3409.21,-400.1C3490.96,-400.89 4038.19,-406.2 4112.62,-406.92"/>
<polygon fill="yellow" stroke="yellow" stroke-width="2" points="3399.03,-396.5 3409,-400.1 3398.97,-403.5 3399.03,-396.5"/>
<ellipse fill="yellow" stroke="yellow" stroke-width="2" cx="4117" cy="-406.96" rx="4" ry="4"/>
</g>
<!-- kitsu__4545__80 -->
<g id="node3" class="node">
<title>kitsu__4545__80</title>
<ellipse fill="#ffffff" stroke="black" cx="643.5" cy="-421" rx="34.39" ry="34.39"/>
<text text-anchor="middle" x="643.5" y="-417.3" font-family="Helvetica,sans-Serif" font-size="14.00">4545</text>
</g>
<!-- kitsu__4545__80&#45;&gt;NODE&#45;SERVICE_kitsu -->
<g id="edge2" class="edge">
<title>kitsu__4545__80:e&#45;&gt;NODE&#45;SERVICE_kitsu:w</title>
<path fill="none" stroke="#ffffff" d="M687.5,-419.75C791.37,-403.52 1873.74,-234.39 1977.08,-218.24"/>
<ellipse fill="#ffffff" stroke="#ffffff" cx="683.45" cy="-420.38" rx="4" ry="4"/>
<ellipse fill="#ffffff" stroke="#ffffff" cx="1981.05" cy="-217.62" rx="4" ry="4"/>
</g>
<!-- /home/user/git/repos/OpenStudioLandscapes/.landscapes/2025&#45;07&#45;10&#45;22&#45;36&#45;50&#45;47cd6c0a7dd141429707ab6d91190a27/Kitsu__Kitsu/Kitsu__supervisord_conf/supervisord.conf -->
<g id="node4" class="node">
<title>/home/user/git/repos/OpenStudioLandscapes/.landscapes/2025&#45;07&#45;10&#45;22&#45;36&#45;50&#45;47cd6c0a7dd141429707ab6d91190a27/Kitsu__Kitsu/Kitsu__supervisord_conf/supervisord.conf</title>
<path fill="#00ffff" stroke="black" d="M1251,-195C1251,-195 36,-195 36,-195 30,-195 24,-189 24,-183 24,-183 24,-171 24,-171 24,-165 30,-159 36,-159 36,-159 1251,-159 1251,-159 1257,-159 1263,-165 1263,-171 1263,-171 1263,-183 1263,-183 1263,-189 1257,-195 1251,-195"/>
<text text-anchor="middle" x="643.5" y="-173.3" font-family="Helvetica,sans-Serif" font-size="14.00">/home/user/git/repos/OpenStudioLandscapes/.landscapes/2025&#45;07&#45;10&#45;22&#45;36&#45;50&#45;47cd6c0a7dd141429707ab6d91190a27/Kitsu__Kitsu/Kitsu__supervisord_conf/supervisord.conf</text>
</g>
<!-- /home/user/git/repos/OpenStudioLandscapes/.landscapes/2025&#45;07&#45;10&#45;22&#45;36&#45;50&#45;47cd6c0a7dd141429707ab6d91190a27/Kitsu__Kitsu/Kitsu__supervisord_conf/supervisord.conf&#45;&gt;NODE&#45;SERVICE_kitsu -->
<g id="edge3" class="edge">
<title>/home/user/git/repos/OpenStudioLandscapes/.landscapes/2025&#45;07&#45;10&#45;22&#45;36&#45;50&#45;47cd6c0a7dd141429707ab6d91190a27/Kitsu__Kitsu/Kitsu__supervisord_conf/supervisord.conf:e&#45;&gt;NODE&#45;SERVICE_kitsu:w</title>
<path fill="none" stroke="#00ffff" stroke-dasharray="5,2" d="M1272.59,-177.69C1346.49,-183.94 1903.34,-231.09 1976.97,-237.32"/>
<ellipse fill="#00ffff" stroke="#00ffff" cx="1268.49" cy="-177.34" rx="4" ry="4"/>
<ellipse fill="#00ffff" stroke="#00ffff" cx="1981.01" cy="-237.66" rx="4" ry="4"/>
</g>
<!-- /home/user/git/repos/OpenStudioLandscapes/.landscapes/2025&#45;07&#45;10&#45;22&#45;36&#45;50&#45;47cd6c0a7dd141429707ab6d91190a27/Kitsu__Kitsu/data/kitsu/postgresql -->
<g id="node5" class="node">
<title>/home/user/git/repos/OpenStudioLandscapes/.landscapes/2025&#45;07&#45;10&#45;22&#45;36&#45;50&#45;47cd6c0a7dd141429707ab6d91190a27/Kitsu__Kitsu/data/kitsu/postgresql</title>
<path fill="#00ffff" stroke="black" d="M1180.5,-311C1180.5,-311 106.5,-311 106.5,-311 100.5,-311 94.5,-305 94.5,-299 94.5,-299 94.5,-287 94.5,-287 94.5,-281 100.5,-275 106.5,-275 106.5,-275 1180.5,-275 1180.5,-275 1186.5,-275 1192.5,-281 1192.5,-287 1192.5,-287 1192.5,-299 1192.5,-299 1192.5,-305 1186.5,-311 1180.5,-311"/>
<text text-anchor="middle" x="643.5" y="-289.3" font-family="Helvetica,sans-Serif" font-size="14.00">/home/user/git/repos/OpenStudioLandscapes/.landscapes/2025&#45;07&#45;10&#45;22&#45;36&#45;50&#45;47cd6c0a7dd141429707ab6d91190a27/Kitsu__Kitsu/data/kitsu/postgresql</text>
</g>
<!-- /home/user/git/repos/OpenStudioLandscapes/.landscapes/2025&#45;07&#45;10&#45;22&#45;36&#45;50&#45;47cd6c0a7dd141429707ab6d91190a27/Kitsu__Kitsu/data/kitsu/postgresql&#45;&gt;NODE&#45;SERVICE_kitsu -->
<g id="edge4" class="edge">
<title>/home/user/git/repos/OpenStudioLandscapes/.landscapes/2025&#45;07&#45;10&#45;22&#45;36&#45;50&#45;47cd6c0a7dd141429707ab6d91190a27/Kitsu__Kitsu/data/kitsu/postgresql:e&#45;&gt;NODE&#45;SERVICE_kitsu:w</title>
<path fill="none" stroke="#00ffff" d="M1201.59,-292.79C1279.7,-290.71 1898.62,-274.29 1976.88,-272.22"/>
<ellipse fill="#00ffff" stroke="#00ffff" cx="1197.5" cy="-292.89" rx="4" ry="4"/>
<ellipse fill="#00ffff" stroke="#00ffff" cx="1981" cy="-272.11" rx="4" ry="4"/>
</g>
<!-- /home/user/git/repos/OpenStudioLandscapes/.landscapes/2025&#45;07&#45;10&#45;22&#45;36&#45;50&#45;47cd6c0a7dd141429707ab6d91190a27/Kitsu__Kitsu/data/kitsu/postgresql&#45;&gt;NODE&#45;SERVICE_kitsu&#45;init&#45;db -->
<g id="edge6" class="edge">
<title>/home/user/git/repos/OpenStudioLandscapes/.landscapes/2025&#45;07&#45;10&#45;22&#45;36&#45;50&#45;47cd6c0a7dd141429707ab6d91190a27/Kitsu__Kitsu/data/kitsu/postgresql:e&#45;&gt;NODE&#45;SERVICE_kitsu&#45;init&#45;db:w</title>
<path fill="none" stroke="#00ffff" d="M1200.91,-292.72C1367.4,-287.21 3951.96,-201.69 4115.86,-196.27"/>
<ellipse fill="#00ffff" stroke="#00ffff" cx="1196.5" cy="-292.87" rx="4" ry="4"/>
<ellipse fill="#00ffff" stroke="#00ffff" cx="4120" cy="-196.13" rx="4" ry="4"/>
</g>
<!-- /home/user/git/repos/OpenStudioLandscapes/.landscapes/2025&#45;07&#45;10&#45;22&#45;36&#45;50&#45;47cd6c0a7dd141429707ab6d91190a27/Kitsu__Kitsu/data/kitsu/previews -->
<g id="node6" class="node">
<title>/home/user/git/repos/OpenStudioLandscapes/.landscapes/2025&#45;07&#45;10&#45;22&#45;36&#45;50&#45;47cd6c0a7dd141429707ab6d91190a27/Kitsu__Kitsu/data/kitsu/previews</title>
<path fill="#00ffff" stroke="black" d="M1175,-253C1175,-253 112,-253 112,-253 106,-253 100,-247 100,-241 100,-241 100,-229 100,-229 100,-223 106,-217 112,-217 112,-217 1175,-217 1175,-217 1181,-217 1187,-223 1187,-229 1187,-229 1187,-241 1187,-241 1187,-247 1181,-253 1175,-253"/>
<text text-anchor="middle" x="643.5" y="-231.3" font-family="Helvetica,sans-Serif" font-size="14.00">/home/user/git/repos/OpenStudioLandscapes/.landscapes/2025&#45;07&#45;10&#45;22&#45;36&#45;50&#45;47cd6c0a7dd141429707ab6d91190a27/Kitsu__Kitsu/data/kitsu/previews</text>
</g>
<!-- /home/user/git/repos/OpenStudioLandscapes/.landscapes/2025&#45;07&#45;10&#45;22&#45;36&#45;50&#45;47cd6c0a7dd141429707ab6d91190a27/Kitsu__Kitsu/data/kitsu/previews&#45;&gt;NODE&#45;SERVICE_kitsu -->
<g id="edge5" class="edge">
<title>/home/user/git/repos/OpenStudioLandscapes/.landscapes/2025&#45;07&#45;10&#45;22&#45;36&#45;50&#45;47cd6c0a7dd141429707ab6d91190a27/Kitsu__Kitsu/data/kitsu/previews:e&#45;&gt;NODE&#45;SERVICE_kitsu:w</title>
<path fill="none" stroke="#00ffff" d="M1196.64,-235.2C1275.24,-237.18 1898.07,-252.82 1976.82,-254.79"/>
<ellipse fill="#00ffff" stroke="#00ffff" cx="1192.5" cy="-235.1" rx="4" ry="4"/>
<ellipse fill="#00ffff" stroke="#00ffff" cx="1981" cy="-254.9" rx="4" ry="4"/>
</g>
<!-- kitsu -->
<g id="node7" class="node">
<title>kitsu</title>
<path fill="#ffa500" stroke="black" d="M658.5,-83C658.5,-83 628.5,-83 628.5,-83 622.5,-83 616.5,-77 616.5,-71 616.5,-71 616.5,-59 616.5,-59 616.5,-53 622.5,-47 628.5,-47 628.5,-47 658.5,-47 658.5,-47 664.5,-47 670.5,-53 670.5,-59 670.5,-59 670.5,-71 670.5,-71 670.5,-77 664.5,-83 658.5,-83"/>
<text text-anchor="middle" x="643.5" y="-61.3" font-family="Helvetica,sans-Serif" font-size="14.00">kitsu</text>
</g>
<!-- kitsu&#45;&gt;NODE&#45;SERVICE_kitsu -->
<g id="edge7" class="edge">
<title>kitsu:e&#45;&gt;NODE&#45;SERVICE_kitsu:w</title>
<path fill="none" stroke="#ffa500" d="M679.55,-65.8C784.06,-76.23 1873.06,-184.84 1977.04,-195.21"/>
<ellipse fill="#ffa500" stroke="#ffa500" cx="675.48" cy="-65.4" rx="4" ry="4"/>
<ellipse fill="#ffa500" stroke="#ffa500" cx="1981.02" cy="-195.6" rx="4" ry="4"/>
</g>
</g>
</svg>
