<?xml version="1.0" encoding="UTF-8" standalone="no"?>
<!DOCTYPE svg PUBLIC "-//W3C//DTD SVG 1.1//EN"
 "http://www.w3.org/Graphics/SVG/1.1/DTD/svg11.dtd">
<!-- Generated by graphviz version 2.43.0 (0)
 -->
<!-- Title: main_graph Pages: 1 -->
<svg width="5736pt" height="932pt"
 viewBox="0.00 0.00 5736.00 932.00" xmlns="http://www.w3.org/2000/svg" xmlns:xlink="http://www.w3.org/1999/xlink">
<g id="graph0" class="graph" transform="scale(1 1) rotate(0) translate(108 824)">
<title>main_graph</title>
<polygon fill="#2f2f2f" stroke="transparent" points="-108,108 -108,-824 5628,-824 5628,108 -108,108"/>
<text text-anchor="middle" x="2760" y="-7.8" font-family="Helvetica,sans-Serif" font-size="14.00">2025&#45;07&#45;09&#45;10&#45;57&#45;24&#45;9749b6a35f504cce82b6622608cf10a9/Kitsu__Kitsu/Kitsu__DOCKER_COMPOSE/docker_compose/docker&#45;compose.yml</text>
<g id="clust1" class="cluster">
<title>cluster_cluster_root_services_2025&#45;07&#45;09&#45;10&#45;57&#45;24&#45;9749b6a35f504cce82b6622608cf10a9&#45;default</title>
<path fill="#ff00ff" fill-opacity="0.062745" stroke="#ff00ff" d="M1970,-194C1970,-194 5500,-194 5500,-194 5506,-194 5512,-200 5512,-206 5512,-206 5512,-696 5512,-696 5512,-702 5506,-708 5500,-708 5500,-708 1970,-708 1970,-708 1964,-708 1958,-702 1958,-696 1958,-696 1958,-206 1958,-206 1958,-200 1964,-194 1970,-194"/>
<text text-anchor="middle" x="3735" y="-672" font-family="Helvetica,sans-Serif" font-size="40.00" fill="#ff00ff">Compose Services (2025&#45;07&#45;09&#45;10&#45;57&#45;24&#45;9749b6a35f504cce82b6622608cf10a9&#45;default)</text>
</g>
<g id="clust2" class="cluster">
<title>cluster_cluster_service_kitsu</title>
<path fill="#00ffff" fill-opacity="0.062745" stroke="white" d="M1978,-202C1978,-202 3379,-202 3379,-202 3385,-202 3391,-208 3391,-214 3391,-214 3391,-636 3391,-636 3391,-642 3385,-648 3379,-648 3379,-648 1978,-648 1978,-648 1972,-648 1966,-642 1966,-636 1966,-636 1966,-214 1966,-214 1966,-208 1972,-202 1978,-202"/>
<text text-anchor="middle" x="2678.5" y="-612" font-family="Helvetica,sans-Serif" font-size="40.00" fill="white">kitsu</text>
</g>
<g id="clust3" class="cluster">
<title>cluster_cluster_service_kitsu&#45;init&#45;db</title>
<path fill="#00ffff" fill-opacity="0.062745" stroke="white" d="M4107,-202C4107,-202 5492,-202 5492,-202 5498,-202 5504,-208 5504,-214 5504,-214 5504,-524 5504,-524 5504,-530 5498,-536 5492,-536 5492,-536 4107,-536 4107,-536 4101,-536 4095,-530 4095,-524 4095,-524 4095,-214 4095,-214 4095,-208 4101,-202 4107,-202"/>
<text text-anchor="middle" x="4799.5" y="-500" font-family="Helvetica,sans-Serif" font-size="40.00" fill="white">kitsu&#45;init&#45;db</text>
</g>
<g id="clust4" class="cluster">
<title>cluster_cluster_host</title>
<path fill="#000000" fill-opacity="0.062745" stroke="#000000" d="M20,-31C20,-31 1258,-31 1258,-31 1264,-31 1270,-37 1270,-43 1270,-43 1270,-621 1270,-621 1270,-627 1264,-633 1258,-633 1258,-633 20,-633 20,-633 14,-633 8,-627 8,-621 8,-621 8,-43 8,-43 8,-37 14,-31 20,-31"/>
<text text-anchor="middle" x="639" y="-597" font-family="Helvetica,sans-Serif" font-size="40.00" fill="#000000">Host</text>
</g>
<g id="clust5" class="cluster">
<title>cluster_cluster_root_ports</title>
<path fill="#ffffff" fill-opacity="0.062745" stroke="#ffffff" d="M500.55,-437C500.55,-437 777.45,-437 777.45,-437 783.45,-437 789.45,-443 789.45,-449 789.45,-449 789.45,-561 789.45,-561 789.45,-567 783.45,-573 777.45,-573 777.45,-573 500.55,-573 500.55,-573 494.55,-573 488.55,-567 488.55,-561 488.55,-561 488.55,-449 488.55,-449 488.55,-443 494.55,-437 500.55,-437"/>
<text text-anchor="middle" x="639" y="-537" font-family="Helvetica,sans-Serif" font-size="40.00" fill="#ffffff">Exposed Ports</text>
</g>
<g id="clust6" class="cluster">
<title>cluster_cluster_root_volumes</title>
<path fill="#00ffff" fill-opacity="0.062745" stroke="#00ffff" d="M28,-151C28,-151 1250,-151 1250,-151 1256,-151 1262,-157 1262,-163 1262,-163 1262,-417 1262,-417 1262,-423 1256,-429 1250,-429 1250,-429 28,-429 28,-429 22,-429 16,-423 16,-417 16,-417 16,-163 16,-163 16,-157 22,-151 28,-151"/>
<text text-anchor="middle" x="639" y="-393" font-family="Helvetica,sans-Serif" font-size="40.00" fill="#00ffff">Mounted Volumes</text>
</g>
<g id="clust7" class="cluster">
<title>cluster_cluster_root_networks</title>
<path fill="#ffa500" fill-opacity="0.062745" stroke="#ffa500" d="M548,-39C548,-39 730,-39 730,-39 736,-39 742,-45 742,-51 742,-51 742,-131 742,-131 742,-137 736,-143 730,-143 730,-143 548,-143 548,-143 542,-143 536,-137 536,-131 536,-131 536,-51 536,-51 536,-45 542,-39 548,-39"/>
<text text-anchor="middle" x="639" y="-107" font-family="Helvetica,sans-Serif" font-size="40.00" fill="#ffa500">Networks</text>
</g>
<!-- NODE&#45;SERVICE_kitsu -->
<g id="node1" class="node">
<title>NODE&#45;SERVICE_kitsu</title>
<polygon fill="#a0a0a0" stroke="transparent" points="3383,-588.5 1974,-588.5 1974,-209.5 3383,-209.5 3383,-588.5"/>
<polygon fill="none" stroke="#0a0a0a" points="1975.5,-570 1975.5,-587 2379.5,-587 2379.5,-570 1975.5,-570"/>
<text text-anchor="start" x="2192.5" y="-574.8" font-family="Helvetica,sans-Serif" font-size="14.00"> &#160;&#160;&#160;&#160;&#160;&#160;&#160;&#160;&#160;&#160;&#160;service_name &#160;&#160;&#160;&#160;&#160;&#160;&#160;</text>
<polygon fill="none" stroke="#0a0a0a" points="2379.5,-570 2379.5,-587 3382.5,-587 3382.5,-570 2379.5,-570"/>
<text text-anchor="start" x="2380.5" y="-574.8" font-family="Helvetica,sans-Serif" font-size="14.00"> &#160;&#160;&#160;&#160;&#160;&#160;&#160;&#160;&#160;&#160;&#160;kitsu &#160;&#160;&#160;&#160;&#160;&#160;&#160;</text>
<polygon fill="none" stroke="#0a0a0a" points="1975.5,-553 1975.5,-570 2379.5,-570 2379.5,-553 1975.5,-553"/>
<text text-anchor="start" x="2176.5" y="-557.8" font-family="Helvetica,sans-Serif" font-size="14.00"> &#160;&#160;&#160;&#160;&#160;&#160;&#160;&#160;&#160;&#160;&#160;container_name &#160;&#160;&#160;&#160;&#160;&#160;&#160;</text>
<polygon fill="none" stroke="#0a0a0a" points="2379.5,-553 2379.5,-570 3382.5,-570 3382.5,-553 2379.5,-553"/>
<text text-anchor="start" x="2380.5" y="-557.8" font-family="Helvetica,sans-Serif" font-size="14.00"> &#160;&#160;&#160;&#160;&#160;&#160;&#160;&#160;&#160;&#160;&#160;kitsu&#45;&#45;2025&#45;07&#45;09&#45;10&#45;57&#45;24&#45;9749b6a35f504cce82b6622608cf10a9 &#160;&#160;&#160;&#160;&#160;&#160;&#160;</text>
<polygon fill="none" stroke="#0a0a0a" points="1975.5,-536 1975.5,-553 2379.5,-553 2379.5,-536 1975.5,-536"/>
<text text-anchor="start" x="2218.5" y="-540.8" font-family="Helvetica,sans-Serif" font-size="14.00"> &#160;&#160;&#160;&#160;&#160;&#160;&#160;&#160;&#160;&#160;&#160;hostname &#160;&#160;&#160;&#160;&#160;&#160;&#160;</text>
<polygon fill="none" stroke="#0a0a0a" points="2379.5,-536 2379.5,-553 3382.5,-553 3382.5,-536 2379.5,-536"/>
<text text-anchor="start" x="2380.5" y="-540.8" font-family="Helvetica,sans-Serif" font-size="14.00"> &#160;&#160;&#160;&#160;&#160;&#160;&#160;&#160;&#160;&#160;&#160;kitsu.farm.evil &#160;&#160;&#160;&#160;&#160;&#160;&#160;</text>
<polygon fill="none" stroke="#0a0a0a" points="1975.5,-519 1975.5,-536 2379.5,-536 2379.5,-519 1975.5,-519"/>
<text text-anchor="start" x="2197.5" y="-523.8" font-family="Helvetica,sans-Serif" font-size="14.00"> &#160;&#160;&#160;&#160;&#160;&#160;&#160;&#160;&#160;&#160;&#160;domainname &#160;&#160;&#160;&#160;&#160;&#160;&#160;</text>
<polygon fill="none" stroke="#0a0a0a" points="2379.5,-519 2379.5,-536 3382.5,-536 3382.5,-519 2379.5,-519"/>
<text text-anchor="start" x="2380.5" y="-523.8" font-family="Helvetica,sans-Serif" font-size="14.00"> &#160;&#160;&#160;&#160;&#160;&#160;&#160;&#160;&#160;&#160;&#160;farm.evil &#160;&#160;&#160;&#160;&#160;&#160;&#160;</text>
<polygon fill="none" stroke="#0a0a0a" points="1975.5,-502 1975.5,-519 2379.5,-519 2379.5,-502 1975.5,-502"/>
<text text-anchor="start" x="2242.5" y="-506.8" font-family="Helvetica,sans-Serif" font-size="14.00"> &#160;&#160;&#160;&#160;&#160;&#160;&#160;&#160;&#160;&#160;&#160;restart &#160;&#160;&#160;&#160;&#160;&#160;&#160;</text>
<polygon fill="none" stroke="#0a0a0a" points="2379.5,-502 2379.5,-519 3382.5,-519 3382.5,-502 2379.5,-502"/>
<text text-anchor="start" x="2380.5" y="-506.8" font-family="Helvetica,sans-Serif" font-size="14.00"> &#160;&#160;&#160;&#160;&#160;&#160;&#160;&#160;&#160;&#160;&#160;always &#160;&#160;&#160;&#160;&#160;&#160;&#160;</text>
<polygon fill="none" stroke="#0a0a0a" points="1975.5,-485 1975.5,-502 2379.5,-502 2379.5,-485 1975.5,-485"/>
<text text-anchor="start" x="2245.5" y="-489.8" font-family="Helvetica,sans-Serif" font-size="14.00"> &#160;&#160;&#160;&#160;&#160;&#160;&#160;&#160;&#160;&#160;&#160;image &#160;&#160;&#160;&#160;&#160;&#160;&#160;</text>
<polygon fill="none" stroke="#0a0a0a" points="2379.5,-485 2379.5,-502 3382.5,-502 3382.5,-485 2379.5,-485"/>
<text text-anchor="start" x="2380.5" y="-489.8" font-family="Helvetica,sans-Serif" font-size="14.00"> &#160;&#160;&#160;&#160;&#160;&#160;&#160;&#160;&#160;&#160;&#160;docker.io/openstudiolandscapes_kitsu_build_docker_image:2025&#45;07&#45;09&#45;10&#45;57&#45;24&#45;9749b6a35f504cce82b6622608cf10a9 &#160;&#160;&#160;&#160;&#160;&#160;&#160;</text>
<polygon fill="none" stroke="#0a0a0a" points="1975.5,-468 1975.5,-485 2379.5,-485 2379.5,-468 1975.5,-468"/>
<text text-anchor="start" x="2099.5" y="-472.8" font-family="Helvetica,sans-Serif" font-size="14.00"> &#160;&#160;&#160;&#160;&#160;&#160;&#160;&#160;&#160;&#160;&#160;command (ENTRYPOINT +) &#160;&#160;&#160;&#160;&#160;&#160;&#160;</text>
<polygon fill="none" stroke="#0a0a0a" points="2379.5,-468 2379.5,-485 3382.5,-485 3382.5,-468 2379.5,-468"/>
<text text-anchor="start" x="2380.5" y="-472.8" font-family="Helvetica,sans-Serif" font-size="14.00"> &#160;&#160;&#160;&#160;&#160;&#160;&#160;&#160;&#160;&#160;&#160;bash /opt/zou/start_zou.sh &#160;&#160;&#160;&#160;&#160;&#160;&#160;</text>
<polygon fill="none" stroke="#0a0a0a" points="1975.5,-447 1975.5,-468 2379.5,-468 2379.5,-447 1975.5,-447"/>
<text text-anchor="start" x="2143.5" y="-453.8" font-family="Helvetica,sans-Serif" font-size="14.00"> &#160;&#160;&#160;&#160;&#160;&#160;&#160;&#160;&#160;&#160;&#160;&#160;&#160;&#160;&#160;depends_on (1) &#160;&#160;&#160;&#160;&#160;&#160;&#160;&#160;&#160;&#160;&#160;</text>
<polygon fill="none" stroke="#0a0a0a" points="2379.5,-447 2379.5,-468 3382.5,-468 3382.5,-447 2379.5,-447"/>
<polygon fill="none" stroke="#0a0a0a" points="2381.5,-449 2381.5,-466 3380.5,-466 3380.5,-449 2381.5,-449"/>
<text text-anchor="start" x="2382.5" y="-453.8" font-family="Helvetica,sans-Serif" font-size="14.00"> &#160;&#160;&#160;&#160;&#160;&#160;&#160;&#160;&#160;&#160;&#160;&#160;&#160;&#160;&#160;&#160;&#160;&#160;&#160;&#160;&#160;&#160;&#160;&#160;&#160;&#160;&#160;kitsu&#45;init&#45;db (condition: service_completed_successfully) &#160;&#160;&#160;&#160;&#160;&#160;&#160;&#160;&#160;&#160;&#160;&#160;&#160;&#160;&#160;&#160;&#160;&#160;&#160;&#160;&#160;&#160;&#160;</text>
<polygon fill="none" stroke="#0a0a0a" points="2380.5,-448 2380.5,-467 3381.5,-467 3381.5,-448 2380.5,-448"/>
<polygon fill="none" stroke="#0a0a0a" points="1975.5,-341 1975.5,-447 2379.5,-447 2379.5,-341 1975.5,-341"/>
<text text-anchor="start" x="2140.5" y="-390.3" font-family="Helvetica,sans-Serif" font-size="14.00"> &#160;&#160;&#160;&#160;&#160;&#160;&#160;&#160;&#160;&#160;&#160;&#160;&#160;&#160;&#160;environment (6) &#160;&#160;&#160;&#160;&#160;&#160;&#160;&#160;&#160;&#160;&#160;</text>
<polygon fill="none" stroke="#0a0a0a" points="2379.5,-341 2379.5,-447 3382.5,-447 3382.5,-341 2379.5,-341"/>
<polygon fill="none" stroke="#0a0a0a" points="2381.5,-428 2381.5,-445 3380.5,-445 3380.5,-428 2381.5,-428"/>
<text text-anchor="start" x="2382.5" y="-432.8" font-family="Helvetica,sans-Serif" font-size="14.00"> &#160;&#160;&#160;&#160;&#160;&#160;&#160;&#160;&#160;&#160;&#160;&#160;&#160;&#160;&#160;&#160;&#160;&#160;&#160;&#160;&#160;&#160;&#160;&#160;&#160;&#160;&#160;DB_PASSWORD=mysecretpassword &#160;&#160;&#160;&#160;&#160;&#160;&#160;&#160;&#160;&#160;&#160;&#160;&#160;&#160;&#160;&#160;&#160;&#160;&#160;&#160;&#160;&#160;&#160;</text>
<polygon fill="none" stroke="#0a0a0a" points="2381.5,-411 2381.5,-428 3380.5,-428 3380.5,-411 2381.5,-411"/>
<text text-anchor="start" x="2382.5" y="-415.8" font-family="Helvetica,sans-Serif" font-size="14.00"> &#160;&#160;&#160;&#160;&#160;&#160;&#160;&#160;&#160;&#160;&#160;&#160;&#160;&#160;&#160;&#160;&#160;&#160;&#160;&#160;&#160;&#160;&#160;&#160;&#160;&#160;&#160;ENABLE_JOB_QUEUE=True &#160;&#160;&#160;&#160;&#160;&#160;&#160;&#160;&#160;&#160;&#160;&#160;&#160;&#160;&#160;&#160;&#160;&#160;&#160;&#160;&#160;&#160;&#160;</text>
<polygon fill="none" stroke="#0a0a0a" points="2381.5,-394 2381.5,-411 3380.5,-411 3380.5,-394 2381.5,-394"/>
<text text-anchor="start" x="2382.5" y="-398.8" font-family="Helvetica,sans-Serif" font-size="14.00"> &#160;&#160;&#160;&#160;&#160;&#160;&#160;&#160;&#160;&#160;&#160;&#160;&#160;&#160;&#160;&#160;&#160;&#160;&#160;&#160;&#160;&#160;&#160;&#160;&#160;&#160;&#160;KITSU_ADMIN=admin@example.com &#160;&#160;&#160;&#160;&#160;&#160;&#160;&#160;&#160;&#160;&#160;&#160;&#160;&#160;&#160;&#160;&#160;&#160;&#160;&#160;&#160;&#160;&#160;</text>
<polygon fill="none" stroke="#0a0a0a" points="2381.5,-377 2381.5,-394 3380.5,-394 3380.5,-377 2381.5,-377"/>
<text text-anchor="start" x="2382.5" y="-381.8" font-family="Helvetica,sans-Serif" font-size="14.00"> &#160;&#160;&#160;&#160;&#160;&#160;&#160;&#160;&#160;&#160;&#160;&#160;&#160;&#160;&#160;&#160;&#160;&#160;&#160;&#160;&#160;&#160;&#160;&#160;&#160;&#160;&#160;PREVIEW_FOLDER=/opt/zou/previews &#160;&#160;&#160;&#160;&#160;&#160;&#160;&#160;&#160;&#160;&#160;&#160;&#160;&#160;&#160;&#160;&#160;&#160;&#160;&#160;&#160;&#160;&#160;</text>
<polygon fill="none" stroke="#0a0a0a" points="2381.5,-360 2381.5,-377 3380.5,-377 3380.5,-360 2381.5,-360"/>
<text text-anchor="start" x="2382.5" y="-364.8" font-family="Helvetica,sans-Serif" font-size="14.00"> &#160;&#160;&#160;&#160;&#160;&#160;&#160;&#160;&#160;&#160;&#160;&#160;&#160;&#160;&#160;&#160;&#160;&#160;&#160;&#160;&#160;&#160;&#160;&#160;&#160;&#160;&#160;SECRET_KEY=yourrandomsecretkey &#160;&#160;&#160;&#160;&#160;&#160;&#160;&#160;&#160;&#160;&#160;&#160;&#160;&#160;&#160;&#160;&#160;&#160;&#160;&#160;&#160;&#160;&#160;</text>
<polygon fill="none" stroke="#0a0a0a" points="2381.5,-343 2381.5,-360 3380.5,-360 3380.5,-343 2381.5,-343"/>
<text text-anchor="start" x="2382.5" y="-347.8" font-family="Helvetica,sans-Serif" font-size="14.00"> &#160;&#160;&#160;&#160;&#160;&#160;&#160;&#160;&#160;&#160;&#160;&#160;&#160;&#160;&#160;&#160;&#160;&#160;&#160;&#160;&#160;&#160;&#160;&#160;&#160;&#160;&#160;TMP_DIR=/opt/zou/tmp &#160;&#160;&#160;&#160;&#160;&#160;&#160;&#160;&#160;&#160;&#160;&#160;&#160;&#160;&#160;&#160;&#160;&#160;&#160;&#160;&#160;&#160;&#160;</text>
<polygon fill="none" stroke="#0a0a0a" points="2380.5,-342 2380.5,-446 3381.5,-446 3381.5,-342 2380.5,-342"/>
<polygon fill="none" stroke="#0a0a0a" points="1975.5,-252 1975.5,-341 2379.5,-341 2379.5,-252 1975.5,-252"/>
<polygon fill="none" stroke="#0a0a0a" points="1977.5,-322 1977.5,-339 2377.5,-339 2377.5,-322 1977.5,-322"/>
<text text-anchor="start" x="1978.5" y="-326.8" font-family="Helvetica,sans-Serif" font-size="14.00"> &#160;&#160;&#160;&#160;&#160;&#160;&#160;&#160;&#160;&#160;&#160;&#160;&#160;&#160;&#160;&#160;&#160;&#160;&#160;&#160;&#160;&#160;&#160;&#160;&#160;&#160;&#160;/var/lib/postgresql:rw &#160;&#160;&#160;&#160;&#160;&#160;&#160;&#160;&#160;&#160;&#160;&#160;&#160;&#160;&#160;&#160;&#160;&#160;&#160;&#160;&#160;&#160;&#160;</text>
<polygon fill="none" stroke="#0a0a0a" points="1977.5,-305 1977.5,-322 2377.5,-322 2377.5,-305 1977.5,-305"/>
<text text-anchor="start" x="1978.5" y="-309.8" font-family="Helvetica,sans-Serif" font-size="14.00"> &#160;&#160;&#160;&#160;&#160;&#160;&#160;&#160;&#160;&#160;&#160;&#160;&#160;&#160;&#160;&#160;&#160;&#160;&#160;&#160;&#160;&#160;&#160;&#160;&#160;&#160;&#160;/opt/zou/previews:rw &#160;&#160;&#160;&#160;&#160;&#160;&#160;&#160;&#160;&#160;&#160;&#160;&#160;&#160;&#160;&#160;&#160;&#160;&#160;&#160;&#160;&#160;&#160;</text>
<polygon fill="none" stroke="#0a0a0a" points="1977.5,-288 1977.5,-305 2377.5,-305 2377.5,-288 1977.5,-288"/>
<text text-anchor="start" x="1978.5" y="-292.8" font-family="Helvetica,sans-Serif" font-size="14.00"> &#160;&#160;&#160;&#160;&#160;&#160;&#160;&#160;&#160;&#160;&#160;&#160;&#160;&#160;&#160;&#160;&#160;&#160;&#160;&#160;&#160;&#160;&#160;&#160;&#160;&#160;&#160;/data/share/nfs:rw &#160;&#160;&#160;&#160;&#160;&#160;&#160;&#160;&#160;&#160;&#160;&#160;&#160;&#160;&#160;&#160;&#160;&#160;&#160;&#160;&#160;&#160;&#160;</text>
<polygon fill="none" stroke="#0a0a0a" points="1977.5,-271 1977.5,-288 2377.5,-288 2377.5,-271 1977.5,-271"/>
<text text-anchor="start" x="1978.5" y="-275.8" font-family="Helvetica,sans-Serif" font-size="14.00"> &#160;&#160;&#160;&#160;&#160;&#160;&#160;&#160;&#160;&#160;&#160;&#160;&#160;&#160;&#160;&#160;&#160;&#160;&#160;&#160;&#160;&#160;&#160;&#160;&#160;&#160;&#160;/nfs:rw &#160;&#160;&#160;&#160;&#160;&#160;&#160;&#160;&#160;&#160;&#160;&#160;&#160;&#160;&#160;&#160;&#160;&#160;&#160;&#160;&#160;&#160;&#160;</text>
<polygon fill="none" stroke="#0a0a0a" points="1977.5,-254 1977.5,-271 2377.5,-271 2377.5,-254 1977.5,-254"/>
<text text-anchor="start" x="1978.5" y="-258.8" font-family="Helvetica,sans-Serif" font-size="14.00"> &#160;&#160;&#160;&#160;&#160;&#160;&#160;&#160;&#160;&#160;&#160;&#160;&#160;&#160;&#160;&#160;&#160;&#160;&#160;&#160;&#160;&#160;&#160;&#160;&#160;&#160;&#160;/etc/supervisord.conf:ro &#160;&#160;&#160;&#160;&#160;&#160;&#160;&#160;&#160;&#160;&#160;&#160;&#160;&#160;&#160;&#160;&#160;&#160;&#160;&#160;&#160;&#160;&#160;</text>
<polygon fill="none" stroke="#0a0a0a" points="1976.5,-253 1976.5,-340 2378.5,-340 2378.5,-253 1976.5,-253"/>
<polygon fill="none" stroke="#0a0a0a" points="2379.5,-252 2379.5,-341 3382.5,-341 3382.5,-252 2379.5,-252"/>
<text text-anchor="start" x="2380.5" y="-292.8" font-family="Helvetica,sans-Serif" font-size="14.00"> &#160;&#160;&#160;&#160;&#160;&#160;&#160;&#160;&#160;&#160;&#160;&#160;&#160;&#160;&#160;volumes (5) &#160;&#160;&#160;&#160;&#160;&#160;&#160;&#160;&#160;&#160;&#160;</text>
<polygon fill="none" stroke="#0a0a0a" points="1975.5,-231 1975.5,-252 2379.5,-252 2379.5,-231 1975.5,-231"/>
<polygon fill="none" stroke="#0a0a0a" points="1977.5,-233 1977.5,-250 2377.5,-250 2377.5,-233 1977.5,-233"/>
<text text-anchor="start" x="1978.5" y="-237.8" font-family="Helvetica,sans-Serif" font-size="14.00"> &#160;&#160;&#160;&#160;&#160;&#160;&#160;&#160;&#160;&#160;&#160;&#160;&#160;&#160;&#160;&#160;&#160;&#160;&#160;&#160;&#160;&#160;&#160;&#160;&#160;&#160;&#160;4545 → 80 &#160;&#160;&#160;&#160;&#160;&#160;&#160;&#160;&#160;&#160;&#160;&#160;&#160;&#160;&#160;&#160;&#160;&#160;&#160;&#160;&#160;&#160;&#160;</text>
<polygon fill="none" stroke="#0a0a0a" points="1976.5,-232 1976.5,-251 2378.5,-251 2378.5,-232 1976.5,-232"/>
<polygon fill="none" stroke="#0a0a0a" points="2379.5,-231 2379.5,-252 3382.5,-252 3382.5,-231 2379.5,-231"/>
<text text-anchor="start" x="2380.5" y="-237.8" font-family="Helvetica,sans-Serif" font-size="14.00"> &#160;&#160;&#160;&#160;&#160;&#160;&#160;&#160;&#160;&#160;&#160;&#160;&#160;&#160;&#160;ports (1) &#160;&#160;&#160;&#160;&#160;&#160;&#160;&#160;&#160;&#160;&#160;</text>
<polygon fill="none" stroke="#0a0a0a" points="1975.5,-210 1975.5,-231 2379.5,-231 2379.5,-210 1975.5,-210"/>
<polygon fill="none" stroke="#0a0a0a" points="1977.5,-212 1977.5,-229 2377.5,-229 2377.5,-212 1977.5,-212"/>
<text text-anchor="start" x="1978.5" y="-216.8" font-family="Helvetica,sans-Serif" font-size="14.00"> &#160;&#160;&#160;&#160;&#160;&#160;&#160;&#160;&#160;&#160;&#160;&#160;&#160;&#160;&#160;&#160;&#160;&#160;&#160;&#160;&#160;&#160;&#160;&#160;&#160;&#160;&#160;kitsu &#160;&#160;&#160;&#160;&#160;&#160;&#160;&#160;&#160;&#160;&#160;&#160;&#160;&#160;&#160;&#160;&#160;&#160;&#160;&#160;&#160;&#160;&#160;</text>
<polygon fill="none" stroke="#0a0a0a" points="1976.5,-211 1976.5,-230 2378.5,-230 2378.5,-211 1976.5,-211"/>
<polygon fill="none" stroke="#0a0a0a" points="2379.5,-210 2379.5,-231 3382.5,-231 3382.5,-210 2379.5,-210"/>
<text text-anchor="start" x="2380.5" y="-216.8" font-family="Helvetica,sans-Serif" font-size="14.00"> &#160;&#160;&#160;&#160;&#160;&#160;&#160;&#160;&#160;&#160;&#160;&#160;&#160;&#160;&#160;networks (1) &#160;&#160;&#160;&#160;&#160;&#160;&#160;&#160;&#160;&#160;&#160;</text>
<polygon fill="none" stroke="#0a0a0a" points="1974,-209.5 1974,-588.5 3383,-588.5 3383,-209.5 1974,-209.5"/>
</g>
<!-- NODE&#45;SERVICE_kitsu&#45;init&#45;db -->
<g id="node2" class="node">
<title>NODE&#45;SERVICE_kitsu&#45;init&#45;db</title>
<polygon fill="#a0a0a0" stroke="transparent" points="5496,-475.5 4103,-475.5 4103,-210.5 5496,-210.5 5496,-475.5"/>
<polygon fill="none" stroke="#0a0a0a" points="4104.5,-457 4104.5,-474 4492.5,-474 4492.5,-457 4104.5,-457"/>
<text text-anchor="start" x="4305.5" y="-461.8" font-family="Helvetica,sans-Serif" font-size="14.00"> &#160;&#160;&#160;&#160;&#160;&#160;&#160;&#160;&#160;&#160;&#160;service_name &#160;&#160;&#160;&#160;&#160;&#160;&#160;</text>
<polygon fill="none" stroke="#0a0a0a" points="4492.5,-457 4492.5,-474 5495.5,-474 5495.5,-457 4492.5,-457"/>
<text text-anchor="start" x="4493.5" y="-461.8" font-family="Helvetica,sans-Serif" font-size="14.00"> &#160;&#160;&#160;&#160;&#160;&#160;&#160;&#160;&#160;&#160;&#160;kitsu&#45;init&#45;db &#160;&#160;&#160;&#160;&#160;&#160;&#160;</text>
<polygon fill="none" stroke="#0a0a0a" points="4104.5,-440 4104.5,-457 4492.5,-457 4492.5,-440 4104.5,-440"/>
<text text-anchor="start" x="4289.5" y="-444.8" font-family="Helvetica,sans-Serif" font-size="14.00"> &#160;&#160;&#160;&#160;&#160;&#160;&#160;&#160;&#160;&#160;&#160;container_name &#160;&#160;&#160;&#160;&#160;&#160;&#160;</text>
<polygon fill="none" stroke="#0a0a0a" points="4492.5,-440 4492.5,-457 5495.5,-457 5495.5,-440 4492.5,-440"/>
<text text-anchor="start" x="4493.5" y="-444.8" font-family="Helvetica,sans-Serif" font-size="14.00"> &#160;&#160;&#160;&#160;&#160;&#160;&#160;&#160;&#160;&#160;&#160;kitsu&#45;init&#45;db&#45;&#45;2025&#45;07&#45;09&#45;10&#45;57&#45;24&#45;9749b6a35f504cce82b6622608cf10a9 &#160;&#160;&#160;&#160;&#160;&#160;&#160;</text>
<polygon fill="none" stroke="#0a0a0a" points="4104.5,-423 4104.5,-440 4492.5,-440 4492.5,-423 4104.5,-423"/>
<text text-anchor="start" x="4331.5" y="-427.8" font-family="Helvetica,sans-Serif" font-size="14.00"> &#160;&#160;&#160;&#160;&#160;&#160;&#160;&#160;&#160;&#160;&#160;hostname &#160;&#160;&#160;&#160;&#160;&#160;&#160;</text>
<polygon fill="none" stroke="#0a0a0a" points="4492.5,-423 4492.5,-440 5495.5,-440 5495.5,-423 4492.5,-423"/>
<text text-anchor="start" x="4493.5" y="-427.8" font-family="Helvetica,sans-Serif" font-size="14.00"> &#160;&#160;&#160;&#160;&#160;&#160;&#160;&#160;&#160;&#160;&#160;kitsu&#45;init&#45;db.farm.evil &#160;&#160;&#160;&#160;&#160;&#160;&#160;</text>
<polygon fill="none" stroke="#0a0a0a" points="4104.5,-406 4104.5,-423 4492.5,-423 4492.5,-406 4104.5,-406"/>
<text text-anchor="start" x="4310.5" y="-410.8" font-family="Helvetica,sans-Serif" font-size="14.00"> &#160;&#160;&#160;&#160;&#160;&#160;&#160;&#160;&#160;&#160;&#160;domainname &#160;&#160;&#160;&#160;&#160;&#160;&#160;</text>
<polygon fill="none" stroke="#0a0a0a" points="4492.5,-406 4492.5,-423 5495.5,-423 5495.5,-406 4492.5,-406"/>
<text text-anchor="start" x="4493.5" y="-410.8" font-family="Helvetica,sans-Serif" font-size="14.00"> &#160;&#160;&#160;&#160;&#160;&#160;&#160;&#160;&#160;&#160;&#160;farm.evil &#160;&#160;&#160;&#160;&#160;&#160;&#160;</text>
<polygon fill="none" stroke="#0a0a0a" points="4104.5,-389 4104.5,-406 4492.5,-406 4492.5,-389 4104.5,-389"/>
<text text-anchor="start" x="4355.5" y="-393.8" font-family="Helvetica,sans-Serif" font-size="14.00"> &#160;&#160;&#160;&#160;&#160;&#160;&#160;&#160;&#160;&#160;&#160;restart &#160;&#160;&#160;&#160;&#160;&#160;&#160;</text>
<polygon fill="none" stroke="#0a0a0a" points="4492.5,-389 4492.5,-406 5495.5,-406 5495.5,-389 4492.5,-389"/>
<text text-anchor="start" x="4493.5" y="-393.8" font-family="Helvetica,sans-Serif" font-size="14.00"> &#160;&#160;&#160;&#160;&#160;&#160;&#160;&#160;&#160;&#160;&#160;no &#160;&#160;&#160;&#160;&#160;&#160;&#160;</text>
<polygon fill="none" stroke="#0a0a0a" points="4104.5,-372 4104.5,-389 4492.5,-389 4492.5,-372 4104.5,-372"/>
<text text-anchor="start" x="4358.5" y="-376.8" font-family="Helvetica,sans-Serif" font-size="14.00"> &#160;&#160;&#160;&#160;&#160;&#160;&#160;&#160;&#160;&#160;&#160;image &#160;&#160;&#160;&#160;&#160;&#160;&#160;</text>
<polygon fill="none" stroke="#0a0a0a" points="4492.5,-372 4492.5,-389 5495.5,-389 5495.5,-372 4492.5,-372"/>
<text text-anchor="start" x="4493.5" y="-376.8" font-family="Helvetica,sans-Serif" font-size="14.00"> &#160;&#160;&#160;&#160;&#160;&#160;&#160;&#160;&#160;&#160;&#160;docker.io/openstudiolandscapes_kitsu_build_docker_image:2025&#45;07&#45;09&#45;10&#45;57&#45;24&#45;9749b6a35f504cce82b6622608cf10a9 &#160;&#160;&#160;&#160;&#160;&#160;&#160;</text>
<polygon fill="none" stroke="#0a0a0a" points="4104.5,-355 4104.5,-372 4492.5,-372 4492.5,-355 4104.5,-355"/>
<text text-anchor="start" x="4212.5" y="-359.8" font-family="Helvetica,sans-Serif" font-size="14.00"> &#160;&#160;&#160;&#160;&#160;&#160;&#160;&#160;&#160;&#160;&#160;command (ENTRYPOINT +) &#160;&#160;&#160;&#160;&#160;&#160;&#160;</text>
<polygon fill="none" stroke="#0a0a0a" points="4492.5,-355 4492.5,-372 5495.5,-372 5495.5,-355 4492.5,-355"/>
<text text-anchor="start" x="4493.5" y="-359.8" font-family="Helvetica,sans-Serif" font-size="14.00"> &#160;&#160;&#160;&#160;&#160;&#160;&#160;&#160;&#160;&#160;&#160;/usr/bin/bash /opt/zou/init_db.sh &#160;&#160;&#160;&#160;&#160;&#160;&#160;</text>
<polygon fill="none" stroke="#0a0a0a" points="4104.5,-266 4104.5,-355 4492.5,-355 4492.5,-266 4104.5,-266"/>
<text text-anchor="start" x="4253.5" y="-306.8" font-family="Helvetica,sans-Serif" font-size="14.00"> &#160;&#160;&#160;&#160;&#160;&#160;&#160;&#160;&#160;&#160;&#160;&#160;&#160;&#160;&#160;environment (5) &#160;&#160;&#160;&#160;&#160;&#160;&#160;&#160;&#160;&#160;&#160;</text>
<polygon fill="none" stroke="#0a0a0a" points="4492.5,-266 4492.5,-355 5495.5,-355 5495.5,-266 4492.5,-266"/>
<polygon fill="none" stroke="#0a0a0a" points="4494.5,-336 4494.5,-353 5493.5,-353 5493.5,-336 4494.5,-336"/>
<text text-anchor="start" x="4495.5" y="-340.8" font-family="Helvetica,sans-Serif" font-size="14.00"> &#160;&#160;&#160;&#160;&#160;&#160;&#160;&#160;&#160;&#160;&#160;&#160;&#160;&#160;&#160;&#160;&#160;&#160;&#160;&#160;&#160;&#160;&#160;&#160;&#160;&#160;&#160;DB_PASSWORD=mysecretpassword &#160;&#160;&#160;&#160;&#160;&#160;&#160;&#160;&#160;&#160;&#160;&#160;&#160;&#160;&#160;&#160;&#160;&#160;&#160;&#160;&#160;&#160;&#160;</text>
<polygon fill="none" stroke="#0a0a0a" points="4494.5,-319 4494.5,-336 5493.5,-336 5493.5,-319 4494.5,-319"/>
<text text-anchor="start" x="4495.5" y="-323.8" font-family="Helvetica,sans-Serif" font-size="14.00"> &#160;&#160;&#160;&#160;&#160;&#160;&#160;&#160;&#160;&#160;&#160;&#160;&#160;&#160;&#160;&#160;&#160;&#160;&#160;&#160;&#160;&#160;&#160;&#160;&#160;&#160;&#160;KITSU_ADMIN=admin@example.com &#160;&#160;&#160;&#160;&#160;&#160;&#160;&#160;&#160;&#160;&#160;&#160;&#160;&#160;&#160;&#160;&#160;&#160;&#160;&#160;&#160;&#160;&#160;</text>
<polygon fill="none" stroke="#0a0a0a" points="4494.5,-302 4494.5,-319 5493.5,-319 5493.5,-302 4494.5,-302"/>
<text text-anchor="start" x="4495.5" y="-306.8" font-family="Helvetica,sans-Serif" font-size="14.00"> &#160;&#160;&#160;&#160;&#160;&#160;&#160;&#160;&#160;&#160;&#160;&#160;&#160;&#160;&#160;&#160;&#160;&#160;&#160;&#160;&#160;&#160;&#160;&#160;&#160;&#160;&#160;PREVIEW_FOLDER=/opt/zou/previews &#160;&#160;&#160;&#160;&#160;&#160;&#160;&#160;&#160;&#160;&#160;&#160;&#160;&#160;&#160;&#160;&#160;&#160;&#160;&#160;&#160;&#160;&#160;</text>
<polygon fill="none" stroke="#0a0a0a" points="4494.5,-285 4494.5,-302 5493.5,-302 5493.5,-285 4494.5,-285"/>
<text text-anchor="start" x="4495.5" y="-289.8" font-family="Helvetica,sans-Serif" font-size="14.00"> &#160;&#160;&#160;&#160;&#160;&#160;&#160;&#160;&#160;&#160;&#160;&#160;&#160;&#160;&#160;&#160;&#160;&#160;&#160;&#160;&#160;&#160;&#160;&#160;&#160;&#160;&#160;SECRET_KEY=yourrandomsecretkey &#160;&#160;&#160;&#160;&#160;&#160;&#160;&#160;&#160;&#160;&#160;&#160;&#160;&#160;&#160;&#160;&#160;&#160;&#160;&#160;&#160;&#160;&#160;</text>
<polygon fill="none" stroke="#0a0a0a" points="4494.5,-268 4494.5,-285 5493.5,-285 5493.5,-268 4494.5,-268"/>
<text text-anchor="start" x="4495.5" y="-272.8" font-family="Helvetica,sans-Serif" font-size="14.00"> &#160;&#160;&#160;&#160;&#160;&#160;&#160;&#160;&#160;&#160;&#160;&#160;&#160;&#160;&#160;&#160;&#160;&#160;&#160;&#160;&#160;&#160;&#160;&#160;&#160;&#160;&#160;TMP_DIR=/opt/zou/tmp &#160;&#160;&#160;&#160;&#160;&#160;&#160;&#160;&#160;&#160;&#160;&#160;&#160;&#160;&#160;&#160;&#160;&#160;&#160;&#160;&#160;&#160;&#160;</text>
<polygon fill="none" stroke="#0a0a0a" points="4493.5,-267 4493.5,-354 5494.5,-354 5494.5,-267 4493.5,-267"/>
<polygon fill="none" stroke="#0a0a0a" points="4104.5,-211 4104.5,-266 4492.5,-266 4492.5,-211 4104.5,-211"/>
<polygon fill="none" stroke="#0a0a0a" points="4106.5,-247 4106.5,-264 4490.5,-264 4490.5,-247 4106.5,-247"/>
<text text-anchor="start" x="4107.5" y="-251.8" font-family="Helvetica,sans-Serif" font-size="14.00"> &#160;&#160;&#160;&#160;&#160;&#160;&#160;&#160;&#160;&#160;&#160;&#160;&#160;&#160;&#160;&#160;&#160;&#160;&#160;&#160;&#160;&#160;&#160;&#160;&#160;&#160;&#160;/var/lib/postgresql:rw &#160;&#160;&#160;&#160;&#160;&#160;&#160;&#160;&#160;&#160;&#160;&#160;&#160;&#160;&#160;&#160;&#160;&#160;&#160;&#160;&#160;&#160;&#160;</text>
<polygon fill="none" stroke="#0a0a0a" points="4106.5,-230 4106.5,-247 4490.5,-247 4490.5,-230 4106.5,-230"/>
<text text-anchor="start" x="4107.5" y="-234.8" font-family="Helvetica,sans-Serif" font-size="14.00"> &#160;&#160;&#160;&#160;&#160;&#160;&#160;&#160;&#160;&#160;&#160;&#160;&#160;&#160;&#160;&#160;&#160;&#160;&#160;&#160;&#160;&#160;&#160;&#160;&#160;&#160;&#160;/data/share/nfs:rw &#160;&#160;&#160;&#160;&#160;&#160;&#160;&#160;&#160;&#160;&#160;&#160;&#160;&#160;&#160;&#160;&#160;&#160;&#160;&#160;&#160;&#160;&#160;</text>
<polygon fill="none" stroke="#0a0a0a" points="4106.5,-213 4106.5,-230 4490.5,-230 4490.5,-213 4106.5,-213"/>
<text text-anchor="start" x="4107.5" y="-217.8" font-family="Helvetica,sans-Serif" font-size="14.00"> &#160;&#160;&#160;&#160;&#160;&#160;&#160;&#160;&#160;&#160;&#160;&#160;&#160;&#160;&#160;&#160;&#160;&#160;&#160;&#160;&#160;&#160;&#160;&#160;&#160;&#160;&#160;/nfs:rw &#160;&#160;&#160;&#160;&#160;&#160;&#160;&#160;&#160;&#160;&#160;&#160;&#160;&#160;&#160;&#160;&#160;&#160;&#160;&#160;&#160;&#160;&#160;</text>
<polygon fill="none" stroke="#0a0a0a" points="4105.5,-212 4105.5,-265 4491.5,-265 4491.5,-212 4105.5,-212"/>
<polygon fill="none" stroke="#0a0a0a" points="4492.5,-211 4492.5,-266 5495.5,-266 5495.5,-211 4492.5,-211"/>
<text text-anchor="start" x="4493.5" y="-234.8" font-family="Helvetica,sans-Serif" font-size="14.00"> &#160;&#160;&#160;&#160;&#160;&#160;&#160;&#160;&#160;&#160;&#160;&#160;&#160;&#160;&#160;volumes (3) &#160;&#160;&#160;&#160;&#160;&#160;&#160;&#160;&#160;&#160;&#160;</text>
<polygon fill="none" stroke="#0a0a0a" points="4103,-210.5 4103,-475.5 5496,-475.5 5496,-210.5 4103,-210.5"/>
</g>
<!-- NODE&#45;SERVICE_kitsu&#45;&gt;NODE&#45;SERVICE_kitsu&#45;init&#45;db -->
<g id="edge1" class="edge">
<title>NODE&#45;SERVICE_kitsu:e&#45;&gt;NODE&#45;SERVICE_kitsu&#45;init&#45;db:w</title>
<path fill="none" stroke="yellow" stroke-width="2" d="M3391.71,-458.11C3473.46,-459.02 4020.69,-465.08 4095.12,-465.91"/>
<polygon fill="yellow" stroke="yellow" stroke-width="2" points="3381.54,-454.5 3391.5,-458.11 3381.46,-461.5 3381.54,-454.5"/>
<ellipse fill="yellow" stroke="yellow" stroke-width="2" cx="4099.5" cy="-465.96" rx="4" ry="4"/>
</g>
<!-- kitsu__4545__80 -->
<g id="node3" class="node">
<title>kitsu__4545__80</title>
<ellipse fill="#ffffff" stroke="black" cx="639" cy="-479" rx="34.39" ry="34.39"/>
<text text-anchor="middle" x="639" y="-475.3" font-family="Helvetica,sans-Serif" font-size="14.00">4545</text>
</g>
<!-- kitsu__4545__80&#45;&gt;NODE&#45;SERVICE_kitsu -->
<g id="edge2" class="edge">
<title>kitsu__4545__80:e&#45;&gt;NODE&#45;SERVICE_kitsu:w</title>
<path fill="none" stroke="#ffffff" d="M682.97,-477.54C786.53,-458.61 1865.58,-261.28 1968.61,-242.44"/>
<ellipse fill="#ffffff" stroke="#ffffff" cx="678.93" cy="-478.28" rx="4" ry="4"/>
<ellipse fill="#ffffff" stroke="#ffffff" cx="1972.57" cy="-241.72" rx="4" ry="4"/>
</g>
<!-- /data/share/nfs -->
<g id="node4" class="node">
<title>/data/share/nfs</title>
<path fill="#00ffff" stroke="black" d="M687.5,-253C687.5,-253 590.5,-253 590.5,-253 584.5,-253 578.5,-247 578.5,-241 578.5,-241 578.5,-229 578.5,-229 578.5,-223 584.5,-217 590.5,-217 590.5,-217 687.5,-217 687.5,-217 693.5,-217 699.5,-223 699.5,-229 699.5,-229 699.5,-241 699.5,-241 699.5,-247 693.5,-253 687.5,-253"/>
<text text-anchor="middle" x="639" y="-231.3" font-family="Helvetica,sans-Serif" font-size="14.00">/data/share/nfs</text>
</g>
<!-- /data/share/nfs&#45;&gt;NODE&#45;SERVICE_kitsu -->
<g id="edge3" class="edge">
<title>/data/share/nfs:e&#45;&gt;NODE&#45;SERVICE_kitsu:w</title>
<path fill="none" stroke="#00ffff" d="M708.15,-235.39C811.56,-240.33 1865.76,-290.71 1968.46,-295.62"/>
<ellipse fill="#00ffff" stroke="#00ffff" cx="704" cy="-235.19" rx="4" ry="4"/>
<ellipse fill="#00ffff" stroke="#00ffff" cx="1972.5" cy="-295.81" rx="4" ry="4"/>
</g>
<!-- /data/share/nfs&#45;&gt;NODE&#45;SERVICE_kitsu -->
<g id="edge4" class="edge">
<title>/data/share/nfs:e&#45;&gt;NODE&#45;SERVICE_kitsu:w</title>
<path fill="none" stroke="#00ffff" d="M708.15,-235.28C811.56,-238.85 1865.76,-275.18 1968.46,-278.72"/>
<ellipse fill="#00ffff" stroke="#00ffff" cx="704" cy="-235.14" rx="4" ry="4"/>
<ellipse fill="#00ffff" stroke="#00ffff" cx="1972.5" cy="-278.86" rx="4" ry="4"/>
</g>
<!-- /data/share/nfs&#45;&gt;NODE&#45;SERVICE_kitsu&#45;init&#45;db -->
<g id="edge8" class="edge">
<title>/data/share/nfs:e&#45;&gt;NODE&#45;SERVICE_kitsu&#45;init&#45;db:w</title>
<path fill="none" stroke="#00ffff" d="M707.04,-235.01C883.93,-235.16 3920.6,-237.84 4098.37,-237.99"/>
<ellipse fill="#00ffff" stroke="#00ffff" cx="703" cy="-235" rx="4" ry="4"/>
<ellipse fill="#00ffff" stroke="#00ffff" cx="4102.5" cy="-238" rx="4" ry="4"/>
</g>
<!-- /data/share/nfs&#45;&gt;NODE&#45;SERVICE_kitsu&#45;init&#45;db -->
<g id="edge9" class="edge">
<title>/data/share/nfs:e&#45;&gt;NODE&#45;SERVICE_kitsu&#45;init&#45;db:w</title>
<path fill="none" stroke="#00ffff" d="M707.04,-234.97C883.93,-234.24 3920.6,-221.76 4098.37,-221.03"/>
<ellipse fill="#00ffff" stroke="#00ffff" cx="703" cy="-234.98" rx="4" ry="4"/>
<ellipse fill="#00ffff" stroke="#00ffff" cx="4102.5" cy="-221.02" rx="4" ry="4"/>
</g>
<!-- 2025&#45;07&#45;09&#45;10&#45;57&#45;24&#45;9749b6a35f504cce82b6622608cf10a9/Kitsu__Kitsu/Kitsu__supervisord_conf/supervisord.conf -->
<g id="node5" class="node">
<title>2025&#45;07&#45;09&#45;10&#45;57&#45;24&#45;9749b6a35f504cce82b6622608cf10a9/Kitsu__Kitsu/Kitsu__supervisord_conf/supervisord.conf</title>
<path fill="#00ffff" stroke="black" d="M1242,-195C1242,-195 36,-195 36,-195 30,-195 24,-189 24,-183 24,-183 24,-171 24,-171 24,-165 30,-159 36,-159 36,-159 1242,-159 1242,-159 1248,-159 1254,-165 1254,-171 1254,-171 1254,-183 1254,-183 1254,-189 1248,-195 1242,-195"/>
<text text-anchor="middle" x="639" y="-173.3" font-family="Helvetica,sans-Serif" font-size="14.00">2025&#45;07&#45;09&#45;10&#45;57&#45;24&#45;9749b6a35f504cce82b6622608cf10a9/Kitsu__Kitsu/Kitsu__supervisord_conf/supervisord.conf</text>
</g>
<!-- 2025&#45;07&#45;09&#45;10&#45;57&#45;24&#45;9749b6a35f504cce82b6622608cf10a9/Kitsu__Kitsu/Kitsu__supervisord_conf/supervisord.conf&#45;&gt;NODE&#45;SERVICE_kitsu -->
<g id="edge5" class="edge">
<title>2025&#45;07&#45;09&#45;10&#45;57&#45;24&#45;9749b6a35f504cce82b6622608cf10a9/Kitsu__Kitsu/Kitsu__supervisord_conf/supervisord.conf:e&#45;&gt;NODE&#45;SERVICE_kitsu:w</title>
<path fill="none" stroke="#00ffff" stroke-dasharray="5,2" d="M1263.1,-177.95C1337.11,-186.67 1894.73,-252.37 1968.46,-261.05"/>
<ellipse fill="#00ffff" stroke="#00ffff" cx="1258.97" cy="-177.47" rx="4" ry="4"/>
<ellipse fill="#00ffff" stroke="#00ffff" cx="1972.53" cy="-261.53" rx="4" ry="4"/>
</g>
<!-- 2025&#45;07&#45;09&#45;10&#45;57&#45;24&#45;9749b6a35f504cce82b6622608cf10a9/Kitsu__Kitsu/data/kitsu/postgresql -->
<g id="node6" class="node">
<title>2025&#45;07&#45;09&#45;10&#45;57&#45;24&#45;9749b6a35f504cce82b6622608cf10a9/Kitsu__Kitsu/data/kitsu/postgresql</title>
<path fill="#00ffff" stroke="black" d="M1171.5,-311C1171.5,-311 106.5,-311 106.5,-311 100.5,-311 94.5,-305 94.5,-299 94.5,-299 94.5,-287 94.5,-287 94.5,-281 100.5,-275 106.5,-275 106.5,-275 1171.5,-275 1171.5,-275 1177.5,-275 1183.5,-281 1183.5,-287 1183.5,-287 1183.5,-299 1183.5,-299 1183.5,-305 1177.5,-311 1171.5,-311"/>
<text text-anchor="middle" x="639" y="-289.3" font-family="Helvetica,sans-Serif" font-size="14.00">2025&#45;07&#45;09&#45;10&#45;57&#45;24&#45;9749b6a35f504cce82b6622608cf10a9/Kitsu__Kitsu/data/kitsu/postgresql</text>
</g>
<!-- 2025&#45;07&#45;09&#45;10&#45;57&#45;24&#45;9749b6a35f504cce82b6622608cf10a9/Kitsu__Kitsu/data/kitsu/postgresql&#45;&gt;NODE&#45;SERVICE_kitsu -->
<g id="edge6" class="edge">
<title>2025&#45;07&#45;09&#45;10&#45;57&#45;24&#45;9749b6a35f504cce82b6622608cf10a9/Kitsu__Kitsu/data/kitsu/postgresql:e&#45;&gt;NODE&#45;SERVICE_kitsu:w</title>
<path fill="none" stroke="#00ffff" d="M1193.09,-293.38C1271.2,-297.03 1890.12,-325.96 1968.38,-329.62"/>
<ellipse fill="#00ffff" stroke="#00ffff" cx="1189" cy="-293.19" rx="4" ry="4"/>
<ellipse fill="#00ffff" stroke="#00ffff" cx="1972.5" cy="-329.81" rx="4" ry="4"/>
</g>
<!-- 2025&#45;07&#45;09&#45;10&#45;57&#45;24&#45;9749b6a35f504cce82b6622608cf10a9/Kitsu__Kitsu/data/kitsu/postgresql&#45;&gt;NODE&#45;SERVICE_kitsu&#45;init&#45;db -->
<g id="edge10" class="edge">
<title>2025&#45;07&#45;09&#45;10&#45;57&#45;24&#45;9749b6a35f504cce82b6622608cf10a9/Kitsu__Kitsu/data/kitsu/postgresql:e&#45;&gt;NODE&#45;SERVICE_kitsu&#45;init&#45;db:w</title>
<path fill="none" stroke="#00ffff" d="M1192.38,-292.89C1358.36,-290.73 3934.99,-257.23 4098.38,-255.11"/>
<ellipse fill="#00ffff" stroke="#00ffff" cx="1188" cy="-292.95" rx="4" ry="4"/>
<ellipse fill="#00ffff" stroke="#00ffff" cx="4102.5" cy="-255.05" rx="4" ry="4"/>
</g>
<!-- 2025&#45;07&#45;09&#45;10&#45;57&#45;24&#45;9749b6a35f504cce82b6622608cf10a9/Kitsu__Kitsu/data/kitsu/previews -->
<g id="node7" class="node">
<title>2025&#45;07&#45;09&#45;10&#45;57&#45;24&#45;9749b6a35f504cce82b6622608cf10a9/Kitsu__Kitsu/data/kitsu/previews</title>
<path fill="#00ffff" stroke="black" d="M1166,-369C1166,-369 112,-369 112,-369 106,-369 100,-363 100,-357 100,-357 100,-345 100,-345 100,-339 106,-333 112,-333 112,-333 1166,-333 1166,-333 1172,-333 1178,-339 1178,-345 1178,-345 1178,-357 1178,-357 1178,-363 1172,-369 1166,-369"/>
<text text-anchor="middle" x="639" y="-347.3" font-family="Helvetica,sans-Serif" font-size="14.00">2025&#45;07&#45;09&#45;10&#45;57&#45;24&#45;9749b6a35f504cce82b6622608cf10a9/Kitsu__Kitsu/data/kitsu/previews</text>
</g>
<!-- 2025&#45;07&#45;09&#45;10&#45;57&#45;24&#45;9749b6a35f504cce82b6622608cf10a9/Kitsu__Kitsu/data/kitsu/previews&#45;&gt;NODE&#45;SERVICE_kitsu -->
<g id="edge7" class="edge">
<title>2025&#45;07&#45;09&#45;10&#45;57&#45;24&#45;9749b6a35f504cce82b6622608cf10a9/Kitsu__Kitsu/data/kitsu/previews:e&#45;&gt;NODE&#45;SERVICE_kitsu:w</title>
<path fill="none" stroke="#00ffff" d="M1187.15,-350.61C1265.85,-346.86 1889.46,-317.15 1968.31,-313.39"/>
<ellipse fill="#00ffff" stroke="#00ffff" cx="1183" cy="-350.81" rx="4" ry="4"/>
<ellipse fill="#00ffff" stroke="#00ffff" cx="1972.5" cy="-313.19" rx="4" ry="4"/>
</g>
<!-- kitsu -->
<g id="node8" class="node">
<title>kitsu</title>
<path fill="#ffa500" stroke="black" d="M654,-83C654,-83 624,-83 624,-83 618,-83 612,-77 612,-71 612,-71 612,-59 612,-59 612,-53 618,-47 624,-47 624,-47 654,-47 654,-47 660,-47 666,-53 666,-59 666,-59 666,-71 666,-71 666,-77 660,-83 654,-83"/>
<text text-anchor="middle" x="639" y="-61.3" font-family="Helvetica,sans-Serif" font-size="14.00">kitsu</text>
</g>
<!-- kitsu&#45;&gt;NODE&#45;SERVICE_kitsu -->
<g id="edge11" class="edge">
<title>kitsu:e&#45;&gt;NODE&#45;SERVICE_kitsu:w</title>
<path fill="none" stroke="#ffa500" d="M675.02,-65.95C779.11,-78.27 1862.67,-206.53 1968.24,-219.02"/>
<ellipse fill="#ffa500" stroke="#ffa500" cx="670.97" cy="-65.47" rx="4" ry="4"/>
<ellipse fill="#ffa500" stroke="#ffa500" cx="1972.53" cy="-219.53" rx="4" ry="4"/>
</g>
</g>
</svg>
